<?xml version="1.0" standalone="no"?>
<!DOCTYPE svg PUBLIC "-//W3C//DTD SVG 1.1//EN" "http://www.w3.org/Graphics/SVG/1.1/DTD/svg11.dtd" >
<svg xmlns="http://www.w3.org/2000/svg" xmlns:xlink="http://www.w3.org/1999/xlink" version="1.1">
<metadata></metadata>
<defs>
<font id="dipopixversalregular" horiz-adv-x="1218" >
<font-face units-per-em="2048" ascent="1638" descent="-410" />
<missing-glyph horiz-adv-x="500" />
<glyph horiz-adv-x="0" />
<glyph horiz-adv-x="682" />
<glyph unicode=" " />
<glyph unicode="!" d="M457 762h-152v457h152v152h305v-152h152v-457h-152v-305h-305v305zM762 0h-305v305h305v-305z" />
<glyph unicode="&#x22;" d="M457 914h-305v457h305v-457zM1066 914h-304v457h304v-457z" />
<glyph unicode="#" d="M305 305h-153v152h153v457h-153v152h153v305h304v-305h153v305h304v-305h153v-152h-153v-457h153v-152h-153v-305h-304v305h-153v-305h-304v305zM609 914v-457h153v457h-153z" />
<glyph unicode="$" d="M305 152h-153v153h305v-153h305v305h-153v152h-152v153h-152v152h-153v305h153v152h152v305h305v-305h152v-152h152v-153h-304v153h-305v-305h152v-152h153v-153h152v-152h152v-305h-152v-152h-152v-305h-305v305h-152v152z" />
<glyph unicode="%" d="M152 1066h-152v305h152v152h457v-152h153v-305h152v153h152v-305h-152v-152h-152v-153h-153v-152h457v-152h153v-305h-153v-152h-457v152h-152v305h-152v-153h-153v305h153v152h152v153h152v152h-457v152zM305 1371v-305h152v305h-152zM457 457v-152h152v152h-152z M609 1066v-152h153v152h-153zM762 305v-305h152v305h-152z" />
<glyph unicode="&#x26;" d="M305 152h-153v610h153v152h-153v305h153v152h457v-152h152v-305h-152v-152h-305v-610h305v305h-153v152h610v-152h-153v-305h153v-152h-305v152h-152v-152h-457v152zM457 1219v-305h152v305h-152z" />
<glyph unicode="'" d="M762 914h-305v457h305v-457z" />
<glyph unicode="(" d="M457 152h-152v762h152v305h152v152h305v-152h-152v-305h-153v-762h153v-304h152v-153h-305v153h-152v304z" />
<glyph unicode=")" d="M305 -305v153h152v304h152v762h-152v305h-152v152h304v-152h153v-305h152v-762h-152v-304h-153v-153h-304z" />
<glyph unicode="*" d="M457 609h-305v153h305v152h-152v152h304v-152h153v152h304v-152h-152v-152h305v-153h-305v-152h152v-152h-304v152h-153v-152h-304v152h152v152z" />
<glyph unicode="+" d="M457 609h-305v153h305v304h305v-304h304v-153h-304v-304h-305v304z" />
<glyph unicode="," d="M609 0h-152v305h457v-457h-152v-153h-305v153h152v152z" />
<glyph unicode="-" d="M1066 609h-914v153h914v-153z" />
<glyph unicode="." d="M914 0h-457v305h457v-305z" />
<glyph unicode="/" d="M457 -152h-305v304h153v305h152v305h152v304h153v305h304v-305h-152v-304h-152v-305h-153v-305h-152v-304z" />
<glyph unicode="0" d="M457 152h-152v1067h152v152h609v-152h153v-1067h-153v-152h-609v152zM609 305v-153h305v491h-152v423h152v153h-305v-491h153v-423h-153z" />
<glyph unicode="1" d="M609 914h-457v152h305v153h152v152h305v-1371h-305v914z" />
<glyph unicode="2" d="M1066 0h-914v305h153v152h152v152h152v153h153v457h-305v-305h-305v305h153v152h609v-152h152v-457h-152v-153h-152v-152h-153v-152h-152v-153h609v-152z" />
<glyph unicode="3" d="M305 152h-153v305h305v-305h305v457h-305v153h305v457h-305v-305h-305v305h153v152h609v-152h152v-457h-152v-153h152v-457h-152v-152h-609v152z" />
<glyph unicode="4" d="M762 305h-610v304h153v762h304v-762h-152v-152h305v609h304v-609h153v-152h-153v-305h-304v305z" />
<glyph unicode="5" d="M762 0h-610v152h457v153h153v304h-610v762h914v-152h-609v-457h457v-153h152v-304h-152v-153h-152v-152z" />
<glyph unicode="6" d="M305 152h-153v762h153v152h152v305h457v-152h-152v-153h-153v-152h305v-152h152v-610h-152v-152h-609v152zM457 762v-610h305v610h-305z" />
<glyph unicode="7" d="M762 1219h-610v152h914v-305h-152v-304h-152v-305h-153v-457h-304v457h152v305h152v304h153v153z" />
<glyph unicode="8" d="M305 152h-153v457h153v153h-153v457h153v152h609v-152h152v-457h-152v-153h152v-457h-152v-152h-609v152zM457 609v-457h305v305h-153v152h-152zM457 1219v-305h152v-152h153v457h-305z" />
<glyph unicode="9" d="M305 609h-153v610h153v152h609v-152h152v-762h-152v-152h-152v-305h-457v152h152v153h152v152h-304v152zM457 1219v-610h305v610h-305z" />
<glyph unicode=":" d="M914 0h-457v305h457v-305zM914 762h-457v304h457v-304z" />
<glyph unicode=";" d="M609 0h-152v305h457v-457h-152v-153h-305v153h152v152zM914 762h-457v304h457v-304z" />
<glyph unicode="&#x3c;" d="M305 609h-153v153h153v152h152v152h152v153h153v152h304v-152h-152v-153h-152v-152h-153v-152h-152v-153h152v-152h153v-152h152v-153h152v-152h-304v152h-153v153h-152v152h-152v152z" />
<glyph unicode="=" d="M1066 457h-914v152h914v-152zM1066 762h-914v152h914v-152z" />
<glyph unicode="&#x3e;" d="M457 0h-305v152h153v153h152v152h152v152h153v153h-153v152h-152v152h-152v153h-153v152h305v-152h152v-153h153v-152h152v-152h152v-153h-152v-152h-152v-152h-153v-153h-152v-152z" />
<glyph unicode="?" d="M457 914h-305v305h153v152h609v-152h152v-305h-152v-152h-152v-305h-305v305h152v152h153v305h-305v-305zM762 0h-305v305h305v-305z" />
<glyph unicode="@" d="M152 152h-152v1067h152v152h914v-152h153v-914h-610v152h-152v305h152v152h305v305h-609v-1067h914v-152h-1067v152zM762 762v-305h152v305h-152z" />
<glyph unicode="A" d="M457 0h-305v1066h153v153h152v152h305v-152h152v-153h152v-1066h-304v457h-305v-457zM457 1066v-457h305v457h-305z" />
<glyph unicode="B" d="M914 0h-762v1371h762v-152h152v-457h-152v-153h152v-457h-152v-152zM457 609v-457h305v457h-305zM457 1219v-457h305v457h-305z" />
<glyph unicode="C" d="M305 152h-153v1067h153v152h609v-152h152v-305h-304v305h-305v-1067h305v305h304v-305h-152v-152h-609v152z" />
<glyph unicode="D" d="M762 0h-610v1371h610v-152h152v-153h152v-761h-152v-153h-152v-152zM457 1219v-1067h152v153h153v761h-153v153h-152z" />
<glyph unicode="E" d="M1066 0h-914v1371h914v-152h-609v-457h457v-153h-457v-457h609v-152z" />
<glyph unicode="F" d="M457 0h-305v1371h914v-152h-609v-457h457v-153h-457v-609z" />
<glyph unicode="G" d="M305 152h-153v1067h153v152h609v-152h152v-305h-304v305h-305v-1067h305v305h-153v152h457v-609h-761v152z" />
<glyph unicode="H" d="M457 0h-305v1371h305v-609h305v609h304v-1371h-304v609h-305v-609z" />
<glyph unicode="I" d="M914 0h-609v152h152v1067h-152v152h609v-152h-152v-1067h152v-152z" />
<glyph unicode="J" d="M305 152h-153v305h305v-305h305v1219h304v-1219h-152v-152h-609v152z" />
<glyph unicode="K" d="M457 0h-305v1371h305v-609h152v304h153v305h304v-305h-152v-304h-152v-153h152v-304h152v-305h-304v305h-153v304h-152v-609z" />
<glyph unicode="L" d="M1066 0h-914v1371h305v-1219h609v-152z" />
<glyph unicode="M" d="M457 0h-305v1371h305v-305h152v-152h153v152h152v305h305v-1371h-305v914h-152v-457h-153v457h-152v-914z" />
<glyph unicode="N" d="M457 0h-305v1371h305v-305h152v-152h153v-152h152v609h305v-1371h-305v457h-152v152h-153v153h-152v-762z" />
<glyph unicode="O" d="M305 152h-153v1067h153v152h609v-152h152v-1067h-152v-152h-609v152zM457 1219v-1067h305v1067h-305z" />
<glyph unicode="P" d="M457 0h-305v1371h762v-152h152v-457h-152v-153h-457v-609zM457 1219v-457h305v457h-305z" />
<glyph unicode="Q" d="M305 152h-153v1067h153v152h609v-152h152v-1067h-152v-304h152v-153h-304v153h-153v152h-304v152zM457 1219v-1067h305v1067h-305z" />
<glyph unicode="R" d="M457 0h-305v1371h762v-152h152v-457h-152v-305h152v-457h-304v457h-153v152h-152v-609zM457 1219v-457h305v457h-305z" />
<glyph unicode="S" d="M305 152h-153v153h305v-153h305v305h-153v152h-152v153h-152v152h-153v305h153v152h609v-152h152v-153h-304v153h-305v-305h152v-152h153v-153h152v-152h152v-305h-152v-152h-609v152z" />
<glyph unicode="T" d="M457 1219h-305v152h914v-152h-304v-1219h-305v1219z" />
<glyph unicode="U" d="M305 152h-153v1219h305v-1219h305v1219h304v-1219h-152v-152h-609v152z" />
<glyph unicode="V" d="M305 305h-153v1066h305v-1066h305v1066h304v-1066h-152v-153h-152v-152h-305v152h-152v153z" />
<glyph unicode="W" d="M305 457h-153v914h305v-914h152v457h153v-457h152v914h305v-914h-153v-457h-304v457h-153v-457h-304v457z" />
<glyph unicode="X" d="M457 0h-305v457h153v152h152v305h-152v152h-153v305h305v-305h152v-152h153v457h304v-305h-152v-152h-152v-305h152v-152h152v-457h-304v457h-153v152h-152v-609z" />
<glyph unicode="Y" d="M305 762h-153v609h305v-609h305v609h304v-609h-152v-153h-152v-609h-305v609h-152v153z" />
<glyph unicode="Z" d="M1066 0h-914v457h153v152h152v153h152v152h153v305h-610v152h914v-457h-152v-152h-152v-153h-153v-152h-152v-305h609v-152z" />
<glyph unicode="[" d="M914 -457h-609v1828h609v-152h-305v-1524h305v-152z" />
<glyph unicode="\" d="M305 1066h-153v305h305v-305h152v-304h153v-305h152v-305h152v-304h-304v304h-153v305h-152v305h-152v304z" />
<glyph unicode="]" d="M305 -457v152h304v1524h-304v152h609v-1828h-609z" />
<glyph unicode="^" d="M457 1219h-305v152h153v152h152v153h305v-153h152v-152h152v-152h-304v152h-305v-152z" />
<glyph unicode="_" d="M0 -457v152h1219v-152h-1219z" />
<glyph unicode="`" d="M457 1523h-152v153h457v-305h152v-152h-305v152h-152v152z" />
<glyph unicode="a" d="M305 152h-153v305h153v152h457v305h-457v152h609v-152h152v-914h-761v152zM457 457v-305h305v305h-305z" />
<glyph unicode="b" d="M914 0h-762v1371h305v-305h457v-152h152v-762h-152v-152zM457 914v-762h305v762h-305z" />
<glyph unicode="c" d="M305 152h-153v762h153v152h609v-152h152v-152h-304v152h-305v-762h305v153h304v-153h-152v-152h-609v152z" />
<glyph unicode="d" d="M305 152h-153v762h153v152h457v305h304v-1371h-761v152zM457 914v-762h305v762h-305z" />
<glyph unicode="e" d="M305 152h-153v762h153v152h609v-152h152v-457h-609v-305h457v-152h-609v152zM457 914v-305h305v305h-305z" />
<glyph unicode="f" d="M305 609h-153v153h153v457h152v152h609v-152h-457v-457h457v-153h-457v-609h-304v609z" />
<glyph unicode="g" d="M305 152h-153v762h153v152h761v-1371h-152v-152h-762v152h610v305h-457v152zM457 914v-762h305v762h-305z" />
<glyph unicode="h" d="M457 0h-305v1371h305v-305h457v-152h152v-914h-304v914h-305v-914z" />
<glyph unicode="i" d="M1066 0h-914v152h305v762h-305v152h610v-914h304v-152zM762 1219h-305v304h305v-304z" />
<glyph unicode="j" d="M152 -457v152h457v1219h-304v152h609v-1371h-152v-152h-610zM914 1219h-305v304h305v-304z" />
<glyph unicode="k" d="M457 0h-305v1371h305v-762h152v153h153v304h304v-304h-152v-153h-152v-152h152v-152h152v-305h-304v305h-153v152h-152v-457z" />
<glyph unicode="l" d="M1066 0h-914v152h305v1067h-305v152h610v-1219h304v-152z" />
<glyph unicode="m" d="M457 0h-305v1066h914v-152h153v-914h-305v914h-152v-762h-153v762h-152v-914z" />
<glyph unicode="n" d="M457 0h-305v1066h762v-152h152v-914h-304v914h-305v-914z" />
<glyph unicode="o" d="M305 152h-153v762h153v152h609v-152h152v-762h-152v-152h-609v152zM457 914v-762h305v762h-305z" />
<glyph unicode="p" d="M457 -457h-305v1523h762v-152h152v-762h-152v-152h-457v-457zM457 914v-762h305v762h-305z" />
<glyph unicode="q" d="M305 152h-153v762h153v152h761v-1523h-304v457h-457v152zM457 914v-762h305v762h-305z" />
<glyph unicode="r" d="M457 0h-305v1066h305v-304h152v152h153v152h304v-304h-457v-153h-152v-609z" />
<glyph unicode="s" d="M914 0h-762v152h610v305h-457v152h-153v305h153v152h761v-152h-609v-305h457v-152h152v-305h-152v-152z" />
<glyph unicode="t" d="M305 914h-153v152h153v305h304v-305h457v-152h-457v-762h457v-152h-609v152h-152v762z" />
<glyph unicode="u" d="M305 152h-153v914h305v-914h305v914h304v-1066h-761v152z" />
<glyph unicode="v" d="M305 305h-153v761h305v-761h305v761h304v-761h-152v-153h-152v-152h-305v152h-152v153z" />
<glyph unicode="w" d="M305 305h-153v761h305v-761h152v609h153v-609h152v761h305v-761h-153v-305h-304v305h-153v-305h-304v305z" />
<glyph unicode="x" d="M457 0h-305v305h153v152h152v152h-152v153h-153v304h305v-304h305v304h304v-304h-152v-153h-152v-152h152v-152h152v-305h-304v305h-305v-305z" />
<glyph unicode="y" d="M0 -457v152h457v153h152v152h-304v152h-153v914h305v-914h305v914h304v-914h-152v-304h-152v-153h-153v-152h-609z" />
<glyph unicode="z" d="M1066 0h-914v305h153v152h152v152h152v153h153v152h-610v152h914v-304h-152v-153h-152v-152h-153v-152h-152v-153h609v-152z" />
<glyph unicode="{" d="M305 457h-153v152h153v153h152v457h152v152h305v-152h-152v-457h-153v-153h-152v-152h152v-152h153v-457h152v-153h-305v153h-152v457h-152v152z" />
<glyph unicode="|" d="M762 -457h-305v1828h305v-1828z" />
<glyph unicode="}" d="M305 -305v153h152v457h152v152h153v152h-153v153h-152v457h-152v152h304v-152h153v-457h152v-153h152v-152h-152v-152h-152v-457h-153v-153h-304z" />
<glyph unicode="~" d="M152 914h-152v305h152v152h457v-152h153v-153h152v153h152v152h153v-305h-153v-152h-457v152h-152v153h-152v-153h-153v-152z" />
<glyph unicode="&#xa0;" />
<glyph unicode="&#xa1;" d="M305 -305v457h152v305h305v-305h152v-457h-152v-152h-305v152h-152zM762 609h-305v305h305v-305z" />
<glyph unicode="&#xa2;" d="M305 305h-153v609h153v152h152v305h305v-305h152v-152h152v-152h-304v152h-305v-609h305v152h304v-152h-152v-153h-152v-304h-305v304h-152v153z" />
<glyph unicode="&#xa3;" d="M1066 0h-1066v305h152v304h-152v153h152v457h153v152h609v-152h152v-153h-304v153h-305v-457h457v-153h-457v-304h-152v-153h761v-152z" />
<glyph unicode="&#xa4;" d="M457 305h-305v152h153v152h-153v305h153v152h-153v153h305v-153h305v153h304v-153h-152v-152h152v-305h-152v-152h152v-152h-304v152h-305v-152zM457 914v-305h305v305h-305z" />
<glyph unicode="&#xa5;" d="M457 305h-305v152h305v152h-305v153h153v152h-153v457h305v-457h305v457h304v-457h-152v-152h152v-153h-304v-152h304v-152h-304v-305h-305v305z" />
<glyph unicode="&#xa6;" d="M457 -457v762h305v-762h-305zM762 609h-305v762h305v-762z" />
<glyph unicode="&#xa7;" d="M152 -305v153h305v-153h305v305h-305v152h-152v153h-153v304h153v305h-153v305h153v152h609v-152h152v-153h-304v153h-305v-305h305v-152h152v-153h152v-304h-152v-305h152v-305h-152v-152h-609v152h-153zM457 609v-304h305v304h-305z" />
<glyph unicode="&#xa8;" d="M457 1219h-305v304h305v-304zM1066 1219h-304v304h304v-304z" />
<glyph unicode="&#xa9;" d="M152 152h-152v1067h152v152h914v-152h153v-1067h-153v-152h-914v152zM152 1066v-761h153v-153h609v153h152v761h-152v153h-609v-153h-153zM457 457h-152v457h152v-457h305v-152h-305v152zM762 914h-305v152h305v-152h152v-152h-152v152zM914 457h-152v152h152v-152z" />
<glyph unicode="&#xaa;" d="M1066 305h-914v152h914v-152zM305 762h-153v152h153v152h457v153h-457v152h609v-152h152v-610h-761v153zM457 914v-152h305v152h-305z" />
<glyph unicode="&#xab;" d="M152 305h-152v152h152v152h153v153h304v-153h-152v-152h-152v-152h152v-153h152v-152h-304v152h-153v153zM762 305h-153v152h153v152h152v153h305v-153h-153v-152h-152v-152h152v-153h153v-152h-305v152h-152v153z" />
<glyph unicode="&#xac;" d="M762 609h-610v153h914v-457h-304v304z" />
<glyph unicode="&#xad;" d="M1066 609h-914v153h914v-153z" />
<glyph unicode="&#xae;" d="M152 152h-152v1067h152v152h914v-152h153v-1067h-153v-152h-914v152zM152 1066v-761h153v-153h609v153h-152v152h-305v-152h-152v761h-153zM305 1219v-153h457v-152h152v-305h-152v305h-305v-305h305v-152h152v-152h152v761h-152v153h-609z" />
<glyph unicode="&#xaf;" d="M1219 1676h-1219v152h1219v-152z" />
<glyph unicode="&#xb0;" d="M305 1066h-153v305h153v152h609v-152h152v-305h-152v-152h-609v152zM457 1371v-305h305v305h-305z" />
<glyph unicode="&#xb1;" d="M1066 0h-914v152h914v-152zM457 609h-305v153h305v304h305v-304h304v-153h-304v-304h-305v304z" />
<glyph unicode="&#xb2;" d="M914 609h-609v305h152v152h152v153h-304v152h457v-152h152v-153h-152v-152h-153v-152h305v-153z" />
<glyph unicode="&#xb3;" d="M762 609h-457v153h304v152h-152v152h152v153h-304v152h457v-152h152v-153h-152v-152h152v-152h-152v-153z" />
<glyph unicode="&#xb4;" d="M609 1219h-304v152h152v305h457v-153h-152v-152h-153v-152z" />
<glyph unicode="&#xb5;" d="M0 -457v152h152v1371h305v-914h305v-152h-305v-305h-152v-152h-305zM914 152h-152v914h304v-914h153v-152h-305v152z" />
<glyph unicode="&#xb6;" d="M305 609h-153v457h153v153h152v152h762v-152h-153v-1676h-304v762h-305v152h-152v152z" />
<glyph unicode="&#xb7;" d="M914 609h-457v305h457v-305z" />
<glyph unicode="&#xb8;" d="M305 -457v152h304v153h-152v152h305v-152h152v-153h-152v-152h-457z" />
<glyph unicode="&#xb9;" d="M457 1066h-152v153h152v152h305v-762h-305v457z" />
<glyph unicode="&#xba;" d="M1066 305h-914v152h914v-152zM305 762h-153v457h153v152h609v-152h152v-457h-152v-153h-609v153zM457 1219v-457h305v457h-305z" />
<glyph unicode="&#xbb;" d="M305 0h-305v152h152v153h153v152h-153v152h-152v153h305v-153h152v-152h152v-152h-152v-153h-152v-152zM914 0h-305v152h153v153h152v152h-152v152h-153v153h305v-153h152v-152h153v-152h-153v-153h-152v-152z" />
<glyph unicode="&#xbc;" d="M305 152h-305v153h152v152h153v152h152v153h-305v457h-152v152h152v152h305v-761h152v152h153v152h152v153h305v-153h-153v-152h-152v-152h-152v-153h457v-761h-305v152h-457v305h-152v-153zM457 457v-152h152v152h-152zM609 609v-152h153v152h-153zM762 305v-153h152 v153h-152z" />
<glyph unicode="&#xbd;" d="M305 152h-305v153h152v152h153v152h152v153h-305v457h-152v152h152v152h305v-761h152v152h153v152h152v153h305v-153h-153v-152h-152v-152h-152v-153h304v-152h153v-152h-153v-153h-152v-152h305v-152h-610v304h153v153h152v152h-457v-152h-152v-153z" />
<glyph unicode="&#xbe;" d="M305 152h-305v153h152v152h153v152h152v153h-457v152h305v152h-153v153h153v152h-305v152h457v-152h152v-152h-152v-153h152v-152h153v152h152v153h305v-153h-153v-152h-152v-152h-152v-153h457v-761h-305v152h-457v305h-152v-153zM457 457v-152h152v152h-152zM457 914 v-152h152v152h-152zM609 609v-152h153v152h-153zM762 305v-153h152v153h-152z" />
<glyph unicode="&#xbf;" d="M152 -305v305h153v152h152v305h305v-305h-153v-152h-152v-305h305v305h304v-305h-152v-152h-609v152h-153zM762 609h-305v305h305v-305z" />
<glyph unicode="&#xc0;" d="M457 0h-305v1066h153v153h152v152h305v-152h152v-153h152v-1066h-304v457h-305v-457zM457 1676h-152v152h304v-152h153v-153h-305v153zM457 1066v-457h305v457h-305z" />
<glyph unicode="&#xc1;" d="M457 0h-305v1066h153v153h152v152h305v-152h152v-153h152v-1066h-304v457h-305v-457zM457 1066v-457h305v457h-305zM762 1523h-305v153h152v152h305v-152h-152v-153z" />
<glyph unicode="&#xc2;" d="M457 0h-305v1066h153v153h152v152h305v-152h152v-153h152v-1066h-304v457h-305v-457zM457 1523h-305v153h153v152h152v152h305v-152h152v-152h152v-153h-304v153h-305v-153zM457 1066v-457h305v457h-305z" />
<glyph unicode="&#xc3;" d="M457 0h-305v1066h153v153h152v152h305v-152h152v-153h152v-1066h-304v457h-305v-457zM457 1523h-305v153h153v152h457v-152h152v152h305v-152h-153v-153h-457v153h-152v-153zM457 1066v-457h305v457h-305z" />
<glyph unicode="&#xc4;" d="M457 0h-305v1066h153v153h152v152h305v-152h152v-153h152v-1066h-304v457h-305v-457zM457 1523h-305v305h305v-305zM457 1066v-457h305v457h-305zM1066 1523h-304v305h304v-305z" />
<glyph unicode="&#xc5;" d="M457 0h-305v1066h153v153h152v152h305v-152h152v-153h152v-1066h-304v457h-305v-457zM305 1676h-153v152h153v152h609v-152h152v-152h-152v-153h-609v153zM457 1066v-457h305v457h-305zM457 1828v-152h305v152h-305z" />
<glyph unicode="&#xc6;" d="M457 0h-305v1066h153v153h152v152h762v-152h-305v-457h305v-153h-305v-457h305v-152h-610v457h-152v-457zM457 1066v-457h152v457h-152z" />
<glyph unicode="&#xc7;" d="M305 152h-153v1067h153v152h609v-152h152v-305h-304v305h-305v-1067h305v305h304v-305h-152v-152h-152v-152h152v-153h-152v-152h-457v152h304v153h-152v152h-152v152z" />
<glyph unicode="&#xc8;" d="M1066 0h-914v1371h914v-152h-609v-457h457v-153h-457v-457h609v-152zM457 1676h-152v152h304v-152h153v-153h-305v153z" />
<glyph unicode="&#xc9;" d="M1066 0h-914v1371h914v-152h-609v-457h457v-153h-457v-457h609v-152zM762 1523h-305v153h152v152h305v-152h-152v-153z" />
<glyph unicode="&#xca;" d="M1066 0h-914v1371h914v-152h-609v-457h457v-153h-457v-457h609v-152zM457 1523h-305v153h153v152h152v152h305v-152h152v-152h152v-153h-304v153h-305v-153z" />
<glyph unicode="&#xcb;" d="M1066 0h-914v1371h914v-152h-609v-457h457v-153h-457v-457h609v-152zM457 1523h-305v305h305v-305zM1066 1523h-304v305h304v-305z" />
<glyph unicode="&#xcc;" d="M914 0h-609v152h152v1067h-152v152h609v-152h-152v-1067h152v-152zM457 1676h-152v152h304v-152h153v-153h-305v153z" />
<glyph unicode="&#xcd;" d="M914 0h-609v152h152v1067h-152v152h609v-152h-152v-1067h152v-152zM762 1523h-305v153h152v152h305v-152h-152v-153z" />
<glyph unicode="&#xce;" d="M457 1523h-305v153h153v152h152v152h305v-152h152v-152h152v-153h-304v153h-305v-153zM914 0h-609v152h152v1067h-152v152h609v-152h-152v-1067h152v-152z" />
<glyph unicode="&#xcf;" d="M457 1523h-305v305h305v-305zM914 0h-609v152h152v1067h-152v152h609v-152h-152v-1067h152v-152zM1066 1523h-304v305h304v-305z" />
<glyph unicode="&#xd0;" d="M152 609h-152v153h152v609h610v-152h152v-153h152v-761h-152v-153h-152v-152h-610v609zM457 609v-457h152v153h153v761h-153v153h-152v-457h152v-153h-152z" />
<glyph unicode="&#xd1;" d="M457 0h-305v1371h305v-305h152v-152h153v-152h152v609h305v-1371h-305v457h-152v152h-153v153h-152v-762zM457 1523h-305v153h153v152h457v-152h152v152h305v-152h-153v-153h-457v153h-152v-153z" />
<glyph unicode="&#xd2;" d="M305 152h-153v1067h153v152h609v-152h152v-1067h-152v-152h-609v152zM457 1676h-152v152h304v-152h153v-153h-305v153zM457 1219v-1067h305v1067h-305z" />
<glyph unicode="&#xd3;" d="M305 152h-153v1067h153v152h609v-152h152v-1067h-152v-152h-609v152zM457 1219v-1067h305v1067h-305zM762 1523h-305v153h152v152h305v-152h-152v-153z" />
<glyph unicode="&#xd4;" d="M305 152h-153v1067h153v152h609v-152h152v-1067h-152v-152h-609v152zM457 1523h-305v153h153v152h152v152h305v-152h152v-152h152v-153h-304v153h-305v-153zM457 1219v-1067h305v1067h-305z" />
<glyph unicode="&#xd5;" d="M305 152h-153v1067h153v152h609v-152h152v-1067h-152v-152h-609v152zM457 1523h-305v153h153v152h457v-152h152v152h305v-152h-153v-153h-457v153h-152v-153zM457 1219v-1067h305v1067h-305z" />
<glyph unicode="&#xd6;" d="M305 152h-153v1067h153v152h609v-152h152v-1067h-152v-152h-609v152zM457 1523h-305v305h305v-305zM457 1219v-1067h305v1067h-305zM1066 1523h-304v305h304v-305z" />
<glyph unicode="&#xd7;" d="M305 152h-153v305h153v152h152v153h-152v152h-153v305h153v-153h152v-152h305v152h152v153h152v-305h-152v-152h-152v-153h152v-152h152v-305h-152v153h-152v152h-305v-152h-152v-153z" />
<glyph unicode="&#xd8;" d="M914 0h-762v1219h153v152h761v-1219h-152v-152zM457 305v-153h305v457h-153v-304h-152zM457 1219v-457h152v304h153v153h-305z" />
<glyph unicode="&#xd9;" d="M305 152h-153v1219h305v-1219h305v1219h304v-1219h-152v-152h-609v152zM457 1676h-152v152h304v-152h153v-153h-305v153z" />
<glyph unicode="&#xda;" d="M305 152h-153v1219h305v-1219h305v1219h304v-1219h-152v-152h-609v152zM762 1523h-305v153h152v152h305v-152h-152v-153z" />
<glyph unicode="&#xdb;" d="M305 152h-153v1219h305v-1219h305v1219h304v-1219h-152v-152h-609v152zM457 1523h-305v153h153v152h152v152h305v-152h152v-152h152v-153h-304v153h-305v-153z" />
<glyph unicode="&#xdc;" d="M305 152h-153v1219h305v-1219h305v1219h304v-1219h-152v-152h-609v152zM457 1523h-305v305h305v-305zM1066 1523h-304v305h304v-305z" />
<glyph unicode="&#xdd;" d="M305 762h-153v609h305v-609h305v609h304v-609h-152v-153h-152v-609h-305v609h-152v153zM762 1523h-305v153h152v152h305v-152h-152v-153z" />
<glyph unicode="&#xde;" d="M457 0h-305v1371h305v-305h457v-152h152v-457h-152v-152h-457v-305zM457 914v-457h305v457h-305z" />
<glyph unicode="&#xdf;" d="M457 0h-305v1219h153v152h457v-152h152v-457h152v-610h-152v-152h-305v152h153v610h-153v457h-152v-1219z" />
<glyph unicode="&#xe0;" d="M305 152h-153v305h153v152h457v305h-457v152h609v-152h152v-914h-761v152zM305 1523h-153v153h457v-305h153v-152h-305v152h-152v152zM457 457v-305h305v305h-305z" />
<glyph unicode="&#xe1;" d="M305 152h-153v305h153v152h457v305h-457v152h609v-152h152v-914h-761v152zM457 457v-305h305v305h-305zM762 1219h-305v152h152v305h457v-153h-152v-152h-152v-152z" />
<glyph unicode="&#xe2;" d="M305 152h-153v305h153v152h457v305h-457v152h609v-152h152v-914h-761v152zM457 1219h-305v152h153v152h152v153h305v-153h152v-152h152v-152h-304v152h-305v-152zM457 457v-305h305v305h-305z" />
<glyph unicode="&#xe3;" d="M305 152h-153v305h153v152h457v305h-457v152h609v-152h152v-914h-761v152zM457 1219h-305v152h153v152h457v-152h152v152h305v-152h-153v-152h-457v152h-152v-152zM457 457v-305h305v305h-305z" />
<glyph unicode="&#xe4;" d="M305 152h-153v305h153v152h457v305h-457v152h609v-152h152v-914h-761v152zM457 1219h-305v304h305v-304zM457 457v-305h305v305h-305zM1066 1219h-304v304h304v-304z" />
<glyph unicode="&#xe5;" d="M305 152h-153v305h153v152h457v305h-457v152h609v-152h152v-914h-761v152zM305 1371h-153v152h153v153h609v-153h152v-152h-152v-152h-609v152zM457 457v-305h305v305h-305zM457 1523v-152h305v152h-305z" />
<glyph unicode="&#xe6;" d="M152 152h-152v305h152v152h305v305h-305v152h305v-152h152v152h457v-152h153v-457h-457v-305h457v-152h-457v152h-153v-152h-457v152zM305 457v-305h152v305h-152zM762 914v-305h152v305h-152z" />
<glyph unicode="&#xe7;" d="M305 152h-153v762h153v152h609v-152h152v-152h-304v152h-305v-762h305v153h304v-153h-152v-152h-152v-152h152v-153h-152v-152h-457v152h304v153h-152v152h-152v152z" />
<glyph unicode="&#xe8;" d="M305 152h-153v762h153v152h609v-152h152v-457h-609v-305h457v-152h-609v152zM305 1523h-153v153h457v-305h153v-152h-305v152h-152v152zM457 914v-305h305v305h-305z" />
<glyph unicode="&#xe9;" d="M305 152h-153v762h153v152h609v-152h152v-457h-609v-305h457v-152h-609v152zM457 914v-305h305v305h-305zM762 1219h-305v152h152v305h457v-153h-152v-152h-152v-152z" />
<glyph unicode="&#xea;" d="M305 152h-153v762h153v152h609v-152h152v-457h-609v-305h457v-152h-609v152zM457 1219h-305v152h153v152h152v153h305v-153h152v-152h152v-152h-304v152h-305v-152zM457 914v-305h305v305h-305z" />
<glyph unicode="&#xeb;" d="M305 152h-153v762h153v152h609v-152h152v-457h-609v-305h457v-152h-609v152zM457 1219h-305v304h305v-304zM457 914v-305h305v305h-305zM1066 1219h-304v304h304v-304z" />
<glyph unicode="&#xec;" d="M1066 0h-914v152h305v762h-305v152h610v-914h304v-152zM305 1523h-153v153h457v-305h153v-152h-305v152h-152v152z" />
<glyph unicode="&#xed;" d="M1066 0h-914v152h305v762h-305v152h610v-914h304v-152zM762 1219h-305v152h152v305h457v-153h-152v-152h-152v-152z" />
<glyph unicode="&#xee;" d="M1066 0h-914v152h305v762h-305v152h610v-914h304v-152zM457 1219h-305v152h153v152h152v153h305v-153h152v-152h152v-152h-304v152h-305v-152z" />
<glyph unicode="&#xef;" d="M1066 0h-914v152h305v762h-305v152h610v-914h304v-152zM457 1219h-305v304h305v-304zM1066 1219h-304v304h304v-304z" />
<glyph unicode="&#xf0;" d="M305 152h-153v610h305v-610h305v610h-305v152h-305v152h305v-152h152v152h-152v153h-152v152h304v-152h153v-153h152v-152h152v-762h-152v-152h-609v152zM1066 1219h-304v152h304v-152z" />
<glyph unicode="&#xf1;" d="M457 0h-305v1066h762v-152h152v-914h-304v914h-305v-914zM457 1219h-305v152h153v152h457v-152h152v152h305v-152h-153v-152h-457v152h-152v-152z" />
<glyph unicode="&#xf2;" d="M305 152h-153v762h153v152h609v-152h152v-762h-152v-152h-609v152zM305 1523h-153v153h457v-305h153v-152h-305v152h-152v152zM457 914v-762h305v762h-305z" />
<glyph unicode="&#xf3;" d="M305 152h-153v762h153v152h609v-152h152v-762h-152v-152h-609v152zM457 914v-762h305v762h-305zM762 1219h-305v152h152v305h457v-153h-152v-152h-152v-152z" />
<glyph unicode="&#xf4;" d="M305 152h-153v762h153v152h609v-152h152v-762h-152v-152h-609v152zM457 1219h-305v152h153v152h152v153h305v-153h152v-152h152v-152h-304v152h-305v-152zM457 914v-762h305v762h-305z" />
<glyph unicode="&#xf5;" d="M305 152h-153v762h153v152h609v-152h152v-762h-152v-152h-609v152zM457 1219h-305v152h153v152h457v-152h152v152h305v-152h-153v-152h-457v152h-152v-152zM457 914v-762h305v762h-305z" />
<glyph unicode="&#xf6;" d="M305 152h-153v762h153v152h609v-152h152v-762h-152v-152h-609v152zM457 1219h-305v304h305v-304zM457 914v-762h305v762h-305zM1066 1219h-304v304h304v-304z" />
<glyph unicode="&#xf7;" d="M1066 609h-914v153h914v-153zM762 152h-305v305h305v-305zM762 914h-305v305h305v-305z" />
<glyph unicode="&#xf8;" d="M914 0h-762v914h153v152h761v-914h-152v-152zM457 305v-153h305v305h-153v-152h-152zM457 914v-305h152v153h153v152h-305z" />
<glyph unicode="&#xf9;" d="M305 152h-153v914h305v-914h305v914h304v-1066h-761v152zM305 1523h-153v153h457v-305h153v-152h-305v152h-152v152z" />
<glyph unicode="&#xfa;" d="M305 152h-153v914h305v-914h305v914h304v-1066h-761v152zM762 1219h-305v152h152v305h457v-153h-152v-152h-152v-152z" />
<glyph unicode="&#xfb;" d="M305 152h-153v914h305v-914h305v914h304v-1066h-761v152zM457 1219h-305v152h153v152h152v153h305v-153h152v-152h152v-152h-304v152h-305v-152z" />
<glyph unicode="&#xfc;" d="M305 152h-153v914h305v-914h305v914h304v-1066h-761v152zM457 1219h-305v304h305v-304zM1066 1219h-304v304h304v-304z" />
<glyph unicode="&#xfd;" d="M0 -457v152h457v153h152v152h-304v152h-153v914h305v-914h305v914h304v-914h-152v-304h-152v-153h-153v-152h-609zM762 1219h-305v152h152v305h457v-153h-152v-152h-152v-152z" />
<glyph unicode="&#xfe;" d="M457 -457h-305v1828h305v-305h457v-152h152v-762h-152v-152h-457v-457zM457 914v-762h305v762h-305z" />
<glyph unicode="&#xff;" d="M0 -457v152h457v153h152v152h-304v152h-153v914h305v-914h305v914h304v-914h-152v-304h-152v-153h-153v-152h-609zM457 1219h-305v304h305v-304zM1066 1219h-304v304h304v-304z" />
<glyph unicode="&#x152;" d="M305 152h-153v1067h153v152h914v-152h-305v-457h305v-153h-305v-457h305v-152h-914v152zM457 1219v-1067h152v1067h-152z" />
<glyph unicode="&#x153;" d="M152 152h-152v762h152v152h305v-152h-152v-762h152v762h152v152h457v-152h153v-457h-457v-305h457v-152h-457v152h-137v-152h-473v152zM762 914v-305h152v305h-152z" />
<glyph unicode="&#x178;" d="M305 762h-153v609h305v-609h305v609h304v-609h-152v-153h-152v-609h-305v609h-152v153zM457 1523h-305v305h305v-305zM1066 1523h-304v305h304v-305z" />
<glyph unicode="&#x2c6;" d="M457 1523h-305v153h153v152h609v-152h152v-153h-304v153h-305v-153z" />
<glyph unicode="&#x2dc;" d="M457 1523h-305v153h153v152h457v-152h152v152h305v-152h-153v-153h-457v153h-152v-153z" />
<glyph unicode="&#x2000;" horiz-adv-x="990" />
<glyph unicode="&#x2001;" horiz-adv-x="1980" />
<glyph unicode="&#x2002;" horiz-adv-x="990" />
<glyph unicode="&#x2003;" horiz-adv-x="1980" />
<glyph unicode="&#x2004;" horiz-adv-x="660" />
<glyph unicode="&#x2005;" horiz-adv-x="495" />
<glyph unicode="&#x2006;" horiz-adv-x="330" />
<glyph unicode="&#x2007;" horiz-adv-x="330" />
<glyph unicode="&#x2008;" horiz-adv-x="247" />
<glyph unicode="&#x2009;" horiz-adv-x="396" />
<glyph unicode="&#x200a;" horiz-adv-x="110" />
<glyph unicode="&#x2010;" d="M1066 609h-914v153h914v-153z" />
<glyph unicode="&#x2011;" d="M1066 609h-914v153h914v-153z" />
<glyph unicode="&#x2012;" d="M1066 609h-914v153h914v-153z" />
<glyph unicode="&#x2013;" d="M914 609h-609v153h609v-153z" />
<glyph unicode="&#x2014;" d="M1219 609h-1219v153h1219v-153z" />
<glyph unicode="&#x2018;" d="M914 762h-457v457h152v152h305v-152h-152v-153h152v-304z" />
<glyph unicode="&#x2019;" d="M762 762h-305v152h152v152h-152v305h457v-457h-152v-152z" />
<glyph unicode="&#x201a;" d="M609 0h-152v305h457v-457h-152v-153h-305v153h152v152z" />
<glyph unicode="&#x201c;" d="M457 762h-457v457h152v152h305v-152h-152v-153h152v-304zM1066 762h-457v457h153v152h304v-152h-152v-153h152v-304z" />
<glyph unicode="&#x201d;" d="M457 762h-305v152h153v152h-153v305h457v-457h-152v-152zM1066 762h-304v152h152v152h-152v305h457v-457h-153v-152z" />
<glyph unicode="&#x201e;" d="M305 0h-153v305h457v-457h-152v-153h-305v153h153v152zM914 0h-152v305h457v-457h-153v-153h-304v153h152v152z" />
<glyph unicode="&#x2022;" d="M457 457h-152v305h152v152h305v-152h152v-305h-152v-152h-305v152z" />
<glyph unicode="&#x2026;" d="M305 0h-305v305h305v-305zM762 0h-305v305h305v-305zM1219 0h-305v305h305v-305z" />
<glyph unicode="&#x202f;" horiz-adv-x="396" />
<glyph unicode="&#x2039;" d="M457 305h-152v152h152v152h152v153h305v-153h-152v-152h-153v-152h153v-153h152v-152h-305v152h-152v153z" />
<glyph unicode="&#x203a;" d="M609 0h-304v152h152v153h152v152h-152v152h-152v153h304v-153h153v-152h152v-152h-152v-153h-153v-152z" />
<glyph unicode="&#x205f;" horiz-adv-x="495" />
<glyph unicode="&#x20ac;" d="M152 457h-152v152h152v153h-152v152h152v305h153v152h609v-152h152v-153h-304v153h-305v-305h457v-152h-457v-153h457v-152h-457v-305h305v153h304v-153h-152v-152h-609v152h-153v305z" />
<glyph unicode="&#x2122;" d="M152 1219h-152v152h762v-152h152v152h305v-457h-305v152h-152v-152h-153v305h-152v-305h-305v305z" />
<glyph unicode="&#x25fc;" horiz-adv-x="1065" d="M0 1065h1065v-1065h-1065v1065z" />
<glyph unicode="&#xfb01;" d="M152 762h-152v152h152v305h153v152h609v-152h152v-153h-304v153h-305v-305h609v-762h153v-152h-610v152h153v610h-305v-762h-305v762z" />
<glyph unicode="&#xfb02;" d="M152 609h-152v153h152v457h153v152h761v-1219h153v-152h-610v152h153v457h-305v-609h-305v609zM457 1219v-457h305v457h-305z" />
<glyph unicode="&#xfb03;" d="M305 0h-305v1219h152v152h914v-152h153v-153h-305v153h-152v-305h457v-914h-305v762h-152v-762h-305v762h-152v-762zM305 1219v-305h152v305h-152z" />
<glyph unicode="&#xfb04;" d="M305 0h-305v1219h152v152h1067v-1371h-305v762h-152v-762h-305v762h-152v-762zM305 1219v-305h152v305h-152zM762 1219v-305h152v305h-152z" />
</font>
</defs>
</svg>
