<?xml version="1.0" standalone="no"?>
<!DOCTYPE svg PUBLIC "-//W3C//DTD SVG 1.1//EN" "http://www.w3.org/Graphics/SVG/1.1/DTD/svg11.dtd" >
<svg xmlns="http://www.w3.org/2000/svg" xmlns:xlink="http://www.w3.org/1999/xlink" version="1.1">
<metadata></metadata>
<defs>
<font id="upakartiregular" horiz-adv-x="477" >
<font-face units-per-em="1000" ascent="800" descent="-200" />
<missing-glyph horiz-adv-x="214" />
<glyph unicode="&#xfb01;" horiz-adv-x="535" d="M312 8h-43v424q0 37 25 61q25 25 60 25h42q36 0 61 -25q24 -24 24 -61v-424h-127v424q0 12 -3 25t-18 13t-18 -13t-3 -25v-424zM85 -136q-36 0 -61 25q-24 24 -24 60v569h42v-569q0 -18 6.5 -26.5t14.5 -8.5t15 8.5t7 26.5v657q0 38 19.5 64t48.5 39.5t63.5 16t65.5 -4.5 q16 -4 33 -15.5t27.5 -25.5t12 -30.5t-12.5 -31.5l-9 -6q6 -8 17 -11.5t23 -3.5q23 0 38 9.5t23 22.5q12 21 6.5 46t-27.5 37q-23 14 -65 5q0 17 10 29.5t35 12.5q27 0 45 -11t28 -29q13 -22 15 -50t-9 -53t-36.5 -41.5t-65.5 -15.5q-22 1 -43 9.5t-32 19.5q-26 24 -26 61 q0 12 6.5 21t14.5 16q-11 4 -25 2t-25.5 -11t-19.5 -25.5t-8 -39.5v-57h73v-37h-52q-15 0 -18 -12.5t-3 -24.5v-449v-83q0 -37 -25 -60q-24 -25 -60 -25h-42z" />
<glyph horiz-adv-x="0" />
<glyph unicode="&#xd;" horiz-adv-x="318" />
<glyph unicode=" "  horiz-adv-x="214" />
<glyph unicode="&#x09;" horiz-adv-x="214" />
<glyph unicode="&#xa0;" horiz-adv-x="214" />
<glyph unicode="!" horiz-adv-x="170" d="M141 137h-102v42.5v87.5v109.5v108t-0.5 84t-0.5 38.5h103v-470zM109 8h-39q-20 0 -30 13t-10 28t10 27.5t30 12.5h39q20 0 30 -12.5t10 -27.5t-10 -28t-30 -13z" />
<glyph unicode="'" horiz-adv-x="116" d="M67 431h-42l8 176h62z" />
<glyph unicode="," horiz-adv-x="165" d="M137 118l-77 -173h-41l42 201h57q18 0 22 -4.5t-3 -23.5z" />
<glyph unicode="-" horiz-adv-x="328" d="M58 321l212 9v-85l-212 -9v85z" />
<glyph unicode="." horiz-adv-x="276" d="M89 159q30 28 58.5 31.5t52.5 -8t39.5 -34t20.5 -47.5q3 -21 -3.5 -41.5t-26.5 -37.5t-35.5 -13t-27.5 16q38 20 47 46q4 12 3 24.5t-6 23.5t-14 18.5t-21 9.5q-29 6 -50 -10t-22 -42q3 0 5.5 0.5t4.5 -0.5q16 -1 30 -14q11 -12 11 -31q-1 -17 -16 -30q-13 -12 -31 -9 q-17 1 -28 14q-24 27 -21 62q2 18 7.5 37.5t22.5 34.5z" />
<glyph unicode="0" horiz-adv-x="418" d="M366 413v-301q0 -28 -15.5 -48.5t-39.5 -32.5t-51.5 -17.5t-51.5 -5.5q-29 2 -57 8.5t-49.5 20t-35 33t-13.5 44.5v297q0 26 13.5 45.5t35 33.5t49.5 20.5t57 6.5q24 0 51.5 -5t51.5 -17.5t39.5 -32.5t15.5 -49zM180 411v-297q0 -26 23 -40.5t50 -14.5q13 0 25 4 t22.5 11.5t16.5 18t6 25.5v290q0 29 -22.5 44t-47.5 15q-27 0 -50 -14.5t-23 -41.5z" />
<glyph unicode="1" horiz-adv-x="318" d="M95 8h-42v424q0 37 24 61q26 25 61 25h42q36 0 61 -25q24 -24 24 -61v-424h-127v424q0 12 -3.5 25t-17.5 13q-15 0 -18.5 -13t-3.5 -25v-424z" />
<glyph unicode="2" horiz-adv-x="411" d="M132 51h166q9 0 20 5q-6 4 -8 7q-12 11 -12 30q0 18 12 30q12 13 30 13q17 0 30 -13q12 -12 12 -30q0 -36 -25 -60q-26 -25 -59 -25h-265v141q1 30 9.5 52.5t21.5 39.5t31 29.5t39 22.5q24 11 48.5 21t44.5 21.5t32 25.5t12 35q0 33 -24.5 50t-56.5 21q-27 5 -52.5 0.5 t-41.5 -15.5q11 -11 11 -26t-7 -23.5t-16.5 -10.5t-19.5 1t-16 12q-12 18 -5.5 39t25.5 36q27 22 63 32t75 7q32 -2 63.5 -11.5t56.5 -26.5t40.5 -40t15.5 -53q1 -42 -14.5 -70t-38.5 -47t-50 -31.5t-50 -25.5q-28 -16 -46.5 -24t-30 -18t-16.5 -26.5t-5 -47.5z" />
<glyph unicode="3" horiz-adv-x="366" d="M39 518h22.5t42 -0.5t42 -0.5h23.5q147 0 151 -119q0 -57 -21 -84q-22 -29 -63 -39q84 -25 92 -110q4 -67 -50 -115q-55 -48 -178 -40q-46 6 -81 22l19 50q29 -14 60 -15q110 0 110 92q-7 92 -124 86v45q110 5 110 92q0 79 -39 89q-1 0 -19 0.5t-39.5 1t-39.5 1t-19 0.5z " />
<glyph unicode="4" horiz-adv-x="420" d="M241 207v311h127v-510h-127v151h-114q-28 0 -52 5t-41 17t-24 31.5t0 48.5l64 257h85l-65 -257q-6 -27 10 -40.5t33 -13.5h10t25 -0.5t33 -0.5h35z" />
<glyph unicode="5" horiz-adv-x="426" d="M32 111h50q0 -21 10.5 -40.5t42.5 -19.5h26q33 0 59 24q26 26 26 61v84q0 35 -26 61q-12 13 -22.5 18.5t-27.5 5.5h-53q-37 0 -61 26q-24 24 -24 59v128h256q35 0 60 -25q25 -26 25 -61q0 -16 -13 -29q-12 -13 -29 -13q-18 0 -31 13q-12 14 -12 29q0 17 12 31q2 2 4 3 t4 4q-9 6 -20 6h-129q-18 0 -31 -13q-11 -14 -11 -31v-42q0 -16 11 -30q12 -11 31 -11h129q35 0 60 -26q25 -25 25 -60v-170q0 -35 -25 -60t-60 -25h-153q-48 0 -75.5 27.5t-27.5 75.5z" />
<glyph unicode="6" horiz-adv-x="418" d="M180 328q27 14 59 16.5t60.5 -9t47.5 -35t19 -62.5v-126q0 -28 -15.5 -48.5t-39.5 -32.5t-51.5 -17.5t-51.5 -5.5q-29 2 -57 8.5t-49.5 20t-35 33t-13.5 44.5v297q0 26 13.5 45.5t35 33.5t49.5 20.5t57 6.5q53 1 98 -19t57 -61q5 -21 -7.5 -31.5t-32.5 -4.5 q0 35 -21.5 50.5t-48.5 15.5t-50 -14.5t-23 -41.5v-83zM323 118v120q0 28 -22 42t-49 14t-49.5 -14t-22.5 -42v-124q0 -26 23 -40.5t50 -14.5q25 0 47.5 15t22.5 44z" />
<glyph unicode="7" horiz-adv-x="416" d="M217 490q-34 -100 -67.5 -198.5t-67.5 -198.5q-5 -11 -3.5 -24t15.5 -13q15 0 20.5 13t9.5 24q37 107 73 212.5t72 212.5h129l-74 -213q-17 -48 -34 -100.5t-33 -100.5q-12 -32 -22 -51t-24.5 -28.5t-36 -13t-55.5 -3.5q-18 0 -35 6.5t-29.5 18.5t-17 27t1.5 33l133 387 h-157l-2 38h184q18 0 22.5 -5t-2.5 -23z" />
<glyph unicode="8" horiz-adv-x="418" d="M366 413v-62q0 -28 -15 -48t-37 -32q22 -12 37 -32t15 -48v-79q0 -28 -15.5 -48.5t-39.5 -32.5t-51.5 -17.5t-51.5 -5.5q-29 2 -57 8.5t-49.5 20t-35 33t-13.5 44.5v76q0 27 15.5 47.5t39.5 33.5q-24 13 -39.5 33.5t-15.5 48.5v58q0 26 13.5 45.5t35 33.5t49.5 20.5 t57 6.5q24 0 51.5 -5t51.5 -17.5t39.5 -32.5t15.5 -49zM180 190v-76q0 -26 23 -40.5t50 -14.5q25 0 47.5 15t22.5 44v69q0 27 -22.5 42.5t-47.5 15.5q-27 0 -50 -15t-23 -40zM180 411v-58q0 -27 23 -41.5t50 -14.5q25 0 47.5 15.5t22.5 43.5v52q0 29 -22.5 44t-47.5 15 q-27 0 -50 -14.5t-23 -41.5z" />
<glyph unicode="9" horiz-adv-x="418" d="M238 198q-26 -15 -58.5 -16.5t-60.5 9.5t-47 35t-19 61v126q0 29 15.5 49t39 32.5t51.5 17.5t52 5q29 0 57 -6.5t49.5 -20.5t35 -33.5t13.5 -45.5v-297q0 -25 -13.5 -44.5t-35 -33t-49.5 -20t-57 -8.5q-53 -1 -98 19.5t-57 62.5q-5 21 6.5 30.5t31.5 4.5q0 -35 22 -50.5 t48 -15.5q28 0 50.5 14.5t22.5 40.5zM94 408v-121q0 -27 22.5 -41t49.5 -14t49 14t22 41v124q0 27 -22.5 41.5t-50.5 14.5q-24 0 -47 -15t-23 -44z" />
<glyph unicode="?" horiz-adv-x="377" d="M219 137h-102v100q0 27 10.5 45.5t25 34t32 30t32 33.5t24.5 43.5t10 60.5q0 33 -25 58t-56 30q-27 4 -52.5 -0.5t-41.5 -16.5q11 -10 11 -25t-7 -23t-16.5 -10.5t-19.5 0.5t-16 13q-12 17 -5 38t25 36q27 22 63 31.5t75 7.5q32 -2 63.5 -14t56.5 -31.5t40 -45.5t15 -56 q0 -39 -10 -64.5t-25.5 -44.5t-34.5 -34.5t-35 -33t-27 -40.5t-11 -58zM187 8h-40q-20 0 -30 13t-10 28t10 27.5t30 12.5h40q20 0 29.5 -12.5t9.5 -27.5t-9.5 -28t-29.5 -13z" />
<glyph unicode="@" horiz-adv-x="614" d="M138 8q-36 0 -61 25q-24 26 -24 60v339q0 34 24 61q24 25 61 25h339q35 0 59 -25q26 -26 26 -61v-212q0 -32 -13.5 -52t-32.5 -26.5t-40 -1t-38 23.5q-21 -21 -57.5 -28t-71 0.5t-60.5 28.5t-26 55v129q0 29 19 49.5t47 30.5t61 10t61 -10t47 -30.5t19 -49.5v-129 q0 -18 6.5 -26t14.5 -7.5t14.5 9t6.5 24.5v212q0 18 -12 31q-13 13 -30 13h-212q-35 0 -60 -26t-25 -60v-254q0 -34 25 -61q26 -24 60 -24h170q0 16 11 30q13 12 31 12q17 0 30 -12q12 -13 12 -30q0 -18 -12 -31q-14 -12 -30 -12h-339zM350 220v129q0 20 -13.5 30.5 t-29 10.5t-29 -10.5t-13.5 -30.5v-129q0 -21 13.5 -31.5t29 -10.5t29 10.5t13.5 31.5z" />
<glyph unicode="A" horiz-adv-x="466" d="M78 1q-17 0 -32.5 8t-28.5 21t-20.5 29.5t-7.5 33.5v147q0 33 19.5 57t47.5 35.5t60.5 12.5t61 -11t47.5 -35t19 -59v-147q0 -11 3 -24t18 -13t18 13t3 24v258q0 36 -12.5 63t-33 41t-44.5 14.5t-48 -15.5q5 -2 8 -7q10 -10 10 -25q0 -17 -10 -28q-11 -10 -27 -10t-27 10 q-10 12 -10.5 28t7.5 28q13 25 42.5 41.5t64.5 22t71.5 2t67 -19t49.5 -43.5t19 -68v-377h-127q-34 0 -60 25q-25 26 -25 60v147q0 26 -20 40t-44 14t-43.5 -13.5t-19.5 -40.5v-104q0 -34 25 -61q26 -24 60 -24q-2 -10 -7 -19t-13.5 -15.5t-23 -11t-37.5 -4.5z" />
<glyph unicode="B" d="M336 1q-22 0 -37 4.5t-24 11t-13.5 15.5t-7.5 19q34 0 61 24q24 25 24 61v275q0 28 -20 41.5t-44 13.5t-43.5 -13.5t-19.5 -41.5v-318q0 -34 -24 -60q-25 -25 -61 -25h-127v654h42q36 0 61 -24q24 -24 24 -60v-485q0 -11 3.5 -24t17.5 -13q15 0 18.5 13t3.5 24v318 q0 36 19 60t47 35t61 10.5t61 -12t47 -35.5t19 -58v-318q0 -17 -7.5 -33.5t-19.5 -29.5t-28 -21t-33 -8z" />
<glyph unicode="C" horiz-adv-x="337" d="M0 411q0 26 13 45.5t35 33.5t50 20.5t57 6.5q37 1 71.5 -8.5t56.5 -30.5q18 -15 25 -36.5t-5 -36.5q-7 -10 -19 -13t-22.5 0t-18 12t-7.5 24q0 16 10 26q-10 7 -22 10t-24 3q-27 0 -50 -14.5t-23 -41.5v-297q0 -26 23 -40.5t50 -14.5t48.5 15.5t21.5 50.5q20 5 32.5 -4.5 t7.5 -30.5q-12 -42 -57 -62.5t-98 -19.5q-29 2 -57 8.5t-50 20t-35 33t-13 44.5v297z" />
<glyph unicode="D" d="M89 1q-17 0 -33 8t-28.5 21t-20 29.5t-7.5 33.5v318q0 34 19 58t47 35.5t61 12t61 -11t47 -35t19 -59.5v-318q0 -11 3.5 -24t18.5 -13q14 0 17.5 13t3.5 24v569h42q36 0 61 -24q24 -23 24 -60v-570h-127q-34 0 -61 25q-24 26 -24 60v318q0 28 -20 41.5t-44 13.5 t-43.5 -13.5t-19.5 -41.5v-275q0 -34 24 -61q27 -24 61 -24q-3 -10 -7.5 -19t-13 -15.5t-23.5 -11t-37 -4.5z" />
<glyph unicode="E" horiz-adv-x="365" d="M127 198v-84q0 -26 23 -40.5t50 -14.5t48.5 15.5t21.5 50.5q20 5 32.5 -4.5t7.5 -30.5q-12 -42 -57 -62.5t-98 -19.5q-29 2 -57 8.5t-50 20t-35 33t-13 44.5v297q0 26 13 45.5t35 33.5t50 20.5t57 6.5q24 0 51.5 -5t51.5 -17.5t39.5 -32.5t15.5 -49v-126q0 -37 -19 -61 t-47.5 -35t-60.5 -9.5t-59 16.5zM270 408q0 29 -22.5 44t-47.5 15q-27 0 -50 -14.5t-23 -41.5v-124q0 -27 22.5 -41t49.5 -14t49 14t22 41v121z" />
<glyph unicode="F" horiz-adv-x="339" d="M85 -136q-36 0 -61 25q-24 24 -24 60v569h42v-569q0 -18 6.5 -26.5t14.5 -8.5t15 8.5t7 26.5v633q0 31 17 50.5t43 29.5t56 10t56 -9t43 -27t17 -45q0 -12 -12 -26q-10 -11 -26 -11t-27 11q-10 12 -10 26q0 17 10 28q5 4 8 5q-23 13 -35.5 -0.5t-12.5 -36.5v-69h92v-38 h-71q-15 0 -18 -12t-3 -24v-412v-83q0 -37 -25 -60q-24 -25 -60 -25h-42z" />
<glyph unicode="G" d="M89 526q22 0 37 -4.5t23.5 -11t13 -16t7.5 -18.5q-35 0 -61 -26q-24 -24 -24 -60v-276q0 -27 19.5 -40.5t43.5 -13.5t44 13.5t20 40.5v318q0 37 24 61q26 25 61 25h42q36 0 61 -25q24 -23 24 -61v-473q0 -31 -15.5 -52t-38.5 -33t-50 -13.5t-50.5 9t-39 33t-15.5 57.5 q0 18 12.5 30.5t30.5 12.5v-43q0 -15 6 -22.5t13 -7.5t13.5 7.5t6.5 22.5v470q0 12 -3.5 24.5t-17.5 12.5q-15 0 -18.5 -12.5t-3.5 -24.5v-318q0 -36 -19 -59t-47 -35t-61 -11.5t-61 12.5t-47 35.5t-19 57.5v318q0 17 7.5 34t20 30.5t28.5 21.5t33 8v2z" />
<glyph unicode="H" d="M424 8h-85v403q0 28 -20 41.5t-44 13.5t-43.5 -13.5t-19.5 -41.5v-318q0 -34 -24 -60q-25 -25 -61 -25h-127v654h42q36 0 61 -24q24 -24 24 -60v-485q0 -11 3.5 -24t17.5 -13q15 0 18.5 13t3.5 24v318q0 36 19 60t47 35t61 10.5t61 -12t47 -35.5t19 -58v-403z" />
<glyph unicode="I" horiz-adv-x="266" d="M42 8h-42v424q0 37 24 61q26 25 61 25h42q36 0 61 -25q24 -23 24 -61v-424h-127v424q0 12 -3.5 25t-17.5 13q-15 0 -18.5 -13t-3.5 -25v-424zM101 559q-23 1 -43.5 9.5t-32.5 19.5q-25 24 -25 61q0 17 13 29q12 13 29 13q18 0 31 -13q12 -13 12 -29q0 -17 -12 -31 q-2 -2 -4 -3t-4 -3q5 -8 16 -11.5t23 -3.5q23 0 38 9.5t22 22.5q13 21 7 46t-27 37q-23 14 -64 5q0 17 9.5 29.5t35.5 12.5t44 -11t29 -29q13 -22 14.5 -50t-9.5 -53t-36.5 -41.5t-65.5 -15.5z" />
<glyph unicode="J" horiz-adv-x="266" d="M42 69q0 -18 -12 -31.5t-30 -13.5v43v365q0 37 24 61q26 25 61 25h42q36 0 61 -25q24 -24 24 -61v-473q0 -31 -15.5 -52t-38.5 -33t-50 -13.5t-50.5 9t-39 33t-15.5 57.5q0 18 12.5 30.5t30.5 12.5v-43q0 -15 6 -22.5t13 -7.5t13.5 7.5t6.5 22.5v470q0 12 -3.5 24.5 t-17.5 12.5q-15 0 -18.5 -12.5t-3.5 -24.5v-361zM101 556q-23 2 -43.5 10.5t-32.5 19.5q-25 24 -25 61q0 17 13 29q12 13 29 13q18 0 31 -13q12 -14 12 -29q0 -17 -12 -31q-2 -2 -4 -3t-4 -3q5 -8 16 -11.5t23 -3.5q23 0 38 9.5t22 21.5q13 22 7 46.5t-27 37.5q-23 14 -64 4 q0 17 9.5 30t35.5 13t44 -11t29 -29q13 -22 14.5 -50t-9.5 -53t-36.5 -42t-65.5 -16z" />
<glyph unicode="K" horiz-adv-x="517" d="M212 305q35 0 64 14.5t49.5 35.5t31 46t9.5 44.5t-15.5 31.5t-44.5 7q-16 -2 -32.5 -13t-30.5 -32t-22.5 -54t-8.5 -80zM315 305h67q36 0 60 -24q24 -27 24 -61v-212h-84v170q0 34 -25 60q-24 25 -60 25h-85v-178q-3 -29 -24 -52q-25 -25 -61 -25h-127v654h42 q36 0 61 -24q24 -24 24 -60v-485q0 -11 3.5 -24t17.5 -13q15 0 18.5 13t3.5 24v212q0 60 15 101t39 66.5t54 37.5t59 12q63 0 87 -26.5t18 -63t-39.5 -72.5t-87.5 -55z" />
<glyph unicode="L" horiz-adv-x="265" d="M42 8h-42v570q0 34 24 60q27 24 61 24h42q36 0 61 -24q24 -24 24 -60v-570h-127v570q0 11 -3.5 24t-17.5 13q-15 0 -18.5 -13t-3.5 -24v-570z" />
<glyph unicode="M" horiz-adv-x="773" d="M424 93q0 -11 3 -24t18 -13t18 13t3 24v318q0 36 19.5 60t47.5 35t60.5 10.5t61 -12t47.5 -35.5t19 -58v-403h-85v403q0 28 -20 41.5t-44 13.5t-43.5 -13.5t-19.5 -41.5v-318q0 -36 -25 -60q-24 -25 -60 -25q-37 0 -61 20.5t-24 64.5v318q0 28 -20 41.5t-44 13.5 t-43.5 -13.5t-19.5 -41.5v-318q0 -34 -24 -60q-25 -25 -61 -25h-127v510h42q36 0 61 -25q24 -24 24 -61v-339q0 -11 3.5 -24t17.5 -13q15 0 18.5 13t3.5 24v318q0 36 19 60t47 35t61 10.5t61 -12t47 -35.5t19 -58v-318z" />
<glyph unicode="N" d="M424 8h-85v403q0 28 -20 41.5t-44 13.5t-43.5 -13.5t-19.5 -41.5v-318q0 -34 -24 -60q-25 -25 -61 -25h-127v510h42q36 0 61 -25q24 -24 24 -61v-339q0 -11 3.5 -24t17.5 -13q15 0 18.5 13t3.5 24v318q0 36 19 60t47 35t61 10.5t61 -12t47 -35.5t19 -58v-403z" />
<glyph unicode="O" horiz-adv-x="365" d="M313 413v-301q0 -28 -15.5 -48.5t-39.5 -32.5t-51.5 -17.5t-51.5 -5.5q-29 2 -57 8.5t-50 20t-35 33t-13 44.5v297q0 26 13 45.5t35 33.5t50 20.5t57 6.5q24 0 51.5 -5t51.5 -17.5t39.5 -32.5t15.5 -49zM127 411v-297q0 -26 23 -40.5t50 -14.5q13 0 25 4t22.5 11.5 t16.5 18t6 25.5v290q0 29 -22.5 44t-47.5 15q-27 0 -50 -14.5t-23 -41.5z" />
<glyph unicode="P" d="M336 1q-22 0 -37 4.5t-24 11t-13.5 15.5t-7.5 19q34 0 61 24q24 25 24 61v275q0 28 -20 41.5t-44 13.5t-43.5 -13.5t-19.5 -41.5v-462q0 -36 -24 -60q-24 -25 -61 -25h-42q-36 0 -61 25q-24 24 -24 60v557h127v-557q0 -12 3.5 -24.5t17.5 -12.5q15 0 18.5 12.5t3.5 24.5 v462q0 36 19 60t47 35t61 10.5t61 -12t47 -35.5t19 -58v-318q0 -17 -7.5 -33.5t-19.5 -29.5t-28 -21t-33 -8z" />
<glyph unicode="Q" d="M297 -51v483q0 12 -3.5 25t-17.5 13q-15 0 -18.5 -13t-3.5 -25v-318q0 -36 -19 -59t-47 -35t-61 -11t-61 12.5t-47 35.5t-19 57v318q0 17 7.5 34t20 30.5t28.5 21.5t33 8q22 0 37 -4.5t23.5 -11t13 -16t7.5 -18.5q-35 0 -61 -26q-24 -24 -24 -60v-276q0 -27 19.5 -40.5 t43.5 -13.5t44 13.5t20 40.5v318q0 37 24 61q26 25 61 25h42q36 0 61 -25q24 -23 24 -61v-568h-42q-36 0 -61 25q-24 24 -24 60z" />
<glyph unicode="R" horiz-adv-x="371" d="M277 518q26 0 44.5 -12.5t24.5 -29.5t-3 -34t-38 -24q-4 22 -18 33t-28 12q-18 2 -32.5 -11t-14.5 -41v-318q0 -34 -24 -60q-25 -25 -61 -25h-42q-34 0 -61 25q-24 26 -24 60v425h127v-425q0 -11 3.5 -24t17.5 -13q15 0 18.5 13t3.5 24v318q0 28 9 48t24 33.5t34.5 19.5 t39.5 6z" />
<glyph unicode="S" horiz-adv-x="384" d="M246 126q0 17 -10 30t-25 23t-32 18.5t-32 16.5q-23 13 -50 25.5t-50 31.5t-38 47t-15 70q0 30 15 53t39.5 39.5t56.5 25.5t65 11q38 2 74 -6.5t63 -30.5q19 -15 26.5 -36t-4.5 -39q-7 -9 -17 -12t-19.5 -1t-16.5 10.5t-7 23.5t11 26q-16 11 -41.5 15.5t-51.5 -0.5 q-32 -4 -57 -21t-25 -50q0 -21 12 -35t32.5 -25.5t44.5 -21.5t49 -21q20 -11 38.5 -23.5t32.5 -30t21.5 -41t7.5 -55.5q0 -27 -11 -51t-33.5 -42.5t-56 -29t-76.5 -12.5q-28 0 -56 4t-51.5 13.5t-40 25t-22.5 36.5t7 31t34 5q0 -18 13 -30.5t31 -21t37.5 -12.5t34.5 -4 q14 0 30.5 4.5t30.5 13t23 22t9 31.5z" />
<glyph unicode="T" horiz-adv-x="265" d="M127 518h85v-38h-64q-14 0 -17.5 -12t-3.5 -24v-351q0 -11 3.5 -24t17.5 -13q15 0 18.5 13t3.5 24v345h42v-345q0 -34 -24 -60q-25 -25 -61 -25h-127v654h42q36 0 61 -24q24 -24 24 -60v-60z" />
<glyph unicode="U" d="M0 518h85v-404q0 -27 19.5 -40.5t43.5 -13.5t44 13.5t20 40.5v318q0 37 24 61q26 25 61 25h42q36 0 61 -25q24 -23 24 -61v-424h-127v424q0 12 -3.5 25t-17.5 13q-15 0 -18.5 -13t-3.5 -25v-318q0 -36 -19 -59t-47 -35t-61 -11t-61 12.5t-47 35.5t-19 57v404z" />
<glyph unicode="V" horiz-adv-x="450" d="M379 475q19 -27 19 -62v-300q0 -28 -15.5 -48t-39.5 -32.5t-51.5 -17.5t-51.5 -5q-29 0 -57 6.5t-50 20t-35 33t-13 44.5v318q0 12 -3.5 25t-17.5 13q-15 0 -18.5 -13t-3.5 -25v-424h-42v424q0 37 24 61q26 25 61 25h42q36 0 61 -25q24 -24 24 -61v-318q0 -25 23 -40 t50 -15q25 0 47.5 15.5t22.5 44.5v293q0 58 -60 63h-9v43h162v-43h-69z" />
<glyph unicode="W" horiz-adv-x="757" d="M323 189h43v-75q0 -27 19.5 -40.5t43.5 -13.5t44 13.5t20 40.5v318q0 37 24 61q26 25 61 25h42q36 0 61 -25q24 -23 24 -61v-424h-127v424q0 12 -3.5 25t-18.5 13q-14 0 -17.5 -13t-3.5 -25v-318q0 -43 -22.5 -68.5t-54 -33t-64.5 2t-52 37.5q-25 -28 -68.5 -37.5 t-85.5 -1.5t-72.5 33.5t-30.5 67.5v318q0 12 -3.5 25t-17.5 13q-15 0 -18.5 -13t-3.5 -25v-424h-42v424q0 37 24 61q26 25 61 25h42q36 0 61 -25q24 -24 24 -61v-318q0 -27 17.5 -40.5t38 -13.5t38 13.5t17.5 40.5v75z" />
<glyph unicode="X" horiz-adv-x="398" d="M42 8h-42q16 46 32.5 91t32.5 91q10 28 14.5 42.5t3.5 26t-7 26.5t-16 45q-14 47 -29.5 94t-30.5 94h42q17 -52 33.5 -103t32.5 -103q12 30 22.5 60t21.5 60q13 38 34 62t57 24h42q18 0 35 -6t29 -18t17 -28t-1 -34q-12 -29 -22 -58.5t-21 -58.5q-12 -35 -18 -52t-6 -31 t6.5 -31.5t17.5 -52.5l45 -140h-43q-13 42 -26 83t-27 83q-14 -42 -29 -83t-30 -83h-127q38 108 76 213t75 211q6 12 5 25t-16 13t-20.5 -13t-10.5 -25q-37 -106 -75 -211t-77 -213z" />
<glyph unicode="Y" d="M0 518h85v-404q0 -27 19.5 -40.5t43.5 -13.5t44 13.5t20 40.5v318q0 37 24 61q26 25 61 25h42q36 0 61 -25q24 -23 24 -61v-473q0 -31 -15.5 -52t-38.5 -33t-50 -13.5t-50.5 9t-39 33t-15.5 57.5q0 18 12.5 30.5t30.5 12.5v-43q0 -15 6 -22.5t13 -7.5t13.5 7.5t6.5 22.5 v470q0 12 -3.5 24.5t-17.5 12.5q-15 0 -18.5 -12.5t-3.5 -24.5v-318q0 -36 -19 -59t-47 -35t-61 -11.5t-61 12.5t-47 35.5t-19 57.5v406z" />
<glyph unicode="Z" horiz-adv-x="427" d="M202 490q-39 -100 -78 -198.5t-78 -198.5q-3 -5 -4.5 -12t-0.5 -12t4.5 -9t10.5 -4q15 0 21 13t11 24q42 107 84 212.5t83 212.5h129l-85 -213h1q-19 -48 -39 -100.5t-41 -100.5q-6 -16 -9 -27t0 -17.5t14 -9.5t34 -3h125v-39h-306q-18 0 -34 6.5t-28 18.5t-16 27t2 33 l153 387h-157v38h184q18 0 22.5 -5t-3.5 -23h1z" />
<glyph unicode="a" horiz-adv-x="466" d="M78 1q-17 0 -32.5 8t-28.5 21t-20.5 29.5t-7.5 33.5v147q0 33 19.5 57t47.5 35.5t60.5 12.5t61 -11t47.5 -35t19 -59v-147q0 -11 3 -24t18 -13t18 13t3 24v258q0 36 -12.5 63t-33 41t-44.5 14.5t-48 -15.5q5 -2 8 -7q10 -10 10 -25q0 -17 -10 -28q-11 -10 -27 -10t-27 10 q-10 12 -10.5 28t7.5 28q13 25 42.5 41.5t64.5 22t71.5 2t67 -19t49.5 -43.5t19 -68v-377h-127q-34 0 -60 25q-25 26 -25 60v147q0 26 -20 40t-44 14t-43.5 -13.5t-19.5 -40.5v-104q0 -34 25 -61q26 -24 60 -24q-2 -10 -7 -19t-13.5 -15.5t-23 -11t-37.5 -4.5z" />
<glyph unicode="b" d="M336 1q-22 0 -37 4.5t-24 11t-13.5 15.5t-7.5 19q34 0 61 24q24 25 24 61v275q0 28 -20 41.5t-44 13.5t-43.5 -13.5t-19.5 -41.5v-318q0 -34 -24 -60q-25 -25 -61 -25h-127v654h42q36 0 61 -24q24 -24 24 -60v-485q0 -11 3.5 -24t17.5 -13q15 0 18.5 13t3.5 24v318 q0 36 19 60t47 35t61 10.5t61 -12t47 -35.5t19 -58v-318q0 -17 -7.5 -33.5t-19.5 -29.5t-28 -21t-33 -8z" />
<glyph unicode="c" horiz-adv-x="337" d="M0 411q0 26 13 45.5t35 33.5t50 20.5t57 6.5q37 1 71.5 -8.5t56.5 -30.5q18 -15 25 -36.5t-5 -36.5q-7 -10 -19 -13t-22.5 0t-18 12t-7.5 24q0 16 10 26q-10 7 -22 10t-24 3q-27 0 -50 -14.5t-23 -41.5v-297q0 -26 23 -40.5t50 -14.5t48.5 15.5t21.5 50.5q20 5 32.5 -4.5 t7.5 -30.5q-12 -42 -57 -62.5t-98 -19.5q-29 2 -57 8.5t-50 20t-35 33t-13 44.5v297z" />
<glyph unicode="d" d="M89 1q-17 0 -33 8t-28.5 21t-20 29.5t-7.5 33.5v318q0 34 19 58t47 35.5t61 12t61 -11t47 -35t19 -59.5v-318q0 -11 3.5 -24t18.5 -13q14 0 17.5 13t3.5 24v569h42q36 0 61 -24q24 -23 24 -60v-570h-127q-34 0 -61 25q-24 26 -24 60v318q0 28 -20 41.5t-44 13.5 t-43.5 -13.5t-19.5 -41.5v-275q0 -34 24 -61q27 -24 61 -24q-3 -10 -7.5 -19t-13 -15.5t-23.5 -11t-37 -4.5z" />
<glyph unicode="e" horiz-adv-x="365" d="M127 198v-84q0 -26 23 -40.5t50 -14.5t48.5 15.5t21.5 50.5q20 5 32.5 -4.5t7.5 -30.5q-12 -42 -57 -62.5t-98 -19.5q-29 2 -57 8.5t-50 20t-35 33t-13 44.5v297q0 26 13 45.5t35 33.5t50 20.5t57 6.5q24 0 51.5 -5t51.5 -17.5t39.5 -32.5t15.5 -49v-126q0 -37 -19 -61 t-47.5 -35t-60.5 -9.5t-59 16.5zM270 408q0 29 -22.5 44t-47.5 15q-27 0 -50 -14.5t-23 -41.5v-124q0 -27 22.5 -41t49.5 -14t49 14t22 41v121z" />
<glyph unicode="f" horiz-adv-x="339" d="M85 -136q-36 0 -61 25q-24 24 -24 60v569h42v-569q0 -18 6.5 -26.5t14.5 -8.5t15 8.5t7 26.5v633q0 31 17 50.5t43 29.5t56 10t56 -9t43 -27t17 -45q0 -12 -12 -26q-10 -11 -26 -11t-27 11q-10 12 -10 26q0 17 10 28q5 4 8 5q-23 13 -35.5 -0.5t-12.5 -36.5v-69h92v-38 h-71q-15 0 -18 -12t-3 -24v-412v-83q0 -37 -25 -60q-24 -25 -60 -25h-42z" />
<glyph unicode="g" d="M89 526q22 0 37 -4.5t23.5 -11t13 -16t7.5 -18.5q-35 0 -61 -26q-24 -24 -24 -60v-276q0 -27 19.5 -40.5t43.5 -13.5t44 13.5t20 40.5v318q0 37 24 61q26 25 61 25h42q36 0 61 -25q24 -23 24 -61v-473q0 -31 -15.5 -52t-38.5 -33t-50 -13.5t-50.5 9t-39 33t-15.5 57.5 q0 18 12.5 30.5t30.5 12.5v-43q0 -15 6 -22.5t13 -7.5t13.5 7.5t6.5 22.5v470q0 12 -3.5 24.5t-17.5 12.5q-15 0 -18.5 -12.5t-3.5 -24.5v-318q0 -36 -19 -59t-47 -35t-61 -11.5t-61 12.5t-47 35.5t-19 57.5v318q0 17 7.5 34t20 30.5t28.5 21.5t33 8v2z" />
<glyph unicode="h" d="M424 8h-85v403q0 28 -20 41.5t-44 13.5t-43.5 -13.5t-19.5 -41.5v-318q0 -34 -24 -60q-25 -25 -61 -25h-127v654h42q36 0 61 -24q24 -24 24 -60v-485q0 -11 3.5 -24t17.5 -13q15 0 18.5 13t3.5 24v318q0 36 19 60t47 35t61 10.5t61 -12t47 -35.5t19 -58v-403z" />
<glyph unicode="i" horiz-adv-x="266" d="M42 8h-42v424q0 37 24 61q26 25 61 25h42q36 0 61 -25q24 -23 24 -61v-424h-127v424q0 12 -3.5 25t-17.5 13q-15 0 -18.5 -13t-3.5 -25v-424zM101 559q-23 1 -43.5 9.5t-32.5 19.5q-25 24 -25 61q0 17 13 29q12 13 29 13q18 0 31 -13q12 -13 12 -29q0 -17 -12 -31 q-2 -2 -4 -3t-4 -3q5 -8 16 -11.5t23 -3.5q23 0 38 9.5t22 22.5q13 21 7 46t-27 37q-23 14 -64 5q0 17 9.5 29.5t35.5 12.5t44 -11t29 -29q13 -22 14.5 -50t-9.5 -53t-36.5 -41.5t-65.5 -15.5z" />
<glyph unicode="j" horiz-adv-x="266" d="M42 69q0 -18 -12 -31.5t-30 -13.5v43v365q0 37 24 61q26 25 61 25h42q36 0 61 -25q24 -24 24 -61v-473q0 -31 -15.5 -52t-38.5 -33t-50 -13.5t-50.5 9t-39 33t-15.5 57.5q0 18 12.5 30.5t30.5 12.5v-43q0 -15 6 -22.5t13 -7.5t13.5 7.5t6.5 22.5v470q0 12 -3.5 24.5 t-17.5 12.5q-15 0 -18.5 -12.5t-3.5 -24.5v-361zM101 556q-23 2 -43.5 10.5t-32.5 19.5q-25 24 -25 61q0 17 13 29q12 13 29 13q18 0 31 -13q12 -14 12 -29q0 -17 -12 -31q-2 -2 -4 -3t-4 -3q5 -8 16 -11.5t23 -3.5q23 0 38 9.5t22 21.5q13 22 7 46.5t-27 37.5q-23 14 -64 4 q0 17 9.5 30t35.5 13t44 -11t29 -29q13 -22 14.5 -50t-9.5 -53t-36.5 -42t-65.5 -16z" />
<glyph unicode="k" horiz-adv-x="517" d="M212 305q35 0 64 14.5t49.5 35.5t31 46t9.5 44.5t-15.5 31.5t-44.5 7q-16 -2 -32.5 -13t-30.5 -32t-22.5 -54t-8.5 -80zM315 305h67q36 0 60 -24q24 -27 24 -61v-212h-84v170q0 34 -25 60q-24 25 -60 25h-85v-178q-3 -29 -24 -52q-25 -25 -61 -25h-127v654h42 q36 0 61 -24q24 -24 24 -60v-485q0 -11 3.5 -24t17.5 -13q15 0 18.5 13t3.5 24v212q0 60 15 101t39 66.5t54 37.5t59 12q63 0 87 -26.5t18 -63t-39.5 -72.5t-87.5 -55z" />
<glyph unicode="l" horiz-adv-x="265" d="M42 8h-42v570q0 34 24 60q27 24 61 24h42q36 0 61 -24q24 -24 24 -60v-570h-127v570q0 11 -3.5 24t-17.5 13q-15 0 -18.5 -13t-3.5 -24v-570z" />
<glyph unicode="m" horiz-adv-x="773" d="M424 93q0 -11 3 -24t18 -13t18 13t3 24v318q0 36 19.5 60t47.5 35t60.5 10.5t61 -12t47.5 -35.5t19 -58v-403h-85v403q0 28 -20 41.5t-44 13.5t-43.5 -13.5t-19.5 -41.5v-318q0 -36 -25 -60q-24 -25 -60 -25q-37 0 -61 20.5t-24 64.5v318q0 28 -20 41.5t-44 13.5 t-43.5 -13.5t-19.5 -41.5v-318q0 -34 -24 -60q-25 -25 -61 -25h-127v510h42q36 0 61 -25q24 -24 24 -61v-339q0 -11 3.5 -24t17.5 -13q15 0 18.5 13t3.5 24v318q0 36 19 60t47 35t61 10.5t61 -12t47 -35.5t19 -58v-318z" />
<glyph unicode="n" d="M424 8h-85v403q0 28 -20 41.5t-44 13.5t-43.5 -13.5t-19.5 -41.5v-318q0 -34 -24 -60q-25 -25 -61 -25h-127v510h42q36 0 61 -25q24 -24 24 -61v-339q0 -11 3.5 -24t17.5 -13q15 0 18.5 13t3.5 24v318q0 36 19 60t47 35t61 10.5t61 -12t47 -35.5t19 -58v-403z" />
<glyph unicode="o" horiz-adv-x="365" d="M313 413v-301q0 -28 -15.5 -48.5t-39.5 -32.5t-51.5 -17.5t-51.5 -5.5q-29 2 -57 8.5t-50 20t-35 33t-13 44.5v297q0 26 13 45.5t35 33.5t50 20.5t57 6.5q24 0 51.5 -5t51.5 -17.5t39.5 -32.5t15.5 -49zM127 411v-297q0 -26 23 -40.5t50 -14.5q13 0 25 4t22.5 11.5 t16.5 18t6 25.5v290q0 29 -22.5 44t-47.5 15q-27 0 -50 -14.5t-23 -41.5z" />
<glyph unicode="p" d="M336 1q-22 0 -37 4.5t-24 11t-13.5 15.5t-7.5 19q34 0 61 24q24 25 24 61v275q0 28 -20 41.5t-44 13.5t-43.5 -13.5t-19.5 -41.5v-462q0 -36 -24 -60q-24 -25 -61 -25h-42q-36 0 -61 25q-24 24 -24 60v557h127v-557q0 -12 3.5 -24.5t17.5 -12.5q15 0 18.5 12.5t3.5 24.5 v462q0 36 19 60t47 35t61 10.5t61 -12t47 -35.5t19 -58v-318q0 -17 -7.5 -33.5t-19.5 -29.5t-28 -21t-33 -8z" />
<glyph unicode="q" d="M297 -51v483q0 12 -3.5 25t-17.5 13q-15 0 -18.5 -13t-3.5 -25v-318q0 -36 -19 -59t-47 -35t-61 -11t-61 12.5t-47 35.5t-19 57v318q0 17 7.5 34t20 30.5t28.5 21.5t33 8q22 0 37 -4.5t23.5 -11t13 -16t7.5 -18.5q-35 0 -61 -26q-24 -24 -24 -60v-276q0 -27 19.5 -40.5 t43.5 -13.5t44 13.5t20 40.5v318q0 37 24 61q26 25 61 25h42q36 0 61 -25q24 -23 24 -61v-568h-42q-36 0 -61 25q-24 24 -24 60z" />
<glyph unicode="r" horiz-adv-x="371" d="M277 518q26 0 44.5 -12.5t24.5 -29.5t-3 -34t-38 -24q-4 22 -18 33t-28 12q-18 2 -32.5 -11t-14.5 -41v-318q0 -34 -24 -60q-25 -25 -61 -25h-42q-34 0 -61 25q-24 26 -24 60v425h127v-425q0 -11 3.5 -24t17.5 -13q15 0 18.5 13t3.5 24v318q0 28 9 48t24 33.5t34.5 19.5 t39.5 6z" />
<glyph unicode="s" horiz-adv-x="384" d="M246 126q0 17 -10 30t-25 23t-32 18.5t-32 16.5q-23 13 -50 25.5t-50 31.5t-38 47t-15 70q0 30 15 53t39.5 39.5t56.5 25.5t65 11q38 2 74 -6.5t63 -30.5q19 -15 26.5 -36t-4.5 -39q-7 -9 -17 -12t-19.5 -1t-16.5 10.5t-7 23.5t11 26q-16 11 -41.5 15.5t-51.5 -0.5 q-32 -4 -57 -21t-25 -50q0 -21 12 -35t32.5 -25.5t44.5 -21.5t49 -21q20 -11 38.5 -23.5t32.5 -30t21.5 -41t7.5 -55.5q0 -27 -11 -51t-33.5 -42.5t-56 -29t-76.5 -12.5q-28 0 -56 4t-51.5 13.5t-40 25t-22.5 36.5t7 31t34 5q0 -18 13 -30.5t31 -21t37.5 -12.5t34.5 -4 q14 0 30.5 4.5t30.5 13t23 22t9 31.5z" />
<glyph unicode="t" horiz-adv-x="265" d="M127 518h85v-38h-64q-14 0 -17.5 -12t-3.5 -24v-351q0 -11 3.5 -24t17.5 -13q15 0 18.5 13t3.5 24v345h42v-345q0 -34 -24 -60q-25 -25 -61 -25h-127v654h42q36 0 61 -24q24 -24 24 -60v-60z" />
<glyph unicode="u" d="M0 518h85v-404q0 -27 19.5 -40.5t43.5 -13.5t44 13.5t20 40.5v318q0 37 24 61q26 25 61 25h42q36 0 61 -25q24 -23 24 -61v-424h-127v424q0 12 -3.5 25t-17.5 13q-15 0 -18.5 -13t-3.5 -25v-318q0 -36 -19 -59t-47 -35t-61 -11t-61 12.5t-47 35.5t-19 57v404z" />
<glyph unicode="v" horiz-adv-x="450" d="M379 475q19 -27 19 -62v-300q0 -28 -15.5 -48t-39.5 -32.5t-51.5 -17.5t-51.5 -5q-29 0 -57 6.5t-50 20t-35 33t-13 44.5v318q0 12 -3.5 25t-17.5 13q-15 0 -18.5 -13t-3.5 -25v-424h-42v424q0 37 24 61q26 25 61 25h42q36 0 61 -25q24 -24 24 -61v-318q0 -25 23 -40 t50 -15q25 0 47.5 15.5t22.5 44.5v293q0 58 -60 63h-9v43h162v-43h-69z" />
<glyph unicode="w" horiz-adv-x="757" d="M323 189h43v-75q0 -27 19.5 -40.5t43.5 -13.5t44 13.5t20 40.5v318q0 37 24 61q26 25 61 25h42q36 0 61 -25q24 -23 24 -61v-424h-127v424q0 12 -3.5 25t-18.5 13q-14 0 -17.5 -13t-3.5 -25v-318q0 -43 -22.5 -68.5t-54 -33t-64.5 2t-52 37.5q-25 -28 -68.5 -37.5 t-85.5 -1.5t-72.5 33.5t-30.5 67.5v318q0 12 -3.5 25t-17.5 13q-15 0 -18.5 -13t-3.5 -25v-424h-42v424q0 37 24 61q26 25 61 25h42q36 0 61 -25q24 -24 24 -61v-318q0 -27 17.5 -40.5t38 -13.5t38 13.5t17.5 40.5v75z" />
<glyph unicode="x" horiz-adv-x="398" d="M42 8h-42q16 46 32.5 91t32.5 91q10 28 14.5 42.5t3.5 26t-7 26.5t-16 45q-14 47 -29.5 94t-30.5 94h42q17 -52 33.5 -103t32.5 -103q12 30 22.5 60t21.5 60q13 38 34 62t57 24h42q18 0 35 -6t29 -18t17 -28t-1 -34q-12 -29 -22 -58.5t-21 -58.5q-12 -35 -18 -52t-6 -31 t6.5 -31.5t17.5 -52.5l45 -140h-43q-13 42 -26 83t-27 83q-14 -42 -29 -83t-30 -83h-127q38 108 76 213t75 211q6 12 5 25t-16 13t-20.5 -13t-10.5 -25q-37 -106 -75 -211t-77 -213z" />
<glyph unicode="y" d="M0 518h85v-404q0 -27 19.5 -40.5t43.5 -13.5t44 13.5t20 40.5v318q0 37 24 61q26 25 61 25h42q36 0 61 -25q24 -23 24 -61v-473q0 -31 -15.5 -52t-38.5 -33t-50 -13.5t-50.5 9t-39 33t-15.5 57.5q0 18 12.5 30.5t30.5 12.5v-43q0 -15 6 -22.5t13 -7.5t13.5 7.5t6.5 22.5 v470q0 12 -3.5 24.5t-17.5 12.5q-15 0 -18.5 -12.5t-3.5 -24.5v-318q0 -36 -19 -59t-47 -35t-61 -11.5t-61 12.5t-47 35.5t-19 57.5v406z" />
<glyph unicode="z" horiz-adv-x="427" d="M202 490q-39 -100 -78 -198.5t-78 -198.5q-3 -5 -4.5 -12t-0.5 -12t4.5 -9t10.5 -4q15 0 21 13t11 24q42 107 84 212.5t83 212.5h129l-85 -213h1q-19 -48 -39 -100.5t-41 -100.5q-6 -16 -9 -27t0 -17.5t14 -9.5t34 -3h125v-39h-306q-18 0 -34 6.5t-28 18.5t-16 27t2 33 l153 387h-157v38h184q18 0 22.5 -5t-3.5 -23h1z" />
<glyph unicode="&#xad;" horiz-adv-x="328" d="M58 321l212 9v-85l-212 -9v85z" />
<glyph unicode="&#x2000;" horiz-adv-x="379" />
<glyph unicode="&#x2001;" horiz-adv-x="759" />
<glyph unicode="&#x2002;" horiz-adv-x="379" />
<glyph unicode="&#x2003;" horiz-adv-x="759" />
<glyph unicode="&#x2004;" horiz-adv-x="253" />
<glyph unicode="&#x2005;" horiz-adv-x="189" />
<glyph unicode="&#x2006;" horiz-adv-x="126" />
<glyph unicode="&#x2007;" horiz-adv-x="126" />
<glyph unicode="&#x2008;" horiz-adv-x="94" />
<glyph unicode="&#x2009;" horiz-adv-x="151" />
<glyph unicode="&#x200a;" horiz-adv-x="42" />
<glyph unicode="&#x2010;" horiz-adv-x="328" d="M58 321l212 9v-85l-212 -9v85z" />
<glyph unicode="&#x2011;" horiz-adv-x="328" d="M58 321l212 9v-85l-212 -9v85z" />
<glyph unicode="&#x2012;" horiz-adv-x="328" d="M58 321l212 9v-85l-212 -9v85z" />
<glyph unicode="&#x2013;" horiz-adv-x="616" d="M58 321l500 9v-85l-500 -9v85z" />
<glyph unicode="&#x2014;" horiz-adv-x="1116" d="M58 321l1000 9v-85l-1000 -9v85z" />
<glyph unicode="&#x202f;" horiz-adv-x="151" />
<glyph unicode="&#x205f;" horiz-adv-x="189" />
<glyph unicode="&#x25fc;" horiz-adv-x="519" d="M0 519h519v-519h-519v519z" />
</font>
</defs>
</svg>
