<?xml version="1.0" standalone="no"?>
<!DOCTYPE svg PUBLIC "-//W3C//DTD SVG 1.1//EN" "http://www.w3.org/Graphics/SVG/1.1/DTD/svg11.dtd" >
<svg xmlns="http://www.w3.org/2000/svg" xmlns:xlink="http://www.w3.org/1999/xlink" version="1.1">
<metadata></metadata>
<defs>
<font id="dingizrpixlmedium" horiz-adv-x="599" >
<font-face units-per-em="1024" ascent="768" descent="-256" />
<missing-glyph horiz-adv-x="332" />
<glyph horiz-adv-x="0" />
<glyph horiz-adv-x="341" />
<glyph unicode=" "  horiz-adv-x="332" />
<glyph unicode="&#x09;" horiz-adv-x="332" />
<glyph unicode="&#xa0;" horiz-adv-x="332" />
<glyph unicode="!" horiz-adv-x="266" d="M133 266h-66v67v66v67v66v67v67v66h66h67v-66v-67v-67v-66v-67v-66h-67v-67zM200 0h-67h-66v67v66h66h67v-66v-67z" />
<glyph unicode="&#x22;" horiz-adv-x="332" d="M266 532h-66v67v67v66h66v-66v-67v-67zM133 532h-66v67v67v66v67h66v-67v-66v-67v-67z" />
<glyph unicode="#" horiz-adv-x="732" d="M200 0h-67v67v66v67h-66v66h66v67h67v66v67h-67h-66v66h66h67v67v67h66v66h67v-66v-67h-67v-67h67h66h67v67v67v66h66v-66v-67v-67h67h67v-66h-67h-67v-67h-66v-66h66v-67h67v-66h-67h-66v-67v-66v-67h-67h-66v67h66v66v67h-66h-67v-67h-66v-66v-67zM266 266h67h66v67v66 v67h-66h-67v-67v-66v-67z" />
<glyph unicode="$" d="M333 -133h-67v66v67h-66h-67v67h-66v66v67h66v-67h67v-66h66v66v67v66v67h-66v66h-67v67h-66v66v67v67h66v66h67h66v67h67v-67h66h67v-66v-67h-67v67h-66v-67v-67v-66v-67h66v-66h67v-67h66v-66v-67v-66h-66v-67h-67h-66v-67v-66zM333 67h66v66h67v67h-67v66h-66v-66v-67 v-66zM200 466h66v66v67v67h-66v-67h-67v-67h67v-66z" />
<glyph unicode="%" horiz-adv-x="931" d="M266 0h-66v67v66h66v67h67v-67v-66h-67v-67zM799 0h-67h-66h-67h-67v67h-66v66v67v66h66v67h67h67h66h67v-67v-66h66v-67h-66v-66v-67zM599 67h67h66v66v67v66h-66h-67v-66h-67v-67h67v-66zM399 200h-66v66v67h66v66h67v-66v-67h-67v-66zM532 399h-66v67v66h66v67h67v-67 v-66h-67v-67zM200 466h66h67v-67h-67h-66h-67v67h67zM399 466h-66v66v67v67h66v-67v-67v-66zM133 532v-66h-66v66v67v67h66v-67v-67zM666 599h-67v67v66h67v-66v-67zM333 732v-66h-67h-66h-67v66h67h66h67z" />
<glyph unicode="&#x26;" horiz-adv-x="665" d="M599 0h-67v67h-66v-67h-67h-66h-67h-66h-67v67h-66v66v67v66v67v66h66v67v66v67v67v66h67h66v67h67h66v-67h67v-66v-67h-67v67h-66h-67h-66v-67v-67h66v-66h67v-67h66v-66v-67h67v-66h66v66h67v-66v-67v-66v-67zM266 67h67h66v66v67h-66v66v67h-67v66h-66v-66h-67v-67 v-66v-67h67v-66h66z" />
<glyph unicode="'" horiz-adv-x="199" d="M133 532h-66v67v67v66v67h66v-67v-66v-67v-67z" />
<glyph unicode="(" horiz-adv-x="399" d="M333 -133h-67h-66v66v67h-67v67v66h-66v67v66v67v66v67v66h66v67v67v66h67v67h66h67v-67h-67v-66h-66v-67v-67v-66h-67v-67v-66v-67v-66h67v-67v-66h66v-67v-67h67v-66z" />
<glyph unicode=")" horiz-adv-x="332" d="M133 -133h-66v66v67h66v-67v-66zM200 0h-67v67v66v67h67v66v67v66v67h-67v66v67v67h-66v66v67h66v-67h67v-66v-67h66v-67v-66v-67v-66v-67v-66v-67h-66v-66v-67z" />
<glyph unicode="*" horiz-adv-x="465" d="M333 399h-67v67h-66h-67v66v67h-66v67h66h67v66v67h66v-67v-66h67h66v-67h-66v-67v-66v-67z" />
<glyph unicode="+" d="M333 67h-67v66v67v66h-66h-67h-66v67h66h67h66v66v67v66h67v-66v-67v-66h66h67h66v-67h-66h-67h-66v-66v-67v-66z" />
<glyph unicode="," horiz-adv-x="266" d="M133 -67h-66v67v67v66h66h67v-66v-67h-67v-67z" />
<glyph unicode="-" horiz-adv-x="465" d="M399 266h-66h-67h-66h-67h-66v67v66h66h67h66h67h66v-66v-67z" />
<glyph unicode="." horiz-adv-x="266" d="M200 0h-67h-66v67v66h66h67v-66v-67z" />
<glyph unicode="/" horiz-adv-x="465" d="M133 0h-66v67v66h66v-66v-67zM200 133h-67v67v66v67h67v66v67h66v-67v-66v-67h-66v-66v-67zM333 466h-67v66v67v67h67v66h66v-66v-67h-66v-67v-66z" />
<glyph unicode="0" horiz-adv-x="732" d="M466 0h-67h-66h-67h-66v67h-67v66h-66v67v66v67v66v67v66v67h66v67h67v66h66h67h66h67v-66h66v-67h67v-67v-66v-67h67v-66h-67v-67v-66v-67h-67v-66h-66v-67zM266 67h67h66v66h67v67h66v66v67v66v67v66h-66v67h-67v67h-66h-67v-67h-66v-67h-67v-66v-67v-66v-67v-66h67 v-67h66v-66zM370 271h-66v67v67h66v-67v-67z" />
<glyph unicode="1" horiz-adv-x="399" d="M333 0h-67h-66v67v66v67v66v67v66v67v66h-67h-66v67h66v67h67v66h66h67v-66v-67v-67v-66v-67v-66v-67v-66v-67v-66v-67z" />
<glyph unicode="2" d="M133 532h-66v67v67h66v66h67h66h67h66v-66h67v-67v-67v-66v-67h-67v-66v-67h-66v-66h-67v-67h-66v-66h66h67h66h67h66v-67h-66h-67h-66h-67h-66h-67h-66v67v66h66v67h67v66h66v67h67v66h66v67v66v67h-66v67h-67h-66v-67h-67v-67z" />
<glyph unicode="3" d="M266 67h67h66v-67h-66h-67h-66h-67v67h-66v66v67h66v-67h67v-66h66zM466 67h-67v66v67v66v67h67v-67h66v-66v-67h-66v-66zM399 399v-66h-66h-67h-66v66h66h67v67h66v66v67h-66v67h-67h-66v-67h-67h-66v67h66v66h67h66h67h66v-66h67v-67v-67v-66v-67h-67z" />
<glyph unicode="4" d="M466 0h-67v67v66h-66h-67h-66h-67h-66v67v66v67h66v66h67v67v66h66v67h67v67h66v66h67v-66v-67v-67v-66v-67v-66v-67h66v-66v-67h-66v-66v-67zM266 266h67h66v67v66v67v66h-66v-66h-67v-67v-66h-66v-67h66z" />
<glyph unicode="5" d="M466 0h-67h-66h-67h-66h-67v67h-66v66v67h66v-67h67v-66h66h67h66v66h67v67v66v67h66v-67v-66v-67v-66h-66v-67zM466 399v-66h-67v66h67zM200 333h-67h-66v66v67v66v67h66v67v66h67h66h67h66h67v-66h-67h-66h-67h-66v-67v-67v-66h66h67h66v-67h-66h-67h-66v-66z" />
<glyph unicode="6" d="M466 0h-67h-66h-67h-66h-67v67h-66v66v67v66v67v66h66v67v66h67v67h66v67v66h67h66v-66h-66v-67v-67h-67v-66h67h66v-67h67v-66h-67h-66v66h-67h-66v-66h-67v-67v-66v-67h67v-66h66h67h66v66h67v67v66v67h66v-67v-66v-67v-66h-66v-67z" />
<glyph unicode="7" d="M200 0h-67h-66v67h66v66v67h67v66v67h66v66h67v67v66h66v67v67h-66h-67h-66h-67h-66v66h66h67h66h67h66h67h66v-66v-67h-66v-67v-66h-67v-67v-66h-66v-67h-67v-66v-67h-66v-66v-67z" />
<glyph unicode="8" d="M466 0h-67h-66h-67h-66h-67v67h-66v66v67v66v67h66v66v67h-66v66v67v67h66v66h67h66h67h66h67v-66v-67h66v-67v-66h-66v-67v-66h66v-67v-66v-67v-66h-66v-67zM266 67h67h66v66h67v67v66h-67v67h-66h-67h-66v-67h-67v-66v-67h67v-66h66zM266 399h67v67h66v66v67v67h-66 h-67h-66v-67v-67v-66h66v-67z" />
<glyph unicode="9" d="M266 0h-66v67h66v-67zM333 67h-67v66v67h67v66h-67h-66h-67v67h-66v66v67v66v67v67h66v66h67h66h67h66h67v-66h66v-67v-67v-66v-67v-66h-66v-67h-67v-66v-67h-66v-66zM200 333h66h67v66h66h67v67v66v67h-67v67h-66h-67h-66v-67h-67v-67v-66v-67h67v-66z" />
<glyph unicode=":" horiz-adv-x="266" d="M133 399h-66v67v66h66h67v-66h-67v-67zM200 0h-67h-66v67v66h66h67v-66v-67z" />
<glyph unicode=";" horiz-adv-x="266" d="M133 -67h-66v67v67v66h66h67v-66v-67h-67v-67zM200 399h-67h-66v67v66h66h67v-66v-67z" />
<glyph unicode="&#x3c;" horiz-adv-x="532" d="M466 67h-67v66h67v-66zM399 200v-67h-66h-67v67h67h66zM266 266v-66h-66h-67v66h-66v67h66v66h67h66v67h67h66v66h67v-66v-67h-67h-66v-66h-67h-66v-67h66z" />
<glyph unicode="=" d="M399 266h67h66v-66h-66h-67h-66h-67h-66h-67h-66v66h66h67h66h67h66zM399 466h67h66v-67h-66h-67h-66h-67h-66h-67h-66v67h66h67h66h67h66z" />
<glyph unicode="&#x3e;" horiz-adv-x="532" d="M133 67h-66v66h66v-66zM133 200h67h66v-67h-66h-67v67zM333 200h-67v66h67v67h-67h-66v66h-67h-66v67v66h66v-66h67h66v-67h67h66v-66h67v-67h-67v-66h-66z" />
<glyph unicode="?" horiz-adv-x="532" d="M133 599h-66v67v66h66h67v67h66h67v-67h66h67v-66v-67v-67v-66h-67v-67h-66v-66v-67h-67h-66v67h66v66v67h67v66h66v67v67h-66h-67h-66h-67v-67zM333 0h-67h-66v67v66h66h67v-66v-67z" />
<glyph unicode="@" horiz-adv-x="931" d="M466 0h66h67v-67h-67h-66h-67h-66h-67v67h67h66h67zM266 67v-67h-66v67h66zM200 133v-66h-67v66h-66v67v66v67v66v67v66h66v67h67v-67v-66h-67v-67v-66v-67v-66h67v-67zM865 133h-66h-67h-66h-67h-67h-66h-67h-66v67h66h67h66h67v66v67v66h-67v67h67v66h67v-66v-67v-66 v-67v-66h66h67v66v67v66v67h-67v66v67h67v-67h66v-66v-67v-66v-67v-66v-67zM333 266v-66h-67v66v67v66v67h67v66h66h67h66v-66h-66h-67v-67h-66v-66v-67zM732 666v-67h-66h-67v67h-67h-66h-67h-66v-67h-67h-66v67h66v66h67h66h67h66h67h67v-66h66z" />
<glyph unicode="A" horiz-adv-x="732" d="M666 0h-67v67h-67v66v67h-66h-67h-66h-67h-66v-67h-67v-66v-67h-66h-67v67h67v66v67h66v66v67v66h67v67v66v67h66v67v66h67v67h66v-67v-66h67v-67v-67h66v-66v-67v-66h67v-67v-66h67v-67v-66v-67zM333 266h66h67v67v66v67h-67v66v67h-66v-67h-67v-66v-67v-66v-67h67z" />
<glyph unicode="B" horiz-adv-x="665" d="M466 0h-67h-66h-67h-66h-67h-66v67v66v67v66v67v66v67v66v67v67v66h66v67h67h66h67v-67h66h67h66v-66v-67h67v-67v-66h-67v-67v-66h67v-67v-66v-67h-67v-66h-66v-67zM266 67h67h66v66h67v67h66v66h-66v67h-67h-66h-67h-66v-67v-66v-67v-66h66zM333 466h66h67v66v67v67 h-67h-66h-67h-66v-67v-67v-66h66h67z" />
<glyph unicode="C" horiz-adv-x="798" d="M666 599h-67v67h-67h-66h-67h-66h-67v-67h-66v-67h-67v-66v-67v-66v-67h67v-66v-67h66h67v-66h66h67h66h67v66h67h66v-66h-66v-67h-67h-67h-66h-67h-66h-67v67h-66h-67v66v67h-66v66v67v66v67v66v67h66v67h67v66h66h67v67h66h67h66v-67h67h67v-66v-67z" />
<glyph unicode="D" horiz-adv-x="798" d="M466 0h-67h-66h-67h-66h-67h-66v67v66v67v66v67v66v67v66v67v67v66h66v67h67h66h67v-67h66h67h66v-66h67v-67h67v-67v-66v-67h66v-66h-66v-67v-66v-67h-67v-66h-67h-66v-67zM266 67h67h66v66h67h66v67h67v66v67v66v67v66h-67v67h-66v67h-67h-66h-67h-66v-67v-67v-66v-67 v-66v-67v-66v-67v-66h66z" />
<glyph unicode="E" d="M399 67h67h66v-67h-66h-67h-66h-67h-66h-67h-66v67v66v67v66v67v66v67v66v67v67v66h66v67h67h66h67h66h67v-67h66v-66h-66h-67h-66h-67h-66v-67v-67v-66v-67h66h67h66h-37v-66h37h-66h-67h-66v-67v-66v-67v-66h66h67h66z" />
<glyph unicode="F" d="M200 0h-67h-66v67v66v67v66v67v66v67v66v67v67v66h66v67h67h66h67h66h67v-67h66v-66h-66h-67h-66h-67h-66v-67v-67v-66v-67h66h67h66l-37 3v-69h37h-66h-67h-66v-67v-66v-67v-66v-67z" />
<glyph unicode="G" horiz-adv-x="865" d="M666 599h-67v67h-67h-66h-67h-66h-67v-67h-66v-67h-67v-66v-67v-66v-67h67v-66v-67h66h67v-66h66h67h66h67v66h67v67h66v66v67h-66h-67h-67h-66v66h66h67h67h66h67v-66v-67v-66v-67h-67v-66h-66v-67h-67h-67h-66h-67h-66h-67v67h-66h-67v66v67h-66v66v67v66v67v66v67h66 v67h67v66h66h67v67h66h67h66v-67h67h67v-66v-67z" />
<glyph unicode="H" horiz-adv-x="732" d="M666 0h-67h-67v67v66v67v66v67h-66h-67h-66h-67h-66v-67v-66v-67v-66v-67h-67h-66v67v66v67v66v67v66v67v66v67v67v66h66h67v-66v-67v-67v-66h66h67h66h67h66v66v67v67v66h67h67v-66v-67v-67v-66v-67v-66v-67v-66v-67v-66v-67z" />
<glyph unicode="I" horiz-adv-x="266" d="M200 0h-67h-66v67v66v67v66v67v66v67v66v67v67v66h66h67v-66v-67v-67v-66v-67v-66v-67v-66v-67v-66v-67z" />
<glyph unicode="J" horiz-adv-x="532" d="M399 0h-66h-67h-66h-67v67h-66v66v67h66v-67h67v-66h66h67v66h66v67v66v67v66v67v66v67v67v66v67h67v-67v-66v-67v-67v-66v-67v-66v-67v-66v-67v-66h-67v-67z" />
<glyph unicode="K" horiz-adv-x="732" d="M666 0h-67h-67v67h-66v66v67h66v-67h67v-66h67v-67zM200 0h-67h-66v67v66v67v66v67v66v67v66v67v67v66h66h67v-66v-67v-67v-66v-67h66v67v66h67v67h66v67h67v66h66v67h67v-67v-66h-67v-67h-66v-67h-67v-66v-67v-66h67v-67v-66h-67v66h-66v67h-67v-67h-66v-66v-67v-66v-67 z" />
<glyph unicode="L" d="M399 67h67h66v-67h-66h-67h-66h-67h-66h-67h-66v67v66v67v66v67v66v67v66v67v67v66h66h67v-66v-67v-67v-66v-67v-66v-67v-66v-67v-66h66h67h66z" />
<glyph unicode="M" horiz-adv-x="931" d="M865 0h-66h-67v67v66v67v66v67v66v67v66h-66v-66v-67v-66h-67v-67v-66h-67v-67v-66v-67h-66h-67v67v66h-66v67v66v67h-67v66v67h-66v-67v-66v-67v-66v-67v-66v-67h-67h-66v67v66v67v66v67v66v67v66v67v67v66h66v67h67v-67h66v-66v-67v-67h67v-66v-67h66v-66v-67v-66h67 v66h66v67v66h67v67v66v67h67v67v66h66v67h67v-67h66v-66v-67v-67v-66v-67v-66v-67v-66v-67v-66v-67z" />
<glyph unicode="N" horiz-adv-x="732" d="M666 0h-67h-67v67v66h-66v67h-67v66v67h-66v66v67h66v-67h67v-66v-67h66v-66h67v66v67v66v67v66v67v67v66v67h67v-67v-66v-67v-67v-66v-67v-66v-67v-66v-67v-66v-67zM200 0h-67h-66v67v66v67v66v67v66v67v66v67v67v66h66h67h66v-66v-67h67v-67v-66h-67v66h-66v-66v-67 v-66v-67v-66v-67v-66v-67z" />
<glyph unicode="O" horiz-adv-x="865" d="M466 67h66h67v66h67v67h66v66v67v66v67v66h-66v67h-67v67h-67h-66h-67h-66h-67v-67h-66v-67h-67v-66v-67v-66v-67h67v-66v-67h66h67v-66h66h67zM599 0h-67h-66h-67h-66h-67v67h-66h-67v66v67h-66v66v67v66v67v66v67h66v67h67v66h66h67v67h66h67h66v-67h67h67v-66h66v-67 h67v-67v-66v-67v-66v-67v-66v-67h-67v-66h-66h-67v-67z" />
<glyph unicode="P" horiz-adv-x="665" d="M200 0h-67h-66v67v66v67v66v67v66v67v66v67v67v66h66v67h67h66h67v-67h66h67h66v-66v-67h67v-67v-66h-67v-67h-66v67v66v67v67h-67h-66h-67h-66v-67v-67v-66v-67h66h67h66h67v-66h-67h-66h-67h-66v-67v-66v-67v-66v-67z" />
<glyph unicode="Q" horiz-adv-x="865" d="M732 0h-66h-67h-67h-66h-67h-66h-67v67h-66h-67v66v67h-66v66v67v66v67v66v67h66v67h67v66h66h67v67h66h67h66v-67h67h67v-66h66v-67h67v-67v-66v-67v-66v-67v-66v-67h-67v-66v-67zM399 67h67h66v66v67h-66v66h66h67v-66h67h66v66v67v66v67v66h-66v67h-67v67h-67h-66h-67 h-66h-67v-67h-66v-67h-67v-66v-67v-66v-67h67v-66v-67h66h67v-66h66z" />
<glyph unicode="R" horiz-adv-x="665" d="M599 0h-67h-66v67v66h66v-66h67v-67zM200 0h-67h-66v67v66v67v66v67v66v67v66v67v67v66h66v67h67h66h67v-67h66h67h66v-66v-67h67v-67v-66h-67v-67h-66v67v66v67v67h-67h-66h-67h-66v-67v-67v-66v-67h66h67h66h67v-66h-67v-67h67v-66v-67h-67v67h-66v66h-67v67h-66v-67 v-66v-67v-66v-67z" />
<glyph unicode="S" d="M466 0h-67h-66h-67h-66h-67v67h-66v66v67h66v-67h67v-66h66h67h66v66h67v67v66h-67v67h-66h-67v66h-66h-67v67h-66v66v67v67h66v66h67v67h66h67h66v-67h67v-66h66v-67h-66h-67v67h-66h-67h-66v-67h-67v-67h67v-66h66h67v-67h66h67v-66h66v-67v-66v-67v-66h-66v-67z" />
<glyph unicode="T" d="M333 0h-67v67v66v67v66v67v66v67v66v67v67h-66h-67h-66h-67v66h67v67h66h67h66h67h66h67h66v-67v-66h-66h-67h-66v-67v-67v-66v-67v-66v-67v-66v-67v-66v-67z" />
<glyph unicode="U" horiz-adv-x="732" d="M532 0h-66h-67h-66h-67h-66v67h-67v66h-66v67v66v67v66v67v66v67v67v66h66v-66v-67v-67v-66v-67v-66v-67v-66h67v-67h66v-66h67h66h67v66h66v67v66v67v66v67v66v67v67v66h67h67v-66v-67v-67v-66v-67v-66v-67h-67v-66v-67v-66h-67v-67z" />
<glyph unicode="V" horiz-adv-x="732" d="M399 0h-66h-67v67v66h-66v67v66v67h-67v66v67v66h-66v67v67v66h66v-66v-67h67v-67v-66v-67h66v-66v-67v-66h67h66v66v67v66h67v67v66v67h66v67v66h67h67v-66h-67v-67v-67h-67v-66v-67v-66h-66v-67v-66v-67h-67v-66v-67z" />
<glyph unicode="W" horiz-adv-x="998" d="M799 0h-67h-66v67v66v67h-67v66v67v66h-67v67v66h-66v-66v-67h-67v-66v-67v-66v-67h-66v-66v-67h-67h-66v67v66v67h-67v66v67v66v67h-66v66v67v67v66h66v-66v-67v-67h67v-66v-67v-66v-67h66h67v67v66v67h66v66v67v67h67v66v67h66v-67h67v-66v-67v-67v-66h67v-67v-66v-67 h66h67v67v66v67v66h66v67v67v66h67v-66v-67v-67v-66h-67v-67v-66v-67v-66h-66v-67v-66v-67z" />
<glyph unicode="X" horiz-adv-x="665" d="M599 0h-67v67h-66v66v67h-67v66h-66h-67v-66h-66v-67v-66h-67v-67h-66v67v66h66v67h67v66v67h66v66v67h-66v66h-67v67v67h-66v66v67h66v-67h67v-66v-67h66v-67h67h66v67h67v67v66h66v67h67v-67v-66h-67v-67v-67h-66v-66h-67v-67v-66h67v-67h66v-66v-67h67v-66v-67z" />
<glyph unicode="Y" horiz-adv-x="665" d="M399 0h-66h-67v67v66v67v66v67v66h-66v67v66h-67v67h-66v67v66h66v-66h67v-67h66v-67v-66h67v66h66v67v67h67v66h66v67h67v-67v-66h-67v-67h-66v-67v-66h-67v-67v-66v-67v-66v-67v-66v-67z" />
<glyph unicode="Z" d="M399 67h67h66v-67h-66h-67h-66h-67h-66h-67h-66v67v66v67h66v66h67v67v66h66v67h67v66h66v67v67h-66h-67h-66h-67h-66v66v67h66h67h66h67h66h67h66v-67v-66v-67h-66v-67v-66h-67v-67h-66v-66h-67v-67v-66h-66v-67v-66h66h67h66z" />
<glyph unicode="[" horiz-adv-x="399" d="M200 -67h66h67v-66h-67h-66h-67h-66v66v67v67v66v67v66v67v66v67v66v67v67v66v67h66h67v-67v-66v-67v-67v-66v-67v-66v-67v-66v-67v-66v-67v-67z" />
<glyph unicode="\" horiz-adv-x="465" d="M399 0h-66v67v66h66v-66v-67zM333 200v-67h-67v67v66h-66v67v66v67h66v-67v-66h67v-67v-66zM200 532v-66h-67v66v67h-66v67v66h66v-66h67v-67v-67z" />
<glyph unicode="]" horiz-adv-x="332" d="M266 -133h-66h-67h-66v66h66v67h67v67v66v67v66v67v66v67v66v67v67v66h-67v67h67h66v-67v-66v-67v-67v-66v-67v-66v-67v-66v-67v-66v-67v-67v-66z" />
<glyph unicode="^" horiz-adv-x="532" d="M133 466h-66v66v67h66v67h67v-67v-67h-67v-66zM466 466h-67h-66v66v67h66v-67h67v-66zM333 666v-67h-67v67h-66v66h66h67v-66z" />
<glyph unicode="_" horiz-adv-x="532" d="M333 -133h66h67v-67h-67h-66h-67h-66h-67h-66h-67v67h67h66h67h66h67z" />
<glyph unicode="`" horiz-adv-x="266" d="M200 666h-67v66v67h67v-67v-66z" />
<glyph unicode="a" d="M133 399h-66v67v66h66h67h66h67h66h67v-66v-67h66v-66v-67v-66v-67v-66v-67h-66h-67h-66h-67h-66h-67h-66v67v66v67v66h66v67h67h66h67h66v66v67h-66h-67h-66h-67v-67zM200 67h66h67v66h66v67v66h-66h-67h-66h-67v-66v-67v-66h67z" />
<glyph unicode="b" horiz-adv-x="665" d="M133 0h-66v67v66v67v66v67v66v67v66v67v67v66v67h66v-67v-66v-67v-67h67h66h67h66h67h66v-66v-67h67v-66v-67v-66v-67h-67v-66h-66v-67h-67h-66h-67h-66v67h-67v-67zM266 67h67h66v66h67v67h66v66v67h-66v66v67h-67h-66h-67h-66v-67v-66h-67v-67v-66h67v-67h66v-66z" />
<glyph unicode="c" d="M466 0h-67h-66h-67h-66h-67v67h-66v66v67v66v67v66v67h66v66h67h66h67h66h67v-66h66v-67h-66h-67v67h-66h-67h-66v-67h-67v-66v-67v-66v-67h67v-66h66h67h66v66h67h66v-66h-66v-67z" />
<glyph unicode="d" horiz-adv-x="665" d="M599 0h-67h-66h-67h-66h-67h-66h-67v67h-66v66v67v66v67v66v67h66v66h67h66h67h66h67v67v67v66h66h67v-66v-67v-67v-66v-67v-66v-67v-66v-67v-66v-67zM266 67h67h66v66h67v67v66v67v66h-67v67h-66h-67h-66v-67h-67v-66v-67v-66v-67h67v-66h66z" />
<glyph unicode="e" d="M547 73l-62 -23l-64 -23l-62 -23l-63 -22l-62 -23l-23 63l-62 -23l-23 62l-23 63l-23 63l-22 63l-23 62l-23 62l63 23l-23 63l62 23l64 22l62 23l63 22l62 23l23 -62l62 23l23 -63l23 -62l23 -64l-63 -22l-63 -22l-62 -23l-63 -23l-62 -23l-62 -23l21 -62l23 -63l63 23 l23 -62l62 23l63 21l63 23l-23 63l62 23l63 22l23 -62l-63 -23zM308 340l62 23l64 23l-23 62l-63 -23l-22 63l-63 -23l-63 -22l-63 -23l23 -62l-62 -23l23 -63l62 22l62 23z" />
<glyph unicode="f" horiz-adv-x="465" d="M200 0h-67v67v66v67v66v67v66v67h-66h-67v66h67h66v67v67v66h67h66v67h67v-67h66v-66h-66h-67h-66v-67v-67h66h67v-66h-67h-66v-67v-66v-67v-66v-67v-66v-67z" />
<glyph unicode="g" horiz-adv-x="665" d="M399 -266h-66h-67h-66v66h-67v67h-66v66h66h67v-66h66h67h66h67v66v67v67h-67v66h67v67v66v67v66h-67v67h-66h-67h-66v-67h-67v-66v-67v-66v-67h67v-66h66h67h66v-67h-66h-67h-66h-67v67h-66v66v67v66v67v66v67h66v66h67h66h67h66h67h66h67v-66v-67v-66v-67v-66v-67v-66 v-67h-67v-67v-66v-67h-66h-67v-66z" />
<glyph unicode="h" d="M532 0h-66v67v66v67v66v67v66h-67v67h-66h-67h-66v-67v-66h-67v-67v-66v-67v-66v-67h-66v67v66v67v66v67v66v67v66v67v67v66v67h66v-67v-66v-67v-67h67h66h67h66h67v-66h66v-67v-66v-67v-66v-67v-66v-67z" />
<glyph unicode="i" horiz-adv-x="266" d="M200 0h-67h-66v67v66v67v66v67v66v67v66h66h67v-66v-67v-66v-67v-66v-67v-66v-67zM200 666h-67h-66v66v67h66v-67h67v-66z" />
<glyph unicode="j" horiz-adv-x="266" d="M67 -266h-67v66v67h67v66v67v67v66v67v66v67v66v67v66h66h67v-66v-67v-66v-67v-66v-67v-66v-67v-67h-67v-66v-67h-66v-66zM200 666h-67h-66v66v67h66v-67h67v-66z" />
<glyph unicode="k" d="M133 0h-66v67v66v67v66v67v66v67v66v67v67v66v67h66v-67v-66v-67v-67v-66v-67v-66h67h66v66h67v-66v-67h66v-66v-67h67v-66h66v-67h-66h-67v67h-66v66v67h-67v66h-66v-66h-67v-67v-66v-67zM399 399h-66v67h66v-67zM466 466h-67v66h67v-66z" />
<glyph unicode="l" horiz-adv-x="199" d="M133 0h-66v67v66v67v66v67v66v67v66v67v67v66v67h66v-67v-66v-67v-67v-66v-67v-66v-67v-66v-67v-66v-67z" />
<glyph unicode="m" horiz-adv-x="931" d="M865 0h-66v67v66v67v66v67v66h-67v67h-66h-67h-67v-67v-66v-67v-66v-67v-66v-67h-66h-67v67v66v67v66v67v66v67h-66h-67h-66v-67v-66h-67v-67v-66v-67v-66v-67h-66v67v66v67v66v67v66v67v66h66h67h66h67h66h67v-66h66v66h67h67h66h67v-66h66v-67v-66v-67v-66v-67v-66v-67 z" />
<glyph unicode="n" d="M532 0h-66v67v66v67v66v67v66h-67v67h-66h-67h-66v-67v-66h-67v-67v-66v-67v-66v-67h-66v67v66v67v66v67v66v67v66h66h67h66h67h66h67v-66h66v-67v-66v-67v-66v-67v-66v-67z" />
<glyph unicode="o" horiz-adv-x="665" d="M466 0h-67h-66h-67h-66h-67v67h-66v66v67v66v67v66v67h66v66h67h66h67h66h67v-66h-67h-66h-67h-66v-67h-67v-66v-67v-66v-67h67v-66h66h67h66v66h67v67h66v66v67h-66v66v67h66v-67h67v-66v-67v-66v-67h-67v-66h-66v-67z" />
<glyph unicode="p" horiz-adv-x="665" d="M133 -200h-66v67v66v67v67v66v67v66v67v66v67v66h66h67h66h67h66h67h66v-66v-67h67v-66v-67v-66v-67h-67v-66h-66v-67h-67h-66h-67h-66v67h-67v-67v-67v-66v-67zM266 67h67h66v66h67v67h66v66v67h-66v66v67h-67h-66h-67h-66v-67v-66h-67v-67v-66h67v-67v-66h66z" />
<glyph unicode="q" horiz-adv-x="665" d="M599 -200h-67h-66v67v66v67h-67h-66h-67h-66h-67v67h-66v66v67v66v67v66v67h66v66h67h66h67h66h67h66h67v-66v-67v-66v-67v-66v-67v-66v-67v-67v-66v-67zM266 67h67h66v66h67v67v66v67v66h-67v67h-66h-67h-66v-67h-67v-66v-67v-66v-67h67v-66h66z" />
<glyph unicode="r" horiz-adv-x="465" d="M133 0h-66v67v66v67v66v67v66v67v66h66h67h66h67h66v-66h-66h-67h-66v-67v-66h-67v-67v-66v-67v-66v-67z" />
<glyph unicode="s" horiz-adv-x="532" d="M399 399h-66v67h-67h-66h-67v-67v-66h67h66h67v-67h66h67v-66v-67v-66h-67v-67h-66h-67h-66h-67v67h67h66h67v66h66v67h-66h-67v66h-66h-67h-66v67v66v67v66h66h67h66h67h66v-66v-67zM133 133v-66h-66v66h66z" />
<glyph unicode="t" horiz-adv-x="399" d="M333 0h-67h-66v67h-67v66v67v66v67v66v67h-66h-67v66h67h66v67v67v66h67v-66v-67v-67h66h67v-66h-67h-66v-67v-66v-67v-66v-67h66v-66h67v-67z" />
<glyph unicode="u" d="M532 0h-66h-67h-66h-67h-66h-67v67h-66v66v67v66v67v66v67v66h66v-66v-67v-66v-67v-66v-67h67v-66h66h67h66v66v67h67v66v67v66v67v66h66v-66v-67v-66v-67v-66v-67v-66v-67z" />
<glyph unicode="v" d="M333 0h-67h-66v67v66h-67v67v66v67h-66v66v67h-67v66h67h66v-66v-67h67v-66v-67v-66h66h67v66v67h66v66v67v66h67h66v-66h-66v-67v-66v-67h-67v-66v-67h-66v-66v-67z" />
<glyph unicode="w" horiz-adv-x="865" d="M266 0h-66v67h-67v66v67v66h-66v67v66v67h-67v66h67h66v-66v-67v-66h67v-67v-66h66v66v67h67v66v67v66h66h67v-66v-67h66v-66v-67v-66h67h67v-67v-66v-67h-67h-67v67v66h-66v67v66v67v66h-67v-66v-67h-66v-66v-67v-66h-67v-67zM732 200h-66v66v67v66v67h66v66h67v-66v-67 h-67v-66v-67v-66z" />
<glyph unicode="x" horiz-adv-x="532" d="M466 0h-67v67h-66v66h-67v67h-66v-67v-66h-67v-67h-66v67v66h66v67h67v66v67h-67v66h-66v67v66h66v-66h67v-67h66h67v67v66h66h67v-66h-67v-67v-66h-66v-67v-66h66v-67h67v-66v-67z" />
<glyph unicode="y" d="M200 -200h-67v67h67v-67zM266 -133h-66v66v67v67v66v67h-67v66v67h-66v66v67h-67v66h67h66v-66v-67h67v-66v-67h66v-66h67v66v67h66v66v67v66h67h66v-66h-66v-67v-66v-67h-67v-66v-67h-66v-66v-67h-67v-67v-66z" />
<glyph unicode="z" horiz-adv-x="532" d="M333 67h66h67v-67h-67h-66h-67h-66h-67h-66v67v66h66v67h67v-67v-66h66h67zM266 200h-66v66v67h66v66h67v67h-67h-66h-67h-66v66h66h67h66h67h66h67v-66v-67h-67v-66h-66v-67h-67v-66z" />
<glyph unicode="{" horiz-adv-x="399" d="M200 -67h66h67v-66h-67h-66v66zM200 0v-67h-67v67v67h-66v66v67v66v67h-67v66h67v67v66v67v67h66v66v67h67h66v-67h-66v-66v-67v-67v-66v-67h-67v-66h67v-67v-66v-67v-66v-67z" />
<glyph unicode="|" horiz-adv-x="266" d="M133 -133h-66v66v67v67v66v67v66v67v66v67v66v67v67v66v67h66h67v-67v-66v-67v-67v-66v-67v-66v-67v-66v-67v-66v-67v-67h-67v-66z" />
<glyph unicode="}" horiz-adv-x="399" d="M0 -67h67h66v-66h-66h-67v66zM200 -67h-67v67v67v66v67v66v67h67v66h-67v67v66v67v67v66h-66v67h66h67v-67v-66v-67v-67v-66h66v-67h67v-66h-67v-67h-66v-66v-67v-66v-67v-67z" />
<glyph unicode="~" d="M133 266h-66v67v66h66h67h66v-66h67h66h67v-67h-67h-66h-67v67h-66h-67v-67zM532 333h-66v66h66v-66z" />
<glyph unicode="&#xa1;" horiz-adv-x="266" d="M133 399h-66v67v66h66h67v-66h-67v-67zM200 -200h-67h-66v67v66v67v67v66v67v66v67h66v-67v-66h67v-67v-66v-67v-67v-66v-67z" />
<glyph unicode="&#xa2;" d="M333 0h-67v67h-66v66h-67v67h-66v66v67v66v67v66h66v67h67v67h66v66h67v-66h66v-67h67v-67h66v-66h-66h-67v66h-66v-66v-67v-66v-67v-66h66v66h67h66v-66h-66v-67h-67v-66h-66v-67zM200 200h66v66v67v66v67v66h-66v-66h-67v-67v-66v-67h67v-66z" />
<glyph unicode="&#xa3;" d="M466 0h-67h-66h-67h-66h-67h-66v67v66h66v67v66h-66v67v66v67v66v67v67h66v66h67h66h67h66v-66h67v-67h-67h-66v67h-67h-66v-67h-67v-67v-66v-67h67v-66h66h67v-67h-67h-66v-66v-67v-66h66h67h66v66h67h66v-66h-66v-67z" />
<glyph unicode="&#xa4;" d="M532 133h-66h-67h-66h-67h-66h-67h-66v67h66v66v67h-66v66h66v67v66h67h66v67h67h66v-67h67v67h66v-67v-66v-67v-66v-67v-66v-67zM266 200h67h66v66h67v67v66v67h-67h-66h-67h-66v-67v-66v-67v-66h66zM133 599v-67h-66v67h66z" />
<glyph unicode="&#xa5;" horiz-adv-x="665" d="M333 0h-67v67v66v67h-66h-67h-66v66h66h67h66v67h-66h-67h-66v66h66h67v67h-67v66v67h-66v67v66h66v-66h67v-67v-67h66v-66h67v66h66v67v67h67v66h66h67v-66h-67v-67h-66v-67v-66h-67v-67h67h66v-66h-66h-67h-66v-67h66h67h66v-66h-66h-67h-66v-67v-66v-67z" />
<glyph unicode="&#xa6;" horiz-adv-x="266" d="M133 -133h-66v66v67v67v66v67v66v67h66v-67h67v-66v-67v-66v-67v-67h-67v-66zM200 399h-67h-66v67v66v67v67v66v67h66h67v-67v-66v-67v-67v-66v-67z" />
<glyph unicode="&#xa7;" d="M466 599h-67v67h-66h-67h-66v-67v-67h66v-66h67h66v-67h67v-66h66v-67v-66v-67h-66v-66h66v-67v-67v-66h-66v-67h-67v-66h-66h-67h-66v66h-67v67h-66v66v67h66v-67h67v-66h66h67h66v66h67v67h-67v67h-66h-67v66h-66h-67v67h-66v66v67v66h66v67v66h-66v67v67h66v66h67v67 h66h67h66v-67h67v-66v-67zM333 133h66v67h67v66h-67v67h-66v66h-67h-66v-66v-67v-66h66h67v-67z" />
<glyph unicode="&#xa8;" horiz-adv-x="399" d="M333 666h-67v66h67v-66zM67 732h66h67v-66h-67h-66v66z" />
<glyph unicode="&#xa9;" d="M466 333h-67v66h67v-66zM200 333h66h67v-67h-67h-66v67zM200 399v-66h-67v66h67zM532 399h-66v67v66v67v67h66v-67v-67v-66v-67zM200 466h66h67v-67h-67h-66v67zM133 466v-67h-66v67h66zM200 532v-66h-67v66v67h67v-67zM200 666h66h67v-67h-67h-66v67zM133 666v-67h-66 v67h66zM466 732v-66h-67v66h67zM200 732v-66h-67v66h67zM200 799h66h67v-67h-67h-66v67z" />
<glyph unicode="&#xaa;" horiz-adv-x="532" d="M266 266h-66h-67v67h-66v66v67v66h66v67h67h66h67h66v67h67v-67v-67v-66v-67v-66h-67h-66h-67v-67zM200 399h66h67v67v66h-67h-66h-67v-66v-67h67zM399 732v-66h-66h-67v66h-66v-66h-67h-66v66h66v67h67h66h67v-67h66z" />
<glyph unicode="&#xab;" d="M266 67h-66v66h-67v67h-66v66v67h66v-67h67v-66h66v-67v-66zM532 67h-66h-67v66h-66v67v66h66v-66h67v-67h66v-66zM333 333v-67h-67v67h67zM399 333h-66v66h66v-66zM200 333h-67v66h67v-66zM466 399h-67v67h67v-67zM266 399h-66v67h66v-67z" />
<glyph unicode="&#xac;" d="M532 133h-66v67v66v67h-67h-66h-67h-66h-67h-66v66h66h67h66h67h66h67h66v-66v-67v-66v-67z" />
<glyph unicode="&#xad;" horiz-adv-x="465" d="M399 266h-66h-67h-66h-67h-66v67v66h66h67h66h67h66v-66v-67z" />
<glyph unicode="&#xae;" d="M466 333h-67v66h67v-66zM133 599h-66v67h66v-67zM200 333h66h67v-67h-67h-66v67zM200 399v-66h-67v66h67zM532 399h-66v67v66v67v67h66v-67v-67v-66v-67zM266 399h-66v67v66v67v67h66h67v-67h66v-67h-66v67h-67v-67h67v-66h-67v-67zM133 466v-67h-66v67h66zM466 732v-66 h-67v66h67zM200 732v-66h-67v66h67zM200 799h66h67v-67h-67h-66v67z" />
<glyph unicode="&#xaf;" horiz-adv-x="399" d="M200 732h66h67v-66h-67h-66h-67h-66v66h66h67z" />
<glyph unicode="&#xb0;" horiz-adv-x="399" d="M266 466h-66h-67h-66v66v67v67v66h66h67h66v-66h-66h-67v-67v-67h67v67h66v67h67v-67v-67h-67v-66z" />
<glyph unicode="&#xb1;" d="M333 133h-67v67v66v67h-66h-67h-66v66h66h67h66v67v66h67v-66v-67h66h67h66v-66h-66h-67h-66v-67v-66v-67zM399 67h67h66v-67h-66h-67h-66h-67h-66h-67h-66v67h66h67h66h67h66z" />
<glyph unicode="&#xb2;" horiz-adv-x="332" d="M133 666h-66v66h66v-66zM266 399h-66h-67h-66h-67v67h67v66h66v67h67v67v66h66v-66v-67v-67h-66v-66h66v-67zM200 799v-67h-67v67h67z" />
<glyph unicode="&#xb3;" horiz-adv-x="399" d="M200 333h-67v66h67v-66zM133 666h-66v66h66v-66zM266 399h-66v67v66h-67v67h67v67v66h66v-66v-67v-67h67v-66h-67v-67zM133 466v-67h-66v67h66zM200 799v-67h-67v67h67z" />
<glyph unicode="&#xb4;" horiz-adv-x="332" d="M266 666h-66v66h66v-66z" />
<glyph unicode="&#xb5;" d="M133 -200h-66v67v66v67v67v66v67v66v67v66v67v66h66v-66v-67v-66v-67v-66v-67h67v-66h66h67h66v-67h-66h-67h-66h-67v-67v-66v-67zM532 0h-66v67h-67v66v67h67v66v67v66v67v66h66v-66v-67v-66v-67v-66v-67v-66v-67z" />
<glyph unicode="&#xb6;" horiz-adv-x="665" d="M399 -200h-66v67v66v67v67v66v67v66h-67v67h-66h-67v66h-66v67h-67v66v67h67v67v66h66h67h66v67h67h66h67h66v-67h67v-66v-67v-67v-66v-67v-66v-67v-66v-67v-66v-67v-67v-66v-67h-67h-66v67v66v67v67v66v67v66v67v66v67v66v67v67h-67v-67v-67v-66v-67v-66v-67v-66v-67 v-66v-67v-67v-66v-67z" />
<glyph unicode="&#xb7;" horiz-adv-x="199" d="M133 266h-66v67v66h66v-66v-67z" />
<glyph unicode="&#xb8;" horiz-adv-x="332" d="M266 -266h-66h-67v66h67v67h-67v66v67h67v-67h66v-66v-67v-66z" />
<glyph unicode="&#xb9;" horiz-adv-x="266" d="M200 399h-67v67v66v67v67h-66v66h66h67v-66v-67v-67v-66v-67z" />
<glyph unicode="&#xba;" d="M333 266h-67h-66v67h-67v66h-66v67v66v67v67v66h66h67v67h66h67v-67h66h67v-66v-67h66v-67v-66h-66v-67v-66h-67h-66v-67zM266 399h67h66v67v66v67v67h-66h-67h-66h-67v-67v-67v-66v-67h67h66z" />
<glyph unicode="&#xbb;" d="M333 67h-67v66h67v-66zM133 67h-66v66h66v-66zM399 133h-66v67h66v-67zM200 133h-67v67h67v-67zM466 200h-67v66v67v66h67v-66h66v-67h-66v-66zM266 200h-66v66v67h-67v66h-66v67v66h66v-66h67v-67h66v-66h67v-67h-67v-66zM399 466v-67h-66v67h66z" />
<glyph unicode="&#xbc;" horiz-adv-x="798" d="M666 0h-67v67h-67h-66h-67v66h67v67v66h66v67h67v66h67v-66v-67v-66v-67h66v-66h-66v-67zM200 0h-67v67v66h67v67h66v-67v-66h-66v-67zM200 399h-67v67v66v67v67h-66v66h66h67v-66v-67v-67v-66v-67zM532 133h67v67v66h-67v-66v-67zM333 200h-67v66v67h67v66h66v-66v-67 h-66v-66zM466 399h-67v67v66h67v67h66v-67v-66h-66v-67zM599 599h-67v67v66h67h67v-66h-67v-67z" />
<glyph unicode="&#xbd;" horiz-adv-x="798" d="M200 0h-67v67v66h67v-66v-67zM599 266h-67v67v66h67h67h66v-66v-67v-66h-66v-67h-67v-66h67h66v-67h-66h-67h-67h-66v67h66v66h67v67h67v66v67h-67v-67zM200 399h-67v67v66v67v67h-66v66h66h67v-66v-67v-67v-66v-67zM266 133h-66v67v66h66v67h67v-67v-66h-67v-67z M399 333h-66v66h66v-66zM466 399h-67v67v66h67v-66v-67zM532 532h-66v67h66v-67zM599 599h-67v67v66h67v-66v-67z" />
<glyph unicode="&#xbe;" horiz-adv-x="865" d="M266 0h-66v67h66v-67zM133 666h-66v66h66v-66zM799 0h-67h-66v67h-67h-67v66v67h67v66h67v67v66h66v-66h67v-67v-66v-67v-66v-67zM333 67h-67v66v67h67v-67v-66zM599 133h67v67h-67v-67zM399 200h-66v66h66v-66zM466 266h-67v67v66h67v-66v-67zM532 399h-66v67h66v-67z M333 399h-67h-66h-67h-66v67h66h67h66v66h67v-66v-67zM599 466h-67v66v67h67v-67v-66zM266 599v-67h-66h-67v67h67h66zM666 599h-67v67h67v-67zM333 599h-67v67h-66v66h-67v67h67h66v-67h67v-66v-67zM732 666h-66v66h66v-66z" />
<glyph unicode="&#xbf;" horiz-adv-x="532" d="M333 -266h-67h-66v66h-67h-66v67v66v67v67h66v66h67v67v66v67h66h67v-67v-66h-67v-67v-66h-66v-67h-67v-67v-66h67h66h67h66v66h67v-66v-67h-67h-66v-66zM200 532h66h67v-66h-67h-66v66z" />
<glyph unicode="&#xc0;" horiz-adv-x="732" d="M666 0h-67v67h-67v66v67h-66h-67h-66h-67h-66v-67h-67v-66v-67h-66h-67v67h67v66v67h66v66v67v66h67v67v66v67h66v67v66h67v67h66v-67v-66h67v-67v-67h66v-66v-67v-66h67v-67v-66h67v-67v-66v-67zM333 266h66h67v67v66v67h-67v66v67h-66v-67h-67v-66v-67v-66v-67h67z" />
<glyph unicode="&#xc1;" horiz-adv-x="732" d="M666 0h-67v67h-67v66v67h-66h-67h-66h-67h-66v-67h-67v-66v-67h-66h-67v67h67v66v67h66v66v67v66h67v67v66v67h66v67v66h67v67h66v-67v-66h67v-67v-67h66v-66v-67v-66h67v-67v-66h67v-67v-66v-67zM333 266h66h67v67v66v67h-67v66v67h-66v-67h-67v-66v-67v-66v-67h67z" />
<glyph unicode="&#xc2;" horiz-adv-x="732" d="M666 0h-67v67h-67v66v67h-66h-67h-66h-67h-66v-67h-67v-66v-67h-66h-67v67h67v66v67h66v66v67v66h67v67v66v67h66v67v66h67v67h66v-67v-66h67v-67v-67h66v-66v-67v-66h67v-67v-66h67v-67v-66v-67zM333 266h66h67v67v66v67h-67v66v67h-66v-67h-67v-66v-67v-66v-67h67z" />
<glyph unicode="&#xc3;" horiz-adv-x="732" d="M666 0h-67v67h-67v66v67h-66h-67h-66h-67h-66v-67h-67v-66v-67h-66h-67v67h67v66v67h66v66v67v66h67v67v66v67h66v67v66h67v67h66v-67v-66h67v-67v-67h66v-66v-67v-66h67v-67v-66h67v-67v-66v-67zM333 266h66h67v67v66v67h-67v66v67h-66v-67h-67v-66v-67v-66v-67h67z" />
<glyph unicode="&#xc4;" horiz-adv-x="732" d="M666 0h-67v67h-67v66v67h-66h-67h-66h-67h-66v-67h-67v-66v-67h-66h-67v67h67v66v67h66v66v67v66h67v67v66v67h66v67v66h67v67h66v-67v-66h67v-67v-67h66v-66v-67v-66h67v-67v-66h67v-67v-66v-67zM333 266h66h67v67v66v67h-67v66v67h-66v-67h-67v-66v-67v-66v-67h67z" />
<glyph unicode="&#xc5;" horiz-adv-x="732" d="M666 0h-67v67h-67v66v67h-66h-67h-66h-67h-66v-67h-67v-66v-67h-66h-67v67h67v66v67h66v66v67v66h67v67v66v67h66v67v66v67h67h66h67v-67h-67v-66h67v-67v-67h66v-66v-67v-66h67v-67v-66h67v-67v-66v-67zM333 266h66h67v67v66v67h-67v66v67h-66v-67h-67v-66v-67v-66v-67 h67z" />
<glyph unicode="&#xc6;" horiz-adv-x="998" d="M799 67h66h67v-67h-67h-66h-67h-66h-67h-67v67v66v67h-66h-67h-66h-67h-66v-67v-66h-67v-67h-66h-67v67h67v66h66v67v66h67v67v66h66v67h67v66v67h66v67v66h67v67h66h67h67h66h67h66h67v-67v-66h-67h-66h-67h-66h-67v-67v-67v-66v-67h67h66h67h66l-37 3v-69h37h-66h-67 h-66h-67v-67v-66v-67v-66h67h66h67zM333 266h66h67v67h66v66v67v66v67h-66v-67h-67v-66v-67h-66v-66v-67z" />
<glyph unicode="&#xc7;" horiz-adv-x="798" d="M666 599h-67v67h-67h-66h-67h-66h-67v-67h-66v-67h-67v-66v-67v-66v-67h67v-66v-67h66h67v-66h66h67h66h67v66h67h66v-66h-66v-67h-67h-67h-66v-67h66v-66v-67v-66h-66h-67v66h67v67h-67v66v67h-66h-67v67h-66h-67v66v67h-66v66v67v66v67v66v67h66v67h67v66h66h67v67h66 h67h66v-67h67h67v-66v-67z" />
<glyph unicode="&#xc8;" d="M399 67h67h66v-67h-66h-67h-66h-67h-66h-67h-66v67v66v67v66v67v66v67v66v67v67v66h66v67h67h66h67h66h67v-67h66v-66h-66h-67h-66h-67h-66v-67v-67v-66v-67h66h67h66h-37v-66h37h-66h-67h-66v-67v-66v-67v-66h66h67h66z" />
<glyph unicode="&#xc9;" d="M399 67h67h66v-67h-66h-67h-66h-67h-66h-67h-66v67v66v67v66v67v66v67v66v67v67v66h66v67h67h66h67h66h67v-67h66v-66h-66h-67h-66h-67h-66v-67v-67v-66v-67h66h67h66h-37v-66h37h-66h-67h-66v-67v-66v-67v-66h66h67h66z" />
<glyph unicode="&#xca;" d="M399 67h67h66v-67h-66h-67h-66h-67h-66h-67h-66v67v66v67v66v67v66v67v66v67v67v66h66v67h67h66h67h66h67v-67h66v-66h-66h-67h-66h-67h-66v-67v-67v-66v-67h66h67h66h-37v-66h37h-66h-67h-66v-67v-66v-67v-66h66h67h66z" />
<glyph unicode="&#xcb;" d="M399 67h67h66v-67h-66h-67h-66h-67h-66h-67h-66v67v66v67v66v67v66v67v66v67v67v66h66v67h67h66h67h66h67v-67h66v-66h-66h-67h-66h-67h-66v-67v-67v-66v-67h66h67h66l-37 3v-69h37h-66h-67h-66v-67v-66v-67v-66h66h67h66z" />
<glyph unicode="&#xcc;" horiz-adv-x="266" d="M200 0h-67h-66v67v66v67v66v67v66v67v66v67v67v66h66h67v-66v-67v-67v-66v-67v-66v-67v-66v-67v-66v-67z" />
<glyph unicode="&#xcd;" horiz-adv-x="266" d="M200 0h-67h-66v67v66v67v66v67v66v67v66v67v67v66h66h67v-66v-67v-67v-66v-67v-66v-67v-66v-67v-66v-67z" />
<glyph unicode="&#xce;" horiz-adv-x="266" d="M200 0h-67h-66v67v66v67v66v67v66v67v66v67v67v66h66h67v-66v-67v-67v-66v-67v-66v-67v-66v-67v-66v-67z" />
<glyph unicode="&#xcf;" horiz-adv-x="266" d="M200 0h-67h-66v67v66v67v66v67v66v67v66v67v67v66h66h67v-66v-67v-67v-66v-67v-66v-67v-66v-67v-66v-67z" />
<glyph unicode="&#xd0;" horiz-adv-x="798" d="M532 0h-66h-67h-66h-67h-66h-67v67v66v67v66v67h-66v66h66v67v66v67v67v66h67v67h66h67h66v-67h67h66h67v-66h67v-67h66v-67v-66v-67v-66v-67v-66v-67h-66v-66h-67h-67v-67zM333 67h66h67v66h66h67v67h67v66v67v66v67v66h-67v67h-67v67h-66h-67h-66h-67v-67v-67v-66v-67 h67h66h67v-66h-67h-66h-67v-67v-66v-67v-66h67z" />
<glyph unicode="&#xd1;" horiz-adv-x="732" d="M666 0h-67h-67v67v66h-66v67h-67v66v67h-66v66v67h66v-67h67v-66v-67h66v-66h67v66v67v66v67v66v67v67v66v67h67v-67v-66v-67v-67v-66v-67v-66v-67v-66v-67v-66v-67zM200 0h-67h-66v67v66v67v66v67v66v67v66v67v67v66h66h67h66v-66v-67h67v-67v-66h-67v66h-66v-66v-67 v-66v-67v-66v-67v-66v-67z" />
<glyph unicode="&#xd2;" horiz-adv-x="865" d="M466 67h66h67v66h67v67h66v66v67v66v67v66h-66v67h-67v67h-67h-66h-67h-66h-67v-67h-66v-67h-67v-66v-67v-66v-67h67v-66v-67h66h67v-66h66h67zM599 0h-67h-66h-67h-66h-67v67h-66h-67v66v67h-66v66v67v66v67v66v67h66v67h67v66h66h67v67h66h67h66v-67h67h67v-66h66v-67 h67v-67v-66v-67v-66v-67v-66v-67h-67v-66h-66h-67v-67z" />
<glyph unicode="&#xd3;" horiz-adv-x="865" d="M466 67h66h67v66h67v67h66v66v67v66v67v66h-66v67h-67v67h-67h-66h-67h-66h-67v-67h-66v-67h-67v-66v-67v-66v-67h67v-66v-67h66h67v-66h66h67zM599 0h-67h-66h-67h-66h-67v67h-66h-67v66v67h-66v66v67v66v67v66v67h66v67h67v66h66h67v67h66h67h66v-67h67h67v-66h66v-67 h67v-67v-66v-67v-66v-67v-66v-67h-67v-66h-66h-67v-67z" />
<glyph unicode="&#xd4;" horiz-adv-x="865" d="M466 67h66h67v66h67v67h66v66v67v66v67v66h-66v67h-67v67h-67h-66h-67h-66h-67v-67h-66v-67h-67v-66v-67v-66v-67h67v-66v-67h66h67v-66h66h67zM599 0h-67h-66h-67h-66h-67v67h-66h-67v66v67h-66v66v67v66v67v66v67h66v67h67v66h66h67v67h66h67h66v-67h67h67v-66h66v-67 h67v-67v-66v-67v-66v-67v-66v-67h-67v-66h-66h-67v-67z" />
<glyph unicode="&#xd5;" horiz-adv-x="865" d="M466 67h66h67v66h67v67h66v66v67v66v67v66h-66v67h-67v67h-67h-66h-67h-66h-67v-67h-66v-67h-67v-66v-67v-66v-67h67v-66v-67h66h67v-66h66h67zM599 0h-67h-66h-67h-66h-67v67h-66h-67v66v67h-66v66v67v66v67v66v67h66v67h67v66h66h67v67h66h67h66v-67h67h67v-66h66v-67 h67v-67v-66v-67v-66v-67v-66v-67h-67v-66h-66h-67v-67z" />
<glyph unicode="&#xd6;" horiz-adv-x="865" d="M466 67h66h67v66h67v67h66v66v67v66v67v66h-66v67h-67v67h-67h-66h-67h-66h-67v-67h-66v-67h-67v-66v-67v-66v-67h67v-66v-67h66h67v-66h66h67zM599 0h-67h-66h-67h-66h-67v67h-66h-67v66v67h-66v66v67v66v67v66v67h66v67h67v66h66h67v67h66h67h66v-67h67h67v-66h66v-67 h67v-67v-66v-67v-66v-67v-66v-67h-67v-66h-66h-67v-67z" />
<glyph unicode="&#xd7;" horiz-adv-x="532" d="M133 67h-66v66h66v-66zM466 133h-67h-66v67h-67h-66v-67h-67v67h67v66v67h-67v66h-66v67h66h67v-67h66v-66h67v-67h66v-66h67v-67zM399 333h-66v66h66v-66zM466 399h-67v67h67v-67z" />
<glyph unicode="&#xd8;" horiz-adv-x="865" d="M466 67h66h67v66h67v67h66v66v67v66v67v66h-66v67h-67v-67h-67v-66v-67h-66v-66h-67v-67v-66h-66v66v67h66v66v67h67v66h66v67v67h-66h-67h-66h-67v-67h-66v-67h-67v-66v-67v-66v-67h67v-66v-67h66v67h67v-67v-66h66h67zM599 0h-67h-66h-67h-66h-67h-66v67h-67v66v67h-66 v66v67v66v67v66v67h66v67h67v66h66h67v67h66h67h66v-67h67v67h67h66v-67h-66v-66h66v-67h67v-67v-66v-67v-66v-67v-66v-67h-67v-66h-66h-67v-67z" />
<glyph unicode="&#xd9;" horiz-adv-x="732" d="M532 0h-66h-67h-66h-67h-66v67h-67v66h-66v67v66v67v66v67v66v67v67v66h66v-66v-67v-67v-66v-67v-66v-67v-66h67v-67h66v-66h67h66h67v66h66v67v66v67v66v67v66v67v67v66h67h67v-66v-67v-67v-66v-67v-66v-67h-67v-66v-67v-66h-67v-67z" />
<glyph unicode="&#xda;" horiz-adv-x="732" d="M532 0h-66h-67h-66h-67h-66v67h-67v66h-66v67v66v67v66v67v66v67v67v66h66v-66v-67v-67v-66v-67v-66v-67v-66h67v-67h66v-66h67h66h67v66h66v67v66v67v66v67v66v67v67v66h67h67v-66v-67v-67v-66v-67v-66v-67h-67v-66v-67v-66h-67v-67z" />
<glyph unicode="&#xdb;" horiz-adv-x="732" d="M532 0h-66h-67h-66h-67h-66v67h-67v66h-66v67v66v67v66v67v66v67v67v66h66v-66v-67v-67v-66v-67v-66v-67v-66h67v-67h66v-66h67h66h67v66h66v67v66v67v66v67v66v67v67v66h67h67v-66v-67v-67v-66v-67v-66v-67h-67v-66v-67v-66h-67v-67z" />
<glyph unicode="&#xdc;" horiz-adv-x="732" d="M532 0h-66h-67h-66h-67h-66v67h-67v66h-66v67v66v67v66v67v66v67v67v66h66v-66v-67v-67v-66v-67v-66v-67v-66h67v-67h66v-66h67h66h67v66h66v67v66v67v66v67v66v67v67v66h67h67v-66v-67v-67v-66v-67v-66v-67h-67v-66v-67v-66h-67v-67z" />
<glyph unicode="&#xdd;" horiz-adv-x="665" d="M399 0h-66h-67v67v66v67v66v67v66h-66v67v66h-67v67h-66v67v66h66v-66h67v-67h66v-67v-66h67v66h66v67v67h67v66h66v67h67v-67v-66h-67v-67h-66v-67v-66h-67v-67v-66v-67v-66v-67v-66v-67z" />
<glyph unicode="&#xde;" horiz-adv-x="665" d="M200 0h-67h-66v67v66v67v66v67v66v67v66v67v67v66h66h67v-66h66h67v-67h66h67h66v-67v-66h67v-67v-66h-67v-67h-66v-66h-67h-66h-67h-66v-67v-66v-67zM266 266h67h66v67h67v66v67v66h-67h-66h-67h-66v-66v-67v-66v-67h66z" />
<glyph unicode="&#xdf;" d="M466 0h-67h-66h-67v67h67h66v66h67v67v66v67h-67h-66v66h-67v67h67h66v66h67v67h-67v67h-66h-67h-66v-67v-67v-66v-67v-66v-67v-66v-67v-66v-67h-67h-66v67v66v67v66v67v66v67v66v67v67h66v66h67v67h66h67h66v-67h67v-66h66v-67v-67v-66h-66v-67h66v-66v-67v-66v-67v-66 h-66v-67z" />
<glyph unicode="&#xe0;" d="M133 399h-66v67v66h66h67h66h67h66h67v-66v-67h66v-66v-67v-66v-67v-66v-67h-66h-67h-66h-67h-66h-67h-66v67v66v67v66h66v67h67h66h67h66v66v67h-66h-67h-66h-67v-67zM266 666h-66v66v67h66v-67v-66zM200 67h66h67v66h66v67v66h-66h-67h-66h-67v-66v-67v-66h67z" />
<glyph unicode="&#xe1;" d="M133 399h-66v67v66h66h67h66h67h66h67v-66v-67h66v-66v-67v-66v-67v-66v-67h-66h-67h-66h-67h-66h-67h-66v67v66v67v66h66v67h67h66h67h66v66v67h-66h-67h-66h-67v-67zM333 666h-67v66v67h67v-67v-66zM200 67h66h67v66h66v67v66h-66h-67h-66h-67v-66v-67v-66h67z" />
<glyph unicode="&#xe2;" d="M133 399h-66v67v66h66h67h66h67h66h67v-66v-67h66v-66v-67v-66v-67v-66v-67h-66h-67h-66h-67h-66h-67h-66v67v66v67v66h66v67h67h66h67h66v66v67h-66h-67h-66h-67v-67zM200 67h66h67v66h66v67v66h-66h-67h-66h-67v-66v-67v-66h67zM399 666h-66h-67h-66h-67v66h67v67h66 h67v-67h66v-66z" />
<glyph unicode="&#xe3;" d="M133 399h-66v67v66h66h67h66h67h66h67v-66v-67h66v-66v-67v-66v-67v-66v-67h-66h-67h-66h-67h-66h-67h-66v67v66v67v66h66v67h67h66h67h66v66v67h-66h-67h-66h-67v-67zM200 67h66h67v66h66v67v66h-66h-67h-66h-67v-66v-67v-66h67zM266 732h67h66v-66h-66h-67h-66h-67v66 v67h67h66v-67z" />
<glyph unicode="&#xe4;" d="M133 399h-66v67v66h66h67h66h67h66h67v-66v-67h66v-66v-67v-66v-67v-66v-67h-66h-67h-66h-67h-66h-67h-66v67v66v67v66h66v67h67h66h67h66v66v67h-66h-67h-66h-67v-67zM399 666h-66v66v67h66v-67v-66zM200 666h-67v66v67h67v-67v-66zM200 67h66h67v66h66v67v66h-66h-67 h-66h-67v-66v-67v-66h67z" />
<glyph unicode="&#xe5;" d="M133 399h-66v67v66h66h67h66h67h66h67v-66v-67h66v-66v-67v-66v-67v-66v-67h-66h-67h-66h-67h-66h-67h-66v67v66v67v66h66v67h67h66h67h66v66v67h-66h-67h-66h-67v-67zM333 599h-67v67h-66v66v67h66v-67h67v67h66v-67v-66h-66v-67zM200 67h66h67v66h66v67v66h-66h-67h-66 h-67v-66v-67v-66h67z" />
<glyph unicode="&#xe6;" horiz-adv-x="998" d="M865 0h-66h-67h-66h-67h-67v67h-66h-67v-67h-66h-67h-66h-67h-66v67v66v67v66h66v67h67h66h67h66v66v67h-66h-67h-66v-67h-67h-66v67h66v66h67h66h67h66h67v-66h66v66h67h67h66h67h66v-66h67v-67v-66v-67h-67h-66h-67h-66h-67h-67v-66v-67h67v-66h67h66h67v66h66h67v-66 h-67v-67zM200 67h66h67v66h66v67v66h-66h-67h-66h-67v-66v-67v-66h67zM732 333h67h66v66h-66v67h-67h-66h-67v-67h-67v-66h67h67h66z" />
<glyph unicode="&#xe7;" d="M399 -266h-66h-67v66h67v67h-67v66v67h-66h-67v67h-66v66v67v66v67v66v67h66v66h67h66h67h66h67v-66h66v-67h-66h-67v67h-66h-67h-66v-67h-67v-66v-67v-66v-67h67v-66h66h67h66v66h67h66v-66h-66v-67h-67h-66v-67h66v-66v-67v-66z" />
<glyph unicode="&#xe8;" d="M239 660l-62 -22l-23 63l62 23zM593 81l-63 -23l-62 -23l-62 -23l-63 -22l-62 -23l-23 63l-62 -23l-23 63l-23 62l-23 62l-23 63l-23 62l-23 63l63 23l-23 62l62 23l63 23l62 23l62 22l63 23l23 -62l62 23l23 -63l23 -62l23 -62l-63 -23l-62 -23l-63 -23l-62 -23l-62 -23 l-63 -23l23 -62l23 -62l62 22l23 -63l63 23l62 23l63 23l-23 63l62 23l62 23l23 -64l-62 -22zM354 348l62 23l62 23l-22 63l-63 -23l-23 62l-62 -23l-63 -23l-62 -23l23 -62l-62 -23l22 -62l63 23l62 23zM131 763l23 -62l-62 -23l-23 62z" />
<glyph unicode="&#xe9;" d="M586 74l-64 -21l-63 -22l-63 -21l-63 -21l-64 -21l-20 63l-64 -22l-21 64l-22 62l-20 64l-22 63l-21 62l-22 64l64 21l-22 63l63 22l64 21l62 22l64 20l63 22l21 -63l63 21l21 -63l22 -63l21 -63l-63 -21l-63 -22l-64 -21l-62 -22l-63 -21l-64 -22l22 -62l21 -63l63 21 l22 -63l62 22l64 21l62 21l-21 63l64 22l62 21l22 -63l-63 -22zM353 347l62 21l63 22l-20 62l-64 -20l-22 62l-62 -21l-64 -22l-62 -20l21 -64l-64 -21l22 -63l64 22l62 21zM309 683l-64 -21l-62 -21l-22 63l64 21l-22 63l63 22l21 -63z" />
<glyph unicode="&#xea;" d="M303 683l-63 -22l-23 63l63 23zM177 639l-63 -23l-22 62l62 23zM593 81l-63 -23l-63 -23l-62 -23l-63 -22l-62 -23l-23 63l-63 -23l-22 63l-23 62l-23 62l-23 63l-22 62l-23 64l63 22l-23 63l62 22l63 23l62 23l62 22l64 23l22 -62l63 23l22 -63l23 -63l23 -62l-63 -23 l-62 -22l-63 -23l-62 -23l-62 -23l-64 -23l23 -62l23 -62l62 22l23 -63l63 23l63 23l63 23l-23 62l62 23l62 23l23 -63l-62 -22zM354 348l62 23l62 23l-22 63l-63 -23l-23 62l-62 -23l-63 -23l-62 -23l23 -62l-62 -23l22 -62l63 23l62 23zM194 786l23 -62l-63 -23l-22 62z " />
<glyph unicode="&#xeb;" d="M177 638l-63 -23l-22 62l-23 62l62 23l23 -62zM593 82l-63 -23l-62 -23l-62 -24l-63 -22l-62 -23l-23 62l-62 -23l-23 64l-23 62l-23 62l-23 63l-23 62l-23 63l63 23l-23 62l62 23l63 23l62 23l62 22l63 23l23 -62l62 23l23 -63l23 -62l23 -62l-63 -23l-62 -23l-63 -23 l-62 -23l-62 -23l-63 -23l23 -62l23 -62l62 22l23 -62l63 23l62 23l63 23l-23 62l62 23l62 23l24 -63l-63 -22zM354 348l62 23l62 23l-22 63l-63 -23l-23 62l-62 -23l-63 -23l-62 -23l23 -62l-62 -23l22 -62l63 23l62 23zM364 706l-62 -23l-63 -23l-23 63l-23 63l63 23 l23 -63l62 24z" />
<glyph unicode="&#xec;" horiz-adv-x="266" d="M133 666h-66v66h-67v67h67h66v-67v-66zM200 0h-67h-66v67v66v67v66v67v66v67v66h66h67v-66v-67v-66v-67v-66v-67v-66v-67z" />
<glyph unicode="&#xed;" horiz-adv-x="266" d="M200 666h-67v66v67h67v-67v-66zM200 0h-67h-66v67v66v67v66v67v66v67v66h66h67v-66v-67v-66v-67v-66v-67v-66v-67z" />
<glyph unicode="&#xee;" horiz-adv-x="332" d="M67 666h-67v66h67v-66zM200 0h-67h-66v67v66v67v66v67v66v67v66h66h67v-66v-67v-66v-67v-66v-67v-66v-67zM266 666h-66h-67v66h-66v67h66h67v-67h66v-66z" />
<glyph unicode="&#xef;" horiz-adv-x="332" d="M67 666h-67v66v67h67v-67v-66zM200 0h-67h-66v67v66v67v66v67v66v67v66h66h67v-66v-67v-66v-67v-66v-67v-66v-67zM266 666h-66h-67v66v67h67v-67h66v-66z" />
<glyph unicode="&#xf0;" horiz-adv-x="665" d="M466 0h-67h-66h-67h-66h-67v67h-66v66v67v66v67v66h66v67h67v66v67v67v66h66h67h66h67v-66v-67v-67h66v-66v-67h67v-66v-67v-66h-67v-67v-66h-66v-67zM266 67h67h66v66h67v67v66v67v66h-67h-66v67h-67v-67h-66v-66h-67v-67v-66v-67h67v-66h66zM266 532h67h66v67h-66h-67 v-67z" />
<glyph unicode="&#xf1;" d="M532 0h-66v67v66v67v66v67v66h-67v67h-66h-67h-66v-67v-66h-67v-67v-66v-67v-66v-67h-66v67v66v67v66v67v66v67v66h66h67h66h67h66h67v-66h66v-67v-66v-67v-66v-67v-66v-67zM466 666h-67h-66h-67h-66h-67v66h67v67h66h67v-67h66v67h67v-67v-66z" />
<glyph unicode="&#xf2;" horiz-adv-x="665" d="M333 666h-67v66h-66v67h66h67v-67v-66zM466 0h-67h-66h-67h-66h-67v67h-66v66v67v66v67v66v67h66v66h67h66h67h66h67v-66h-67h-66h-67h-66v-67h-67v-66v-67v-66v-67h67v-66h66h67h66v66h67v67h66v66v67h-66v66v67h66v-67h67v-66v-67v-66v-67h-67v-66h-66v-67z" />
<glyph unicode="&#xf3;" horiz-adv-x="665" d="M466 0h-67h-66h-67h-66h-67v67h-66v66v67v66v67v66v67h66v66h67h66h67h66h67v-66h-67h-66h-67h-66v-67h-67v-66v-67v-66v-67h67v-66h66h67h66v66h67v67h66v66v67h-66v66v67h66v-67h67v-66v-67v-66v-67h-67v-66h-66v-67zM399 666h-66h-67v66h67v67h66v-67v-66z" />
<glyph unicode="&#xf4;" horiz-adv-x="665" d="M399 666h-66v66h-67v-66h-66v66h66v67h67h66v-67v-66zM466 0h-67h-66h-67h-66h-67v67h-66v66v67v66v67v66v67h66v66h67h66h67h66h67v-66h-67h-66h-67h-66v-67h-67v-66v-67v-66v-67h67v-66h66h67h66v66h67v67h66v66v67h-66v66v67h66v-67h67v-66v-67v-66v-67h-67v-66h-66 v-67z" />
<glyph unicode="&#xf5;" horiz-adv-x="665" d="M466 0h-67h-66h-67h-66h-67v67h-66v66v67v66v67v66v67h66v66h67h66h67h66h67v-66h-67h-66h-67h-66v-67h-67v-66v-67v-66v-67h67v-66h66h67h66v66h67v67h66v66v67h-66v66v67h66v-67h67v-66v-67v-66v-67h-67v-66h-66v-67zM466 666h-67h-66h-67h-66h-67v66h67v67h66h67v-67 h66v67h67v-67v-66z" />
<glyph unicode="&#xf6;" horiz-adv-x="665" d="M266 666h-66v66v67h66v-67v-66zM466 0h-67h-66h-67h-66h-67v67h-66v66v67v66v67v66v67h66v66h67h66h67h66h67v-66h-67h-66h-67h-66v-67h-67v-66v-67v-66v-67h67v-66h66h67h66v66h67v67h66v66v67h-66v66v67h66v-67h67v-66v-67v-66v-67h-67v-66h-66v-67zM466 666h-67h-66 v66h66v67h67v-67v-66z" />
<glyph unicode="&#xf7;" d="M333 0h-67v67h-66v66h66h67v-66v-67zM333 399h-67v67h-66v66h66h67v-66v-67zM399 333h67h66v-67h-66h-67h-66h-67h-66h-67h-66v67h66h67h66h67h66z" />
<glyph unicode="&#xf8;" horiz-adv-x="665" d="M466 0h-67h-66h-67h-66h-67v67h-66v66v67v66v67v66v67h66v66h67h66h67h66h67h66v-66v-67h67v-66v-67v-66v-67h-67v-66h-66v-67zM266 67h67h66v66h67v67h66v66v67h-66v66h-67v-66v-67h-66v-66h-67v66v67h67v66h66v67h-66h-67h-66v-67h-67v-66v-67v-66v-67h67v67h66v-67 v-66z" />
<glyph unicode="&#xf9;" d="M532 0h-66h-67h-66h-67h-66h-67v67h-66v66v67v66v67v66v67v66h66v-66v-67v-66v-67v-66v-67h67v-66h66h67h66v66v67h67v66v67v66v67v66h66v-66v-67v-66v-67v-66v-67v-66v-67zM333 666h-67h-66v66v67h66v-67h67v-66z" />
<glyph unicode="&#xfa;" d="M333 666h-67v66h67v-66zM532 0h-66h-67h-66h-67h-66h-67v67h-66v66v67v66v67v66v67v66h66v-66v-67v-66v-67v-66v-67h67v-66h66h67h66v66v67h67v66v67v66v67v66h66v-66v-67v-66v-67v-66v-67v-66v-67zM399 732h-66v67h66v-67z" />
<glyph unicode="&#xfb;" d="M399 666h-66v66h66v-66zM266 666h-66v66h66v-66zM532 0h-66h-67h-66h-67h-66h-67v67h-66v66v67v66v67v66v67v66h66v-66v-67v-66v-67v-66v-67h67v-66h66h67h66v66v67h67v66v67v66v67v66h66v-66v-67v-66v-67v-66v-67v-66v-67zM333 799v-67h-67v67h67z" />
<glyph unicode="&#xfc;" d="M399 666h-66v66v67h66v-67v-66zM532 0h-66h-67h-66h-67h-66h-67v67h-66v66v67v66v67v66v67v66h66v-66v-67v-66v-67v-66v-67h67v-66h66h67h66v66v67h67v66v67v66v67v66h66v-66v-67v-66v-67v-66v-67v-66v-67zM266 666h-66h-67v66h67v67h66v-67v-66z" />
<glyph unicode="&#xfd;" d="M200 -200h-67v67h67v-67zM333 666h-67v66v67h67v-67v-66zM266 -133h-66v66v67v67v66v67h-67v66v67h-66v66v67h-67v66h67h66v-66v-67h67v-66v-67h66v-66h67v66v67h66v66v67v66h67h66v-66h-66v-67v-66v-67h-67v-66v-67h-66v-66v-67h-67v-67v-66z" />
<glyph unicode="&#xfe;" horiz-adv-x="665" d="M133 -200h-66v67v66v67v67v66v67v66v67v66v67v66v67v67v66v67h66v-67v-66v-67v-67h67h66h67h66h67h66v-66v-67h67v-66v-67v-66v-67h-67v-66h-66v-67h-67h-66h-67h-66v67h-67v-67v-67v-66v-67zM266 67h67h66v66h67v67h66v66v67h-66v66v67h-67h-66h-67h-66v-67v-66h-67v-67 v-66h67v-67v-66h66z" />
<glyph unicode="&#xff;" d="M200 -200h-67v67h67v-67zM399 666h-66v66v67h66v-67v-66zM200 666h-67v66v67h67v-67v-66zM266 -133h-66v66v67v67v66v67h-67v66v67h-66v66v67h-67v66h67h66v-66v-67h67v-66v-67h66v-66h67v66v67h66v66v67v66h67h66v-66h-66v-67v-66v-67h-67v-66v-67h-66v-66v-67h-67v-67 v-66z" />
<glyph unicode="&#x152;" horiz-adv-x="998" d="M932 0h-67h-66h-67v67h-66h-67v66h67v67h66v66v67v66v67v66h-66v67h-67v67h-67h-66h-67h-66h-67v-67h-66v-67h-67v-66v-67v-66v-67h67v-66v-67h66h67v-66h66h67h66h67v-67h-67h-66h-67h-66h-67v67h-66h-67v66v67h-66v66v67v66v67v66v67h66v67h67v66h66h67v67h66h67h66 v-67h67h67v-66h66v66h67v67h66h67v-67v-66h-67h-66v-67v-67v-66h66v-67h67v-66h-67h-66v-67v-66v-67h66v-66h67v-67z" />
<glyph unicode="&#x153;" horiz-adv-x="998" d="M932 399h-67v67h-66h-67h-66v-67h-67v-66h67h66h67h66h-37v-67h37h-66h-67h-66h-67v-66v-67h67v-66h66h67h66v66h67v-66v-67h-67h-66h-67h-66h-67v67h-67h-66v-67h-67h-66h-67h-66h-67v67h-66v66v67v66v67v66v67h66v66h67h66h67h66h67v-66h-67h-66h-67h-66v-67h-67v-66 v-67v-66v-67h67v-66h66h67h66v66h67v67h66v66v67h-66v66v67h66h67v66h67h66h67h66h67v-66v-67z" />
<glyph unicode="&#x178;" horiz-adv-x="665" d="M399 0h-66h-67v67v66v67v66v67v66h-66v67v66h-67v67h-66v67v66h66v-66h67v-67h66v-67v-66h67v66h66v67v67h67v66h66v67h67v-67v-66h-67v-67h-66v-67v-66h-67v-67v-66v-67v-66v-67v-66v-67z" />
<glyph unicode="&#x2000;" horiz-adv-x="405" />
<glyph unicode="&#x2001;" horiz-adv-x="810" />
<glyph unicode="&#x2002;" horiz-adv-x="405" />
<glyph unicode="&#x2003;" horiz-adv-x="810" />
<glyph unicode="&#x2004;" horiz-adv-x="270" />
<glyph unicode="&#x2005;" horiz-adv-x="202" />
<glyph unicode="&#x2006;" horiz-adv-x="135" />
<glyph unicode="&#x2007;" horiz-adv-x="135" />
<glyph unicode="&#x2008;" horiz-adv-x="101" />
<glyph unicode="&#x2009;" horiz-adv-x="162" />
<glyph unicode="&#x200a;" horiz-adv-x="45" />
<glyph unicode="&#x2010;" horiz-adv-x="465" d="M399 266h-66h-67h-66h-67h-66v67v66h66h67h66h67h66v-66v-67z" />
<glyph unicode="&#x2011;" horiz-adv-x="465" d="M399 266h-66h-67h-66h-67h-66v67v66h66h67h66h67h66v-66v-67z" />
<glyph unicode="&#x2012;" horiz-adv-x="465" d="M399 266h-66h-67h-66h-67h-66v67v66h66h67h66h67h66v-66v-67z" />
<glyph unicode="&#x2013;" horiz-adv-x="645" d="M579 266h-102h-103h-102h-103h-102v67v66h102h103h102h103h102v-66v-67z" />
<glyph unicode="&#x2014;" horiz-adv-x="1157" d="M1091 266h-204h-206h-204h-206h-204v67v66h204h206h204h206h204v-66v-67z" />
<glyph unicode="&#x202f;" horiz-adv-x="162" />
<glyph unicode="&#x205f;" horiz-adv-x="202" />
<glyph unicode="&#x25fc;" horiz-adv-x="530" d="M0 530h530v-530h-530v530z" />
</font>
</defs>
</svg>
