<?xml version="1.0" standalone="no"?>
<!DOCTYPE svg PUBLIC "-//W3C//DTD SVG 1.1//EN" "http://www.w3.org/Graphics/SVG/1.1/DTD/svg11.dtd" >
<svg>
<metadata>
Created by FontForge 20090914 at Tue Nov 23 03:52:37 2021
 By www-data
Copyright (c) ShyFonts Type Foundry, 2000. All rights reserved.
</metadata>
<defs>
<font id="SFNewRepublicSC" horiz-adv-x="512" >
  <font-face 
    font-family="SF New Republic SC"
    font-weight="400"
    font-stretch="normal"
    units-per-em="2048"
    panose-1="0 0 4 0 0 0 0 0 0 0"
    ascent="1638"
    descent="-410"
    x-height="1229"
    cap-height="1365"
    bbox="-84 -340 2526 1707"
    underline-thickness="20"
    underline-position="-123"
    unicode-range="U+0020-U+02DA"
  />
<missing-glyph horiz-adv-x="1024" 
 />
    <glyph glyph-name=".notdef" horiz-adv-x="1024" 
 />
    <glyph glyph-name="space" unicode=" " horiz-adv-x="597" 
 />
    <glyph glyph-name="exclam" unicode="!" 
d="M171 0v171h170v-171h-170zM307 341h-102l-34 1024h170z" />
    <glyph glyph-name="quotedbl" unicode="&#x22;" horiz-adv-x="768" 
d="M222 1109v34h68v52h-119v170h170v-256h-119zM478 1109v34h68v52h-119v170h170v-256h-119z" />
    <glyph glyph-name="numbersign" unicode="#" horiz-adv-x="1126" 
d="M485 1058l-14 -171h171l13 171h-170zM766 751l-15 -171h-137l16 171h-171l-15 -171h-137l16 171h-152v136h164l13 171h-177v137h189l15 170h137l-15 -170h170l16 170h136l-15 -170h152v-137h-164l-14 -171h178v-136h-190z" />
    <glyph glyph-name="dollar" unicode="$" horiz-adv-x="947" 
d="M440 1101c-37.333 -9.33301 -68.667 -29.001 -94 -59.001c-24.667 -29.333 -37 -63.666 -37 -102.999c0 -74 43.667 -131 131 -171v333zM639.999 427.999c0 72 -44.333 127.999 -133 167.999v-331c19.333 4 37.166 11.167 53.499 21.5s30.333 22.833 42 37.5
s20.834 30.834 27.501 48.501s10 36.167 10 55.5zM776.999 427.998c0 -76.667 -25.999 -143.332 -77.999 -199.999c-52 -57.333 -116 -91.333 -192 -102v-126h-67v125c-66 4.66699 -124.667 30.334 -176 77.001c-50 46 -81 102 -93 168l133 36
c12.667 -82.667 58 -131 136 -145v362c-91.333 34.667 -156 71 -194 109c-50 50 -75 119 -75 207c0 75.333 25.667 141.666 77 198.999c52.667 57.333 116.667 91 192 101v126h67v-124c67.333 -6 126 -32 176 -78c49.333 -45.333 80.666 -102 93.999 -170l-135 -34
c-10.667 83.333 -55.667 131.666 -135 144.999v-363c93.333 -37.333 158 -73.333 194 -108c50.667 -48.667 76 -117 76 -205z" />
    <glyph glyph-name="percent" unicode="%" horiz-adv-x="1809" 
d="M1553 358c0 50.667 -18.667 94.667 -56 132s-81.333 56 -132 56s-94.667 -18.667 -132 -56c-36.667 -36.667 -55 -80.667 -55 -132s18.333 -95.333 55 -132s80.667 -55 132 -55s95.333 18.333 132 55c37.333 37.333 56 81.333 56 132zM631 1007
c0 51.333 -18.334 95.333 -55.001 132c-37.333 37.333 -81.333 56 -132 56c-51.333 0 -95.666 -18.667 -132.999 -56c-36.667 -36.667 -55 -80.667 -55 -132c0 -52 18.333 -96.333 55 -133s81 -55 133 -55c51.333 0 95.333 18.333 132 55s55 81 55 133zM560.999 0h-203
l890 1365h203zM801.999 1007c0 -98 -35.333 -182.333 -106 -253c-70 -70 -154 -105 -252 -105s-182.333 35 -253 105c-70.667 70.667 -106 155 -106 253s35.333 182 106 252c70.667 70.667 155 106 253 106s182 -35.333 252 -106c70.667 -70 106 -154 106 -252zM1724 358
c0 -97.333 -35.333 -181.333 -106 -252s-155 -106 -253 -106c-97.333 -0 -181.333 35.333 -252 106s-106 154.667 -106 252c0 98 35.333 182.333 106 253s154.667 106 252 106c98 0 182.333 -35.333 253 -106s106 -155 106 -253z" />
    <glyph glyph-name="ampersand" unicode="&#x26;" horiz-adv-x="1178" 
d="M751 666l-154 0.000976562c-69.333 0 -129.333 -25.333 -180 -76s-76 -110.667 -76 -180c0 -66.667 17.333 -124.334 52 -173.001c39.333 -55.333 90.333 -83 153 -83c54 0 101.667 17.667 143 53c41.333 36 62 80.667 62 134v325zM922 666.001l0.000976562 -325
c0 -100 -37.333 -184.333 -112 -253s-162.667 -103 -264 -103c-110 0 -201.667 43.667 -275 131c-66.667 82.667 -100 180.667 -100 294c0 75.333 19.333 143.333 58 204c38.667 62 91.334 109.333 158.001 142c-98.667 60.667 -148 150 -148 268c0 98.667 35 183 105 253
s154.333 105 253 105c80.667 0 153.667 -25 219 -75c64 -49.333 106.667 -113 128 -191l-166 -44c-10.667 40 -33.334 73.333 -68.001 100c-32.667 26.667 -70.334 40 -113.001 40c-50.667 0 -94.667 -18.667 -132 -56c-36.667 -36.667 -55 -80.667 -55 -132
c0 -52 18.333 -96.333 55 -133s80.667 -55 132 -55h410v-170h-85z" />
    <glyph glyph-name="quotesingle" unicode="'" 
d="M222 1109v34h68v52h-119v170h170v-256h-119z" />
    <glyph glyph-name="parenleft" unicode="(" horiz-adv-x="717" 
d="M375 -169c-38.667 75.333 -71.334 147 -98.001 215s-47.334 133 -62.001 195c-29.333 125.333 -44 272.666 -44 441.999s14.667 316.333 44 441c14.667 62 35.334 127.167 62.001 195.5s59.334 140.5 98.001 216.5h171c-77.333 -151.333 -131 -288.666 -161 -411.999
c-29.333 -124.667 -44 -271.667 -44 -441s14.667 -316.666 44 -441.999c30 -122.667 83.667 -259.334 161 -410.001h-171z" />
    <glyph glyph-name="parenright" unicode=")" horiz-adv-x="717" 
d="M546 683c0 -170.667 -15 -317.999 -45 -441.999c-14.667 -62 -35.334 -127 -62.001 -195s-59.334 -139.667 -98.001 -215h-170c38.667 75.333 71.334 147 98.001 215s47.334 133 62.001 195c29.333 125.333 44 272.666 44 441.999s-14.667 316.333 -44 441
c-14.667 62 -35.334 127.167 -62.001 195.5s-59.334 140.5 -98.001 216.5h170c38.667 -76 71.334 -148.167 98.001 -216.5s47.334 -133.5 62.001 -195.5c30 -123.333 45 -270.333 45 -441z" />
    <glyph glyph-name="asterisk" unicode="*" horiz-adv-x="922" 
d="M751 913c0 -45.333 -22.666 -67.999 -67.999 -67.999c-8.66699 0 -19 2.33301 -31 7l-176 163l53 -233c-5.33301 -43.333 -28 -65 -68 -65c-38 0 -60.667 21.667 -68 65l52 233l-175 -163c-10 -4.66699 -20.333 -7 -31 -7c-19.333 0 -35.5 6.5 -48.5 19.5
s-19.5 29.167 -19.5 48.5c0 21.333 10 40.666 30 57.999l231 70l-231 70c-20 16 -30 35.333 -30 58c0 45.333 22.667 68 68 68c7.33301 0 17.666 -2 30.999 -6l175 -164l-52 233c5.33301 43.333 28 65 68 65c38 0 60.667 -21.667 68 -65l-53 -233l176 164
c10.667 4 21 6 31 6c19.333 0 35.5 -6.5 48.5 -19.5s19.5 -29.167 19.5 -48.5c0 -22 -10.333 -41.333 -31 -58l-230 -70l230 -70c20.667 -16 31 -35.333 31 -58z" />
    <glyph glyph-name="plus" unicode="+" horiz-adv-x="853" 
d="M495 614v-187h-137v187h-187v137h187v188h137v-188h188v-137h-188z" />
    <glyph glyph-name="comma" unicode="," 
d="M222 -84v35h68v49h-119v171h170v-255h-119z" />
    <glyph glyph-name="hyphen" unicode="-" horiz-adv-x="853" 
d="M171 614v137h512v-137h-512z" />
    <glyph glyph-name="period" unicode="." 
d="M171 0v171h170v-171h-170z" />
    <glyph glyph-name="slash" unicode="/" horiz-adv-x="744" 
d="M160 -147l-160 58l584 1603l160 -58z" />
    <glyph glyph-name="zero" unicode="0" horiz-adv-x="1195" 
d="M853 956c0 70.667 -25 131 -75 181s-110.333 75 -181 75c-70 0 -130.333 -25 -181 -75c-50 -50 -75 -110.333 -75 -181v-546c0 -70.667 25 -131 75 -181c50.667 -50 111 -75 181 -75c70.667 0 131 25 181 75s75 110.333 75 181v546zM1024 410
c0 -118 -42 -218.332 -126 -300.999c-82.667 -82.667 -183 -124 -301 -124c-117.333 0 -217.666 41.333 -300.999 124c-83.333 83.333 -125 183.666 -125 300.999v546c0 117.333 41.667 217.666 125 300.999c84.667 83.333 185 125 301 125
c117.333 0 217.666 -41.667 300.999 -125c84 -83.333 126 -183.666 126 -300.999v-546v0z" />
    <glyph glyph-name="one" unicode="1" 
d="M171 0v1365h170v-1365h-170z" />
    <glyph glyph-name="two" unicode="2" horiz-adv-x="1072" 
d="M944 1002c0 -135.333 -52.334 -251.331 -157.001 -347.998l-145 -107l-145 -107c-104.667 -80.667 -156.667 -170.334 -156 -269.001h598v-171h-768v171c0 136.667 51.667 253.667 155 351l145 104l145 106c103.333 81.333 155 171.333 155 270
c0 58 -21.333 107.333 -64 148c-43.333 41.333 -93.666 62 -150.999 62c-52.667 0 -97.667 -17.333 -135 -52c-37.333 -35.333 -59.333 -79 -66 -131l-167 43c17.333 90.667 60 164.667 128 222c68.667 58.667 148.667 88 240 88c106 0 197 -37 273 -111
c76.667 -72.667 115 -162.334 115 -269.001z" />
    <glyph glyph-name="three" unicode="3" horiz-adv-x="1138" 
d="M968 410c0 -118 -41.998 -218.332 -125.998 -300.999c-82.667 -82.667 -183 -124 -301 -124c-96.667 0 -183.334 29.333 -260.001 88s-127.667 135 -153 229l166 43c15.333 -56 45.666 -102 90.999 -138c46.667 -35.333 98.667 -53 156 -53c70.667 0 131 25 181 75
s75 110.333 75 181c0 70 -25 130 -75 180c-50 50.667 -110.333 76 -181 76h-85v170h85c51.333 0 95.333 18.333 132 55c37.333 37.333 56 81.666 56 132.999c0 50.667 -18.667 94.667 -56 132s-81.333 56 -132 56c-42.667 0 -80.667 -13.333 -114 -40
c-34 -26.667 -56.333 -60 -67 -100l-165 44c20 79.333 62.333 143.333 127 192c65.333 49.333 138.333 74 219 74c98.667 0 183 -35 253 -105s105 -154.333 105 -253c0 -118 -49.333 -207.333 -148 -268c144.667 -70.667 217 -186 217 -346z" />
    <glyph glyph-name="four" unicode="4" horiz-adv-x="1007" 
d="M666 0v341h-666l326 895l160 -58l-242 -666h422v853h170v-1365h-170z" />
    <glyph glyph-name="five" unicode="5" horiz-adv-x="1145" 
d="M1017 444c0 -122.667 -39.668 -229.666 -119.001 -320.999c-83.333 -92 -185.666 -138 -306.999 -138c-98.667 0 -185.667 28.333 -261 85c-76 58 -126.333 134.333 -151 229l164 44c16 -56.667 46.333 -102.334 91 -137.001s97 -52 157 -52c74.667 0 136.667 30 186 90
c46.667 56.667 70 123.334 70 200.001c0 75.333 -24 142.666 -72 201.999c-48 58.667 -109.333 88 -184 88c-60 0 -112.333 -17.333 -157 -52c-44.667 -34 -75 -79.333 -91 -136l-172 48l59 771h702v-170h-543l-32 -389c67.333 66.667 155 100 263 100
c116 0 212.667 -49 290 -147c71.333 -92.667 107 -197.667 107 -315z" />
    <glyph glyph-name="six" unicode="6" horiz-adv-x="1109" 
d="M853 410c0 70 -25 130 -75 180c-50 50.667 -110.333 76 -181 76c-70 0 -130.333 -25.333 -181 -76c-50 -50 -75 -110 -75 -180c0 -70.667 25 -131 75 -181c50.667 -50 111 -75 181 -75c70.667 0 131 25 181 75s75 110.333 75 181zM1024 410
c0 -118 -42.001 -218.332 -126.001 -300.999c-82.667 -82.667 -183 -124 -301 -124c-117.333 0 -217.666 41.333 -300.999 124c-83.333 83.333 -125 183.666 -125 300.999c0 34.667 5 71.667 15 111l225 844h178l-159 -588c58.667 38.667 120.667 58 186 58
c111.333 0 207 -42.667 287 -128c80.667 -84.667 121 -183.667 121 -297z" />
    <glyph glyph-name="seven" unicode="7" horiz-adv-x="939" 
d="M302 0h-189l558 1195h-586v170h854z" />
    <glyph glyph-name="eight" unicode="8" horiz-adv-x="1195" 
d="M785 1024c0 50.667 -18.667 94.668 -56 132.001s-81.333 56 -132 56s-94.667 -18.667 -132 -56c-36.667 -36.667 -55 -80.667 -55 -132c0 -52 18.333 -96.333 55 -133s80.667 -55 132 -55s95.333 18.333 132 55c37.333 37.333 56 81.666 56 132.999zM853 410.001
c0 70 -25 130 -75 180c-50 50.667 -110.333 76 -181 76c-70 0 -130.333 -25.333 -181 -76c-50 -50 -75 -110 -75 -180c0 -70.667 25 -131 75 -181c50.667 -50 111 -75 181 -75c70.667 0 131 25 181 75s75 110.333 75 181zM1024 410.001
c0 -118 -42.001 -218.332 -126.001 -300.999c-82.667 -82.667 -183 -124 -301 -124c-117.333 0 -217.666 41.333 -300.999 124c-83.333 83.333 -125 183.666 -125 300.999c0 159.333 72 274.666 216 345.999c-98.667 60.667 -148 150 -148 268c0 98.667 35 183 105 253
s154.333 105 253 105c99.333 0 184 -35 254 -105s105 -154.333 105 -253c0 -117.333 -49.667 -206.666 -149 -267.999c144.667 -70.667 217 -186 217 -346z" />
    <glyph glyph-name="nine" unicode="9" horiz-adv-x="1109" 
d="M768 956c0 70.667 -25 131 -75 181s-110.333 75 -181 75s-131 -25 -181 -75s-75 -110.333 -75 -181s25 -131 75 -181s110.333 -75 181 -75s131 25 181 75s75 110.333 75 181zM939 956c0 -36 -5.33301 -73 -16 -111l-225 -845h-177l158 589
c-58.667 -38.667 -120.667 -58 -186 -58c-110.667 0 -206.667 42.667 -288 128c-80 84.667 -120 183.667 -120 297c0 117.333 41.667 217.666 125 300.999c84.667 83.333 185.334 125 302.001 125c117.333 0 217.666 -41.667 300.999 -125
c84 -83.333 126 -183.666 126 -300.999z" />
    <glyph glyph-name="colon" unicode=":" 
d="M171 0v171h170v-171h-170zM171 768v171h170v-171h-170z" />
    <glyph glyph-name="semicolon" unicode=";" 
d="M171 768v171h170v-171h-170zM222 -84v35h68v49h-119v171h170v-255h-119z" />
    <glyph glyph-name="less" unicode="&#x3c;" horiz-adv-x="657" 
d="M341 341l-170 342l170 341h145l-170 -341l170 -342h-145z" />
    <glyph glyph-name="equal" unicode="=" horiz-adv-x="939" 
d="M171 495v136h597v-136h-597zM171 734v136h597v-136h-597z" />
    <glyph glyph-name="greater" unicode="&#x3e;" horiz-adv-x="657" 
d="M316 341h-145l170 342l-170 341h145l170 -341z" />
    <glyph glyph-name="question" unicode="?" horiz-adv-x="1097" 
d="M171 0v171h170v-171h-170zM927 1002c0 -136.667 -50.668 -238.666 -152.001 -305.999l-140 -64l-142 -64c-101.333 -47.333 -152 -115 -152 -203v-24h-170v24c0 134 50.667 234.667 152 302l139.5 64l139.5 64c101.333 49.333 152 118.333 152 207
c0 58 -21.333 107.333 -64 148c-43.333 41.333 -93.666 62 -150.999 62c-52.667 0 -97.667 -17.333 -135 -52c-37.333 -35.333 -59.333 -79 -66 -131l-167 43c17.333 90.667 60 164.667 128 222c68.667 58.667 148.667 88 240 88c106 0 197 -37 273 -111
c76.667 -72.667 115 -162.334 115 -269.001z" />
    <glyph glyph-name="at" unicode="@" horiz-adv-x="1570" 
d="M940 712c0 20 -3.33301 38.333 -10 55s-16 31.167 -28 43.5s-26.333 22 -43 29s-35 10.5 -55 10.5c-51.333 0 -97.333 -20.333 -138 -61c-40 -40 -60 -85.667 -60 -137c0 -20 3.5 -38.333 10.5 -55s16.5 -31.167 28.5 -43.5s26.5 -21.833 43.5 -28.5s35.5 -10 55.5 -10
c50 0 95 20.333 135 61c40.667 40.667 61 86 61 136zM1485 683c0 -142 -32.3311 -257.665 -96.998 -346.998c-74 -102 -179 -153 -315 -153c-48.667 0 -92 19 -130 57s-57 81.333 -57 130v13c0 4 0.333008 7.66699 1 11c-56.667 -32.667 -116.667 -49 -180 -49
c-80.667 0 -146.334 26.333 -197.001 79c-51.333 53.333 -77 119.666 -77 198.999c0 102.667 39.667 194.667 119 276c80 81.333 171.333 122 274 122c62.667 0 116.667 -16.667 162 -50l9 39h153l-100 -570c-2.66699 -10.667 -4 -19 -4 -25c0 -46 17 -69 51 -69
c76.667 0 134.667 39 174 117c28.667 58 43 131.333 43 220c0 144 -52 268 -156 372c-104 104.667 -228.333 157 -373 157s-269 -52.333 -373 -157c-104 -104 -156 -228 -156 -372c0 -144.667 52 -269 156 -373s228.333 -156 373 -156v-169c-192 0 -356.667 68.333 -494 205
c-137.333 137.333 -206 301.666 -206 492.999c0 190.667 68.667 354.667 206 492c138 138 302.667 207 494 207s355.666 -69 492.999 -207c138 -137.333 207 -301.333 207 -492z" />
    <glyph glyph-name="A" unicode="A" horiz-adv-x="1229" 
d="M614 1188l-278 -761h555zM1046 0l-94 256h-677l-94 -256h-181l497 1365h235l497 -1365h-183z" />
    <glyph glyph-name="B" unicode="B" horiz-adv-x="1451" 
d="M1075 981c0 58 -21 108 -63 150c-42 42.667 -92 64 -150 64h-521v-427h521c58 0 108 21 150 63s63 92 63 150zM1109 384c0 58 -21 108 -63 150s-92 63 -150 63h-555v-426h555c58 0 108 21 150 63s63 92 63 150zM1280 384c0 -104.667 -38 -195.001 -114 -271.001
c-75.333 -75.333 -165.333 -113 -270 -113h-725v1365h691c104.667 0 194.667 -38 270 -114c76 -75.333 114 -165.333 114 -270c0 -127.333 -53.667 -224 -161 -290c130 -63.333 195 -165.666 195 -306.999z" />
    <glyph glyph-name="C" unicode="C" horiz-adv-x="1459" 
d="M1231 968c-48.667 74 -113.332 133.334 -193.999 178.001c-79.333 44 -163.333 66 -252 66c-144.667 0 -269 -52.333 -373 -157c-104 -104 -156 -228 -156 -372c0 -144.667 52 -269 156 -373s228.333 -156 373 -156c87.333 0 170.666 21.667 249.999 65
c80.667 44 145.334 103 194.001 177l143 -94c-65.333 -98 -150 -175.333 -254 -232c-104.667 -56.667 -215.667 -85 -333 -85c-192 0 -356.667 68.333 -494 205c-137.333 137.333 -206 301.666 -206 492.999c0 190.667 68.667 354.667 206 492c138 138 302.667 207 494 207
c117.333 0 228.666 -29 333.999 -87s190.333 -136.333 255 -235z" />
    <glyph glyph-name="D" unicode="D" horiz-adv-x="1451" 
d="M1195 683c0 140 -50.333 260.333 -151 361s-221 151 -361 151h-342v-1024h342c140 0 260.333 50.333 361 151s151 221 151 361zM1365 683c0 -188 -67 -349.001 -201 -483.001c-133.333 -133.333 -293.666 -200 -480.999 -200h-512v1365h512
c187.333 0 347.666 -67 480.999 -201c134 -133.333 201 -293.666 201 -480.999z" />
    <glyph glyph-name="E" unicode="E" horiz-adv-x="1195" 
d="M171 0v1365h853v-170h-683v-410h512v-171h-512v-443h683v-171h-853z" />
    <glyph glyph-name="F" unicode="F" horiz-adv-x="1109" 
d="M341 1195v-410h512v-171h-512v-614h-170v1365h853v-170h-683z" />
    <glyph glyph-name="G" unicode="G" horiz-adv-x="1545" 
d="M1231 968c-48.667 74 -113.332 133.001 -193.999 177.001c-78.667 44.667 -162.667 67 -252 67c-144.667 0 -269 -52.333 -373 -157c-104 -104 -156 -228 -156 -372c0 -144.667 52 -269 156 -373s228.333 -156 373 -156c168 0 306.667 68 416 204v239h-416v171h587v-768
h-171v155c-97.333 -113.333 -236 -170 -416 -170c-192 0 -356.667 68.333 -494 205c-137.333 137.333 -206 301.666 -206 492.999c0 190.667 68.667 354.667 206 492c138 138 302.667 207 494 207c117.333 0 228.666 -29 333.999 -87s190.333 -136.333 255 -235z" />
    <glyph glyph-name="H" unicode="H" horiz-adv-x="1365" 
d="M1024 0v597h-683v-597h-170v1365h170v-597h683v597h171v-1365h-171z" />
    <glyph glyph-name="I" unicode="I" 
d="M171 0v1365h170v-1365h-170z" />
    <glyph glyph-name="J" unicode="J" horiz-adv-x="896" 
d="M811 367c0 -105.333 -37.668 -195.668 -113.001 -271.001c-75.333 -74 -165.666 -111 -270.999 -111c-106.667 0 -197.334 37 -272.001 111c-74.667 74.667 -112 165 -112 271h170c0 -59.333 20.667 -109.666 62 -150.999c42.667 -41.333 93.334 -62 152.001 -62
c58 0 108 21 150 63s63 92 63 150v998h171v-998v0z" />
    <glyph glyph-name="K" unicode="K" horiz-adv-x="1237" 
d="M954 0l-563 561l-50 -49v-512h-170v1365h170v-612l613 612h241l-683 -682l683 -683h-241z" />
    <glyph glyph-name="L" unicode="L" horiz-adv-x="1024" 
d="M171 0v1365h170v-1194h683v-171h-853z" />
    <glyph glyph-name="M" unicode="M" horiz-adv-x="1707" 
d="M1365 0v956l-418 -956h-188l-418 956v-956h-170v1365h177l505 -1152l506 1152h177v-1365h-171z" />
    <glyph glyph-name="N" unicode="N" horiz-adv-x="1365" 
d="M1024 0l-683 1051v-1051h-170v1365h170l683 -1051v1051h171v-1365h-171z" />
    <glyph glyph-name="O" unicode="O" horiz-adv-x="1570" 
d="M1314 683c0 144 -52 268 -156 372c-104 104.667 -228.333 157 -373 157s-269 -52.333 -373 -157c-104 -104 -156 -228 -156 -372c0 -144.667 52 -269 156 -373s228.333 -156 373 -156s269 52 373 156s156 228.333 156 373zM1485 683
c0 -192 -68.999 -356.332 -206.999 -492.999c-136.667 -136.667 -301 -205 -493 -205s-356.667 68.333 -494 205c-137.333 137.333 -206 301.666 -206 492.999c0 190.667 68.667 354.667 206 492c138 138 302.667 207 494 207s355.666 -69 492.999 -207
c138 -137.333 207 -301.333 207 -492z" />
    <glyph glyph-name="P" unicode="P" horiz-adv-x="1365" 
d="M1109 981c0 58 -21 108 -63 150c-42 42.667 -92 64 -150 64h-555v-427h555c58 0 108 21 150 63s63 92 63 150zM1280 981c0 -105.333 -37.668 -195.667 -113.001 -271s-165.666 -113 -270.999 -113h-555v-597h-170v1365h725c104.667 0 194.667 -38 270 -114
c76 -75.333 114 -165.333 114 -270z" />
    <glyph glyph-name="Q" unicode="Q" horiz-adv-x="1570" 
d="M1314 683c0 144 -51.999 268 -155.999 372c-104 104.667 -228.333 157 -373 157s-269 -52.333 -373 -157c-104 -104 -156 -228 -156 -372c0 -144.667 52 -269 156 -373s228.333 -156 373 -156c113.333 0 215.666 33.333 306.999 100l-256 256l121 121l256 -256
c67.333 93.333 101 196 101 308zM1468 -118l-252.999 251.001c-126.667 -98.667 -270 -148 -430 -148c-192 0 -356.667 68.333 -494 205c-137.333 137.333 -206 301.666 -206 492.999c0 190.667 68.667 354.667 206 492c138 138 302.667 207 494 207
s355.666 -69 492.999 -207c138 -137.333 207 -301.333 207 -492c0 -160 -50 -303.333 -150 -430l252 -253z" />
    <glyph glyph-name="R" unicode="R" horiz-adv-x="1365" 
d="M1109 981c0 58 -21 108 -63 150c-42 42.667 -92 64 -150 64h-555v-427h555c58 0 108 21 150 63s63 92 63 150zM1082 0l-343 597h-398v-597h-170v1365h725c104.667 0 194.667 -38 270 -114c76 -75.333 114 -165.333 114 -270c0 -98 -33.333 -183.667 -100 -257
c-67.333 -73.333 -149.333 -115 -246 -125l346 -599h-198z" />
    <glyph glyph-name="S" unicode="S" horiz-adv-x="1097" 
d="M927 365c0 -105.333 -38 -195.003 -114 -269.003c-75.333 -74 -166 -111 -272 -111c-90.667 0 -170.667 28.667 -240 86c-68.667 56.667 -112 130.334 -130 221.001l165 44c8 -51.333 31 -94.666 69 -129.999c38.667 -34.667 84 -52 136 -52
c57.333 0 107.666 20.667 150.999 62c42.667 40.667 64 90.334 64 149.001c0 88 -50.667 155.667 -152 203l-140 64l-141 64c-101.333 67.333 -152 169.333 -152 306c0 106 38 195.667 114 269c76 74 167 111 273 111c91.333 0 171.333 -29.333 240 -88
c68.667 -58 111.667 -132 129 -222l-168 -43c-6.66699 52 -28.667 95.667 -66 131c-36.667 34.667 -81.667 52 -135 52c-57.333 0 -107.666 -20.667 -150.999 -62c-42.667 -40.667 -64 -90 -64 -148c0 -88.667 50.667 -157.667 152 -207l280 -126
c101.333 -68 152 -169.333 152 -304z" />
    <glyph glyph-name="T" unicode="T" horiz-adv-x="1109" 
d="M640 1195v-1195h-171v1195h-426v170h1024v-170h-427z" />
    <glyph glyph-name="U" unicode="U" horiz-adv-x="1451" 
d="M1280 538c0 -152.667 -54.333 -283 -163 -391c-109.333 -108 -240 -162 -392 -162s-282.333 54 -391 162s-163 238.333 -163 391v827h170v-827c0 -106 37.667 -196.667 113 -272c74.667 -74.667 165 -112 271 -112s196.333 37.333 271 112c75.333 75.333 113 166 113 272
v827h171v-827v0z" />
    <glyph glyph-name="V" unicode="V" horiz-adv-x="1229" 
d="M732 0h-235l-497 1365h181l433 -1188l432 1188h183z" />
    <glyph glyph-name="W" unicode="W" horiz-adv-x="1792" 
d="M1295 0h-235l-164 451l-164 -451h-235l-497 1365h181l433 -1188l192 524l-243 664h181l152 -414l150 414h183l-243 -665l192 -523l431 1188h183z" />
    <glyph glyph-name="X" unicode="X" horiz-adv-x="1176" 
d="M930 0l-343 526l-341 -526h-203l443 683l-443 682h203l341 -525l343 525h203l-444 -682l444 -683h-203z" />
    <glyph glyph-name="Y" unicode="Y" horiz-adv-x="1005" 
d="M589 657v-657h-171v657l-459 708h201l342 -525l343 525h203z" />
    <glyph glyph-name="Z" unicode="Z" horiz-adv-x="1261" 
d="M85 0l777 1195h-777v170h1091l-777 -1194h777v-171h-1091z" />
    <glyph glyph-name="bracketleft" unicode="[" horiz-adv-x="683" 
d="M171 -169v1705h341v-171h-171v-1365h171v-169h-341z" />
    <glyph glyph-name="backslash" unicode="\" horiz-adv-x="744" 
d="M584 -147l-584 1603l160 58l584 -1603z" />
    <glyph glyph-name="bracketright" unicode="]" horiz-adv-x="683" 
d="M171 -169v169h170v1365h-170v171h341v-1705h-341z" />
    <glyph glyph-name="asciicircum" unicode="^" horiz-adv-x="853" 
d="M597 1195l-170 114l-171 -114h-85l170 170h171l171 -170h-86z" />
    <glyph glyph-name="underscore" unicode="_" horiz-adv-x="683" 
d="M0 -135v135h683v-135h-683z" />
    <glyph glyph-name="grave" unicode="`" horiz-adv-x="683" 
d="M427 1536l-256 171h170l171 -171h-85z" />
    <glyph glyph-name="a" unicode="a" horiz-adv-x="1106" 
d="M553 1068l-251 -684h500zM942 0l-85 230h-610l-85 -230h-162l447 1229h212l447 -1229h-164z" />
    <glyph glyph-name="b" unicode="b" horiz-adv-x="1306" 
d="M968 882c0 52.667 -19.333 98 -58 136c-38 38 -83 57 -135 57h-468v-384h468c51.333 0 96.333 18.667 135 56c38.667 38 58 83 58 135zM998 345c0 52 -19 97 -57 135c-38 38.667 -83 58 -135 58h-499v-384h499c51.333 0 96.333 18.667 135 56c38 36.667 57 81.667 57 135
zM1152 345c0 -94.667 -34.333 -176 -103 -244c-68.667 -67.333 -149.667 -101 -243 -101h-652v1229h621c94 0 175 -34.333 243 -103c68.667 -68 103 -149.333 103 -244c0 -115.333 -48.333 -202.333 -145 -261c117.333 -55.333 176 -147.333 176 -276z" />
    <glyph glyph-name="c" unicode="c" horiz-adv-x="1312" 
d="M1236 271c-57.333 -88 -133.669 -157.667 -229.002 -209c-94.667 -50.667 -194.667 -76 -300 -76c-171.333 0 -319.333 61.667 -444 185c-124 124 -186 271.667 -186 443c0 172 62 320 186 444s272 186 444 186c105.333 0 205.333 -26.333 300 -79
c94.667 -52 171 -122.333 229 -211l-128 -84c-45.333 68 -103.666 121.667 -174.999 161c-71.333 40 -146.666 60 -225.999 60c-130 0 -242 -47 -336 -141s-141 -206 -141 -336c0 -129.333 47 -241 141 -335s206 -141 336 -141c78 0 152.667 19.667 224 59
c70.667 38.667 129 92 175 160l130 -86v0z" />
    <glyph glyph-name="d" unicode="d" horiz-adv-x="1306" 
d="M1075 614c0 126.667 -45.333 235 -136 325c-90 90.667 -198.333 136 -325 136h-307v-921h307c126.667 0 235 45 325 135c90.667 90.667 136 199 136 325zM1229 614c0 -168 -60.333 -312.332 -181 -432.999s-265.334 -181 -434.001 -181h-460v1229h460
c168.667 0 313.334 -60.333 434.001 -181s181 -265.334 181 -434.001z" />
    <glyph glyph-name="e" unicode="e" horiz-adv-x="1075" 
d="M154 0v1229h768v-154h-615v-368h461v-154h-461v-399h615v-154h-768z" />
    <glyph glyph-name="f" unicode="f" horiz-adv-x="998" 
d="M307 1075v-368h461v-154h-461v-553h-153v1229h768v-154h-615z" />
    <glyph glyph-name="g" unicode="g" horiz-adv-x="1389" 
d="M1082 0l-0.00195312 140c-86.667 -102.667 -211.667 -154 -375 -154c-171.333 0 -319.333 61.667 -444 185c-124 124 -186 271.667 -186 443c0 172 62 320 186 444s272 186 444 186c105.333 0 205.333 -26.333 300 -79c94.667 -52 171 -122.333 229 -211l-128 -84
c-45.333 68 -103.666 121.667 -174.999 161c-71.333 40 -146.666 60 -225.999 60c-130 0 -242 -47 -336 -141s-141 -206 -141 -336c0 -129.333 47 -241 141 -335s206 -141 336 -141c152 0 277 61.667 375 185v215h-375v153h529v-691h-154z" />
    <glyph glyph-name="h" unicode="h" horiz-adv-x="1229" 
d="M922 0v538h-615v-538h-153v1229h153v-538h615v538h153v-1229h-153z" />
    <glyph glyph-name="i" unicode="i" horiz-adv-x="461" 
d="M154 0v1229h153v-1229h-153z" />
    <glyph glyph-name="j" unicode="j" horiz-adv-x="806" 
d="M729 329c0 -94.667 -33.999 -175.333 -101.999 -242c-67.333 -67.333 -148.333 -101 -243 -101s-176.334 33.667 -245.001 101c-67.333 67.333 -101 148 -101 242h153c0 -52 19 -97 57 -135c38.667 -37.333 84 -56 136 -56c52.667 0 97.667 18.667 135 56
c37.333 38.667 56 83.667 56 135v900h154v-900v0z" />
    <glyph glyph-name="k" unicode="k" horiz-adv-x="1113" 
d="M858 0l-506 505l-45 -44v-461h-153v1229h153v-551l551 551h217l-614 -615l614 -614h-217z" />
    <glyph glyph-name="l" unicode="l" horiz-adv-x="922" 
d="M154 0v1229h153v-1075h615v-154h-768z" />
    <glyph glyph-name="m" unicode="m" horiz-adv-x="1536" 
d="M1229 0v860l-377 -860h-169l-376 860v-860h-153v1229h160l454 -1038l454 1038h160v-1229h-153z" />
    <glyph glyph-name="n" unicode="n" horiz-adv-x="1229" 
d="M922 0l-615 945v-945h-153v1229h153l615 -946v946h153v-1229h-153z" />
    <glyph glyph-name="o" unicode="o" horiz-adv-x="1413" 
d="M1183 614c0 130 -47 242 -141 336s-205.667 141 -335 141c-130 0 -242 -47 -336 -141s-141 -206 -141 -336c0 -129.333 47 -241 141 -335s206 -141 336 -141c129.333 0 241 47 335 141s141 205.667 141 335zM1336 614c0 -171.333 -61.999 -319 -185.999 -443
c-124.667 -123.333 -272.334 -185 -443.001 -185c-171.333 0 -319.333 61.667 -444 185c-124 124 -186 271.667 -186 443c0 172 62 320 186 444s272 186 444 186c171.333 0 319 -62 443 -186s186 -272 186 -444z" />
    <glyph glyph-name="p" unicode="p" horiz-adv-x="1229" 
d="M998 882c0 52.667 -19 98 -57 136s-83 57 -135 57h-499v-384h499c51.333 0 96.333 18.667 135 56c38 38 57 83 57 135zM1152 882c0 -94 -34.333 -175 -103 -243c-68.667 -67.333 -149.667 -101 -243 -101h-499v-538h-153v1229h652c94 0 175 -34.333 243 -103
c68.667 -68 103 -149.333 103 -244z" />
    <glyph glyph-name="q" unicode="q" horiz-adv-x="1413" 
d="M1183 614c0 130 -47 242 -141 336s-205.667 141 -335 141c-130 0 -242 -47 -336 -141s-141 -206 -141 -336c0 -129.333 47 -241 141 -335s206 -141 336 -141c101.333 0 193.333 30.333 276 91l-230 230l109 109l230 -230c60.667 82.667 91 174.667 91 276zM1321 -106
l-227 225c-113.333 -88.667 -242.333 -133 -387 -133c-171.333 0 -319.333 61.667 -444 185c-124 124 -186 271.667 -186 443c0 172 62 320 186 444s272 186 444 186c171.333 0 319 -62 443 -186s186 -272 186 -444c0 -143.333 -45 -272.333 -135 -387l227 -227z" />
    <glyph glyph-name="r" unicode="r" horiz-adv-x="1229" 
d="M998 882c0 52.667 -19 98 -57 136s-83 57 -135 57h-499v-384h499c51.333 0 96.333 18.667 135 56c38 38 57 83 57 135zM975 0l-309 538h-359v-538h-153v1229h652c94 0 175 -34.333 243 -103c68.667 -68 103 -149.333 103 -244c0 -88 -30.333 -164.667 -91 -230
c-60 -66 -133.667 -103.667 -221 -113l312 -539h-177z" />
    <glyph glyph-name="s" unicode="s" horiz-adv-x="988" 
d="M835 329c0 -94.667 -34.333 -175.334 -103 -242.001c-68.667 -67.333 -150.667 -101 -246 -101c-81.333 0 -153.333 26 -216 78c-62.667 52.667 -101.334 119 -116.001 199l148 39c7.33301 -48 28 -87 62 -117c35.333 -31.333 76 -47 122 -47c52 0 97.667 18.667 137 56
c38.667 38 58 83 58 135c0 78.667 -45.667 139.667 -137 183l-126.5 56.5l-127.5 57.5c-90.667 60.667 -136 152.334 -136 275.001c0 94 34 174.667 102 242c68.667 67.333 150.667 101 246 101c81.333 0 153.333 -26.667 216 -80c62 -53.333 101 -120 117 -200l-152 -37
c-6 46.667 -26 85.667 -60 117c-33.333 31.333 -73.666 47 -120.999 47c-52 0 -97.333 -18.667 -136 -56c-38 -37.333 -57 -82 -57 -134c0 -79.333 45.333 -141.333 136 -186l253 -113c91.333 -61.333 137 -152.333 137 -273z" />
    <glyph glyph-name="t" unicode="t" horiz-adv-x="998" 
d="M575 1075v-1075h-153v1075h-384v154h921v-154h-384z" />
    <glyph glyph-name="u" unicode="u" horiz-adv-x="1306" 
d="M1152 483c0 -137.333 -48.9961 -254.334 -146.996 -351.001c-98.667 -97.333 -216.334 -146 -353.001 -146c-138.667 0 -256.334 48.333 -353.001 145s-145 214 -145 352v746h153v-746c0 -95.333 33.667 -176.666 101 -243.999s148.666 -101 243.999 -101
s176.666 33.667 243.999 101c68 68 102 149.333 102 244v746h154v-746v0z" />
    <glyph glyph-name="v" unicode="v" horiz-adv-x="1106" 
d="M659 0h-212l-447 1229h162l391 -1069l389 1069h164z" />
    <glyph glyph-name="w" unicode="w" horiz-adv-x="1613" 
d="M1166 0h-212l-148 406l-147 -406h-212l-447 1229h162l391 -1069l172 471l-218 598h162l137 -374l136 374h164l-219 -599l173 -470l389 1069h164z" />
    <glyph glyph-name="x" unicode="x" horiz-adv-x="1058" 
d="M836 0l-307 473l-307 -473h-184l399 614l-399 615h184l307 -473l307 473h185l-400 -615l400 -614h-185z" />
    <glyph glyph-name="y" unicode="y" horiz-adv-x="905" 
d="M529 591v-591h-154v591l-411 638h181l307 -473l307 473h185z" />
    <glyph glyph-name="z" unicode="z" horiz-adv-x="1135" 
d="M77 0l698 1075h-698v154h981l-698 -1075h698v-154h-981z" />
    <glyph glyph-name="braceleft" unicode="{" horiz-adv-x="853" 
d="M512 -169c-46.667 0 -87 17.001 -121 51.001c-33.333 33.333 -50 72.666 -50 117.999v427c0 46.667 -16.667 86.667 -50 120s-73.333 50 -120 50v171c46.667 0 86.667 16.667 120 50c33.333 34.667 50 75 50 121v426c0 46.667 16.667 86.667 50 120
c34 34 74.333 51 121 51h171v-171h-171v-512c0 -46.667 -17 -87 -51 -121c-30.667 -30.667 -67 -47 -109 -49c42 -2.66699 78.333 -20 109 -52c34 -33.333 51 -73 51 -119v-512h171v-169h-171z" />
    <glyph glyph-name="bar" unicode="|" 
d="M171 -169v1705h170v-1705h-170z" />
    <glyph glyph-name="braceright" unicode="}" horiz-adv-x="853" 
d="M683 597c-46 0 -86.333 -16.666 -121 -49.999c-33.333 -33.333 -50 -73.333 -50 -120v-427c0 -46 -17 -85.333 -51 -118c-33.333 -34 -73.333 -51 -120 -51h-170v169h170v512c0 46 16.667 85.667 50 119c31.333 31.333 68.333 48.666 111 51.999
c-42.667 2 -79.667 18.333 -111 49c-33.333 34.667 -50 75 -50 121v512h-170v171h170c46.667 0 86.667 -17 120 -51c34 -33.333 51 -73.333 51 -120v-426c0 -46 16.667 -86.333 50 -121c34.667 -33.333 75 -50 121 -50v-171v0z" />
    <glyph glyph-name="asciitilde" unicode="~" horiz-adv-x="751" 
d="M580 1266c0 -2.66699 -3.33398 -10.667 -10.001 -24c-26 -50 -55 -75 -87 -75c-20.667 0 -54.667 15.667 -102 47s-84 47 -110 47c-36 0 -69.333 -21 -100 -63v68c0 3.33301 3.33301 11.333 10 24c26 50 55.667 75 89 75c20.667 0 54.334 -15.667 101.001 -47
s83 -47 109 -47c34.667 0 68 21.333 100 64v-69v0z" />
    <glyph glyph-name="quotesinglbase" 
d="M222 -84v35h68v49h-119v171h170v-255h-119z" />
    <glyph glyph-name="quotesinglbase" unicode="&#x201a;" 
d="M222 -84v35h68v49h-119v171h170v-255h-119z" />
    <glyph glyph-name="quotedblbase" horiz-adv-x="768" 
d="M222 -84v35h68v49h-119v171h170v-255h-119zM478 -84v35h68v49h-119v171h170v-255h-119z" />
    <glyph glyph-name="quotedblbase" unicode="&#x201e;" horiz-adv-x="768" 
d="M222 -84v35h68v49h-119v171h170v-255h-119zM478 -84v35h68v49h-119v171h170v-255h-119z" />
    <glyph glyph-name="ellipsis" unicode="&#x85;" horiz-adv-x="1024" 
d="M427 0v171h170v-171h-170zM171 0v171h170v-171h-170zM683 0v171h170v-171h-170z" />
    <glyph glyph-name="ellipsis" unicode="&#x2026;" horiz-adv-x="1024" 
d="M427 0v171h170v-171h-170zM171 0v171h170v-171h-170zM683 0v171h170v-171h-170z" />
    <glyph glyph-name="circumflex" horiz-adv-x="853" 
d="M597 1536l-170 114l-171 -114h-85l170 171h171l171 -171h-86z" />
    <glyph glyph-name="circumflex" unicode="&#x2c6;" horiz-adv-x="853" 
d="M597 1536l-170 114l-171 -114h-85l170 171h171l171 -171h-86z" />
    <glyph glyph-name="perthousand" horiz-adv-x="2611" 
d="M1553 358c0 50.667 -18.667 94.667 -56 132s-81.333 56 -132 56s-94.667 -18.667 -132 -56c-36.667 -36.667 -55 -80.667 -55 -132s18.333 -95.333 55 -132s80.667 -55 132 -55s95.333 18.333 132 55c37.333 37.333 56 81.333 56 132zM2355 358
c0 50.667 -18.667 94.667 -56 132s-81.333 56 -132 56s-94.667 -18.667 -132 -56c-36.667 -36.667 -55 -80.667 -55 -132s18.333 -95.333 55 -132s80.667 -55 132 -55s95.333 18.333 132 55c37.333 37.333 56 81.333 56 132zM631 1007c0 51.333 -18.334 95.333 -55.001 132
c-37.333 37.333 -81.333 56 -132 56c-51.333 0 -95.666 -18.667 -132.999 -56c-36.667 -36.667 -55 -80.667 -55 -132c0 -52 18.333 -96.333 55 -133s81 -55 133 -55c51.333 0 95.333 18.333 132 55s55 81 55 133zM560.999 0h-203l890 1365h203zM801.999 1007
c0 -98 -35.333 -182.333 -106 -253c-70 -70 -154 -105 -252 -105s-182.333 35 -253 105c-70.667 70.667 -106 155 -106 253s35.333 182 106 252c70.667 70.667 155 106 253 106s182 -35.333 252 -106c70.667 -70 106 -154 106 -252zM1724 358
c0 -97.333 -35.333 -181.333 -106 -252s-155 -106 -253 -106c-97.333 -0 -181.333 35.333 -252 106s-106 154.667 -106 252c0 98 35.333 182.333 106 253s154.667 106 252 106c98 0 182.333 -35.333 253 -106s106 -155 106 -253zM2526 358
c0 -97.333 -35.333 -181.333 -106 -252s-155 -106 -253 -106c-97.333 -0 -181.333 35.333 -252 106s-106 154.667 -106 252c0 98 35.333 182.333 106 253s154.667 106 252 106c98 0 182.333 -35.333 253 -106s106 -155 106 -253z" />
    <glyph glyph-name="perthousand" unicode="&#x2030;" horiz-adv-x="2611" 
d="M1553 358c0 50.667 -18.667 94.667 -56 132s-81.333 56 -132 56s-94.667 -18.667 -132 -56c-36.667 -36.667 -55 -80.667 -55 -132s18.333 -95.333 55 -132s80.667 -55 132 -55s95.333 18.333 132 55c37.333 37.333 56 81.333 56 132zM2355 358
c0 50.667 -18.667 94.667 -56 132s-81.333 56 -132 56s-94.667 -18.667 -132 -56c-36.667 -36.667 -55 -80.667 -55 -132s18.333 -95.333 55 -132s80.667 -55 132 -55s95.333 18.333 132 55c37.333 37.333 56 81.333 56 132zM631 1007c0 51.333 -18.334 95.333 -55.001 132
c-37.333 37.333 -81.333 56 -132 56c-51.333 0 -95.666 -18.667 -132.999 -56c-36.667 -36.667 -55 -80.667 -55 -132c0 -52 18.333 -96.333 55 -133s81 -55 133 -55c51.333 0 95.333 18.333 132 55s55 81 55 133zM560.999 0h-203l890 1365h203zM801.999 1007
c0 -98 -35.333 -182.333 -106 -253c-70 -70 -154 -105 -252 -105s-182.333 35 -253 105c-70.667 70.667 -106 155 -106 253s35.333 182 106 252c70.667 70.667 155 106 253 106s182 -35.333 252 -106c70.667 -70 106 -154 106 -252zM1724 358
c0 -97.333 -35.333 -181.333 -106 -252s-155 -106 -253 -106c-97.333 -0 -181.333 35.333 -252 106s-106 154.667 -106 252c0 98 35.333 182.333 106 253s154.667 106 252 106c98 0 182.333 -35.333 253 -106s106 -155 106 -253zM2526 358
c0 -97.333 -35.333 -181.333 -106 -252s-155 -106 -253 -106c-97.333 -0 -181.333 35.333 -252 106s-106 154.667 -106 252c0 98 35.333 182.333 106 253s154.667 106 252 106c98 0 182.333 -35.333 253 -106s106 -155 106 -253z" />
    <glyph glyph-name="Scaron" horiz-adv-x="1097" 
d="M927 365c0 -105.333 -38 -195.003 -114 -269.003c-75.333 -74 -166 -111 -272 -111c-90.667 0 -170.667 28.667 -240 86c-68.667 56.667 -112 130.334 -130 221.001l165 44c8 -51.333 31 -94.666 69 -129.999c38.667 -34.667 84 -52 136 -52
c57.333 0 107.666 20.667 150.999 62c42.667 40.667 64 90.334 64 149.001c0 88 -50.667 155.667 -152 203l-140 64l-141 64c-101.333 67.333 -152 169.333 -152 306c0 106 38 195.667 114 269c76 74 167 111 273 111c91.333 0 171.333 -29.333 240 -88
c68.667 -58 111.667 -132 129 -222l-168 -43c-6.66699 52 -28.667 95.667 -66 131c-36.667 34.667 -81.667 52 -135 52c-57.333 0 -107.666 -20.667 -150.999 -62c-42.667 -40.667 -64 -90 -64 -148c0 -88.667 50.667 -157.667 152 -207l280 -126
c101.333 -68 152 -169.333 152 -304zM633 1536h-171l-170 171h85l171 -115l170 115h86z" />
    <glyph glyph-name="Scaron" unicode="&#x160;" horiz-adv-x="1097" 
d="M927 365c0 -105.333 -38 -195.003 -114 -269.003c-75.333 -74 -166 -111 -272 -111c-90.667 0 -170.667 28.667 -240 86c-68.667 56.667 -112 130.334 -130 221.001l165 44c8 -51.333 31 -94.666 69 -129.999c38.667 -34.667 84 -52 136 -52
c57.333 0 107.666 20.667 150.999 62c42.667 40.667 64 90.334 64 149.001c0 88 -50.667 155.667 -152 203l-140 64l-141 64c-101.333 67.333 -152 169.333 -152 306c0 106 38 195.667 114 269c76 74 167 111 273 111c91.333 0 171.333 -29.333 240 -88
c68.667 -58 111.667 -132 129 -222l-168 -43c-6.66699 52 -28.667 95.667 -66 131c-36.667 34.667 -81.667 52 -135 52c-57.333 0 -107.666 -20.667 -150.999 -62c-42.667 -40.667 -64 -90 -64 -148c0 -88.667 50.667 -157.667 152 -207l280 -126
c101.333 -68 152 -169.333 152 -304zM633 1536h-171l-170 171h85l171 -115l170 115h86z" />
    <glyph glyph-name="guilsinglleft" horiz-adv-x="657" 
d="M341 341l-170 342l170 341h145l-170 -341l170 -342h-145z" />
    <glyph glyph-name="guilsinglleft" unicode="&#x2039;" horiz-adv-x="657" 
d="M341 341l-170 342l170 341h145l-170 -341l170 -342h-145z" />
    <glyph glyph-name="OE" horiz-adv-x="2338" 
d="M1314 683c0 144 -52 268 -156 372c-104 104.667 -228.333 157 -373 157s-269 -52.333 -373 -157c-104 -104 -156 -228 -156 -372c0 -144.667 52 -269 156 -373s228.333 -156 373 -156s269 52 373 156s156 228.333 156 373zM1314 0v227.001
c-140 -161.333 -316.333 -242 -529 -242c-192 0 -356.667 68.333 -494 205c-137.333 137.333 -206 301.666 -206 492.999c0 190.667 68.667 354.667 206 492c138 138 302.667 207 494 207c212.667 0 389 -81.333 529 -244v227h853v-170h-682v-410h512v-171h-512v-443h682
v-171h-853z" />
    <glyph glyph-name="OE" unicode="&#x152;" horiz-adv-x="2338" 
d="M1314 683c0 144 -52 268 -156 372c-104 104.667 -228.333 157 -373 157s-269 -52.333 -373 -157c-104 -104 -156 -228 -156 -372c0 -144.667 52 -269 156 -373s228.333 -156 373 -156s269 52 373 156s156 228.333 156 373zM1314 0v227.001
c-140 -161.333 -316.333 -242 -529 -242c-192 0 -356.667 68.333 -494 205c-137.333 137.333 -206 301.666 -206 492.999c0 190.667 68.667 354.667 206 492c138 138 302.667 207 494 207c212.667 0 389 -81.333 529 -244v227h853v-170h-682v-410h512v-171h-512v-443h682
v-171h-853z" />
    <glyph glyph-name="quoteleft" 
d="M171 1109v256h119v-34h-68v-51h119v-171h-170z" />
    <glyph glyph-name="quoteleft" unicode="&#x2018;" 
d="M171 1109v256h119v-34h-68v-51h119v-171h-170z" />
    <glyph glyph-name="quoteright" 
d="M222 1109v34h68v52h-119v170h170v-256h-119z" />
    <glyph glyph-name="quoteright" unicode="&#x2019;" 
d="M222 1109v34h68v52h-119v170h170v-256h-119z" />
    <glyph glyph-name="quotedblleft" horiz-adv-x="768" 
d="M171 1109v256h119v-34h-68v-51h119v-171h-170zM427 1109v256h119v-34h-68v-51h119v-171h-170z" />
    <glyph glyph-name="quotedblleft" unicode="&#x201c;" horiz-adv-x="768" 
d="M171 1109v256h119v-34h-68v-51h119v-171h-170zM427 1109v256h119v-34h-68v-51h119v-171h-170z" />
    <glyph glyph-name="quotedblright" horiz-adv-x="768" 
d="M222 1109v34h68v52h-119v170h170v-256h-119zM478 1109v34h68v52h-119v170h170v-256h-119z" />
    <glyph glyph-name="quotedblright" unicode="&#x201d;" horiz-adv-x="768" 
d="M222 1109v34h68v52h-119v170h170v-256h-119zM478 1109v34h68v52h-119v170h170v-256h-119z" />
    <glyph glyph-name="bullet" horiz-adv-x="853" 
d="M768 683c0 -94.667 -33.333 -175.334 -100 -242.001s-147 -100 -241 -100c-94.667 0 -175.334 33.333 -242.001 100s-100 147.334 -100 242.001c0 94 33.333 174.333 100 241s147.334 100 242.001 100c94 0 174.333 -33.333 241 -100s100 -147 100 -241z" />
    <glyph glyph-name="bullet" unicode="&#x2022;" horiz-adv-x="853" 
d="M768 683c0 -94.667 -33.333 -175.334 -100 -242.001s-147 -100 -241 -100c-94.667 0 -175.334 33.333 -242.001 100s-100 147.334 -100 242.001c0 94 33.333 174.333 100 241s147.334 100 242.001 100c94 0 174.333 -33.333 241 -100s100 -147 100 -241z" />
    <glyph glyph-name="endash" horiz-adv-x="768" 
d="M171 614v137h426v-137h-426z" />
    <glyph glyph-name="endash" unicode="&#x2013;" horiz-adv-x="768" 
d="M171 614v137h426v-137h-426z" />
    <glyph glyph-name="emdash" horiz-adv-x="1024" 
d="M171 614v137h682v-137h-682z" />
    <glyph glyph-name="emdash" unicode="&#x2014;" horiz-adv-x="1024" 
d="M171 614v137h682v-137h-682z" />
    <glyph glyph-name="tilde" horiz-adv-x="751" 
d="M580 1550c0 -3.33301 -3.33398 -11.333 -10.001 -24c-26 -50 -55 -75 -87 -75c-20.667 0 -54.667 15.667 -102 47s-84 47 -110 47c-36 0 -69.333 -21.333 -100 -64v69c0 3.33301 3.33301 11.333 10 24c26 50 55.667 75 89 75c20.667 0 54.334 -15.667 101.001 -47
s83 -47 109 -47c34.667 0 68 21 100 63v-68v0z" />
    <glyph glyph-name="tilde" unicode="&#x2dc;" horiz-adv-x="751" 
d="M580 1550c0 -3.33301 -3.33398 -11.333 -10.001 -24c-26 -50 -55 -75 -87 -75c-20.667 0 -54.667 15.667 -102 47s-84 47 -110 47c-36 0 -69.333 -21.333 -100 -64v69c0 3.33301 3.33301 11.333 10 24c26 50 55.667 75 89 75c20.667 0 54.334 -15.667 101.001 -47
s83 -47 109 -47c34.667 0 68 21 100 63v-68v0z" />
    <glyph glyph-name="trademark" horiz-adv-x="1031" 
d="M884 874v345l-150 -345h-68l-151 345v-345h-61v430h-154v-430h-61v430h-154v61h432l183 -414l182 414h63v-491h-61z" />
    <glyph glyph-name="trademark" unicode="&#x2122;" horiz-adv-x="1031" 
d="M884 874v345l-150 -345h-68l-151 345v-345h-61v430h-154v-430h-61v430h-154v61h432l183 -414l182 414h63v-491h-61z" />
    <glyph glyph-name="scaron" horiz-adv-x="988" 
d="M570 1382h-154l-153 154h77l153 -102l154 102h77zM835 329c0 -95.333 -34.334 -176.333 -103.001 -243c-67.333 -66.667 -149.333 -100 -246 -100c-81.333 0 -153.333 26 -216 78c-62.667 52.667 -101.334 119 -116.001 199l148 39c7.33301 -48 28 -87 62 -117
c35.333 -31.333 76 -47 122 -47c52 0 97.667 18.667 137 56c38.667 38 58 83 58 135c0 78.667 -45.667 139.667 -137 183l-127.5 56.5l-126.5 57.5c-90.667 62 -136 153.667 -136 275c0 95.333 34.333 176.333 103 243s150.334 100 245.001 100
c83.333 0 155.333 -26.333 216 -79c62 -52 101 -119 117 -201l-152 -37c-6 46.667 -26 85.667 -60 117c-33.333 31.333 -73.666 47 -120.999 47c-52 0 -97.333 -18.667 -136 -56c-38 -37.333 -57 -82 -57 -134c0 -80 45.333 -141.333 136 -184l253 -116
c91.333 -61.333 137 -152 137 -272z" />
    <glyph glyph-name="scaron" unicode="&#x161;" horiz-adv-x="988" 
d="M570 1382h-154l-153 154h77l153 -102l154 102h77zM835 329c0 -95.333 -34.334 -176.333 -103.001 -243c-67.333 -66.667 -149.333 -100 -246 -100c-81.333 0 -153.333 26 -216 78c-62.667 52.667 -101.334 119 -116.001 199l148 39c7.33301 -48 28 -87 62 -117
c35.333 -31.333 76 -47 122 -47c52 0 97.667 18.667 137 56c38.667 38 58 83 58 135c0 78.667 -45.667 139.667 -137 183l-127.5 56.5l-126.5 57.5c-90.667 62 -136 153.667 -136 275c0 95.333 34.333 176.333 103 243s150.334 100 245.001 100
c83.333 0 155.333 -26.333 216 -79c62 -52 101 -119 117 -201l-152 -37c-6 46.667 -26 85.667 -60 117c-33.333 31.333 -73.666 47 -120.999 47c-52 0 -97.333 -18.667 -136 -56c-38 -37.333 -57 -82 -57 -134c0 -80 45.333 -141.333 136 -184l253 -116
c91.333 -61.333 137 -152 137 -272z" />
    <glyph glyph-name="guilsinglright" horiz-adv-x="657" 
d="M316 341h-145l170 342l-170 341h145l170 -341z" />
    <glyph glyph-name="guilsinglright" unicode="&#x203a;" horiz-adv-x="657" 
d="M316 341h-145l170 342l-170 341h145l170 -341z" />
    <glyph glyph-name="oe" horiz-adv-x="2104" 
d="M1183 614c0 130 -47 242 -141 336s-205.667 141 -335 141c-130 0 -242 -47 -336 -141s-141 -206 -141 -336c0 -129.333 47 -241 141 -335s206 -141 336 -141c129.333 0 241 47 335 141s141 205.667 141 335zM1183 0l-0.000976562 205c-127.333 -146 -286 -219 -476 -219
c-171.333 0 -319.333 61.667 -444 185c-124 124 -186 271.667 -186 443c0 172 62 320 186 444s272 186 444 186c190.667 0 349.334 -73.333 476.001 -220v205h768v-154h-615v-368h461v-154h-461v-399h615v-154h-768z" />
    <glyph glyph-name="oe" unicode="&#x153;" horiz-adv-x="2104" 
d="M1183 614c0 130 -47 242 -141 336s-205.667 141 -335 141c-130 0 -242 -47 -336 -141s-141 -206 -141 -336c0 -129.333 47 -241 141 -335s206 -141 336 -141c129.333 0 241 47 335 141s141 205.667 141 335zM1183 0l-0.000976562 205c-127.333 -146 -286 -219 -476 -219
c-171.333 0 -319.333 61.667 -444 185c-124 124 -186 271.667 -186 443c0 172 62 320 186 444s272 186 444 186c190.667 0 349.334 -73.333 476.001 -220v205h768v-154h-615v-368h461v-154h-461v-399h615v-154h-768z" />
    <glyph glyph-name="Ydieresis" horiz-adv-x="1005" 
d="M589 657v-657h-171v657l-459 708h201l342 -525l343 525h203zM280 1536v137h136v-137h-136zM587 1536v137h136v-137h-136z" />
    <glyph glyph-name="Ydieresis" unicode="&#x178;" horiz-adv-x="1005" 
d="M589 657v-657h-171v657l-459 708h201l342 -525l343 525h203zM280 1536v137h136v-137h-136zM587 1536v137h136v-137h-136z" />
    <glyph glyph-name="nonbreakingspace" unicode="&#xa0;" horiz-adv-x="597" 
 />
    <glyph glyph-name="exclamdown" unicode="&#xa1;" 
d="M171 853v171h170v-171h-170zM171 -340l34 1023h102l34 -1023h-170z" />
    <glyph glyph-name="cent" unicode="&#xa2;" horiz-adv-x="1118" 
d="M633 1103c-16 2 -28.999 3.00098 -38.999 3.00098c-78.667 0 -146.334 -28.333 -203.001 -85c-56 -56 -84 -123.333 -84 -202c0 -104.667 45 -185.334 135 -242.001l191 526v0zM947.001 587.001c-84 -127.333 -201.667 -190.999 -353 -190.999
c-49.333 0 -95 7.33301 -137 22l-53 -145h-73l63 174c-67.333 36.667 -121.666 88.667 -162.999 156c-40 66.667 -60 138.667 -60 216c0 116 41.333 215.333 124 298c83.333 83.333 183 125 299 125c16 0 31.167 -0.666992 45.5 -2s28.166 -3.33301 41.499 -6l48 131h73
l-56 -152c84 -33.333 151 -87.333 201 -162l-114 -75c-32.667 49.333 -77 85.666 -133 108.999l-197 -537c30 -10.667 60.333 -16 91 -16c101.333 0 181 43.333 239 130l114 -75v0z" />
    <glyph glyph-name="yen" unicode="&#xa5;" horiz-adv-x="1005" 
d="M606 683h239v-171h-256v-171h256v-170h-256v-171h-171v171h-256v170h256v171h-256v171h239l-442 682h201l342 -525l343 525h203z" />
    <glyph glyph-name="dieresis" unicode="&#xa8;" horiz-adv-x="785" 
d="M171 1536v137h136v-137h-136zM478 1536v137h136v-137h-136z" />
    <glyph glyph-name="copyright" unicode="&#xa9;" horiz-adv-x="928" 
d="M676 225c-51.333 -77.333 -122 -116 -212 -116c-68 0 -127 25 -177 75s-75 109.333 -75 178c0 68 25 127 75 177s109 75 177 75c91.333 0 162 -38.667 212 -116l-51 -34c-39.333 59.333 -93 89 -161 89c-52 0 -97 -19 -135 -57c-37.333 -37.333 -56 -82 -56 -134
c0 -52.667 18.667 -97.667 56 -135c38.667 -37.333 83.667 -56 135 -56c68 0 121.667 29 161 87l51 -33v0zM782 362c0 87.333 -31 162 -93 224s-137 93 -225 93c-87.333 0 -162 -31 -224 -93s-93 -136.667 -93 -224c0 -88 31 -163 93 -225s136.667 -93 224 -93
c88 0 163 31 225 93s93 137 93 225zM843 362c0 -105.333 -37 -194.333 -111 -267c-74.667 -73.333 -164 -110 -268 -110s-193.333 36.667 -268 110c-74 72.667 -111 161.667 -111 267c0 104.667 37 194 111 268s163.333 111 268 111s194 -37 268 -111s111 -163.333 111 -268
z" />
    <glyph glyph-name="guillemotleft" unicode="&#xab;" horiz-adv-x="973" 
d="M341 341l-170 342l170 341h145l-170 -341l170 -342h-145zM657 341l-171 342l171 341h145l-171 -341l171 -342h-145z" />
    <glyph glyph-name="minus" unicode="&#xad;" horiz-adv-x="853" 
d="M171 614v137h512v-137h-512z" />
    <glyph glyph-name="registered" unicode="&#xae;" horiz-adv-x="928" 
d="M602 459c0 10 -2.16699 19.667 -6.5 29s-10 17.5 -17 24.5s-15 12.667 -24 17s-18.5 6.5 -28.5 6.5h-200v-154h200c10 0 19.5 2.16699 28.5 6.5s17 10 24 17s12.667 15.167 17 24.5s6.5 19 6.5 29zM592 106l-123.002 215h-143v-215h-50
c56.667 -41.333 119.334 -62 188.001 -62s131.334 20.667 188.001 62h-60zM781.998 362c0 87.333 -30.999 161.999 -92.999 223.999s-137 93 -225 93c-87.333 0 -162 -31 -224 -93s-93 -136.667 -93 -224c0 -101.333 39.333 -184 118 -248v483h261
c37.333 0 69.666 -13.667 96.999 -41s41 -59.666 41 -96.999c0 -35.333 -12 -66 -36 -92s-53.667 -40.667 -89 -44l121 -210c81.333 63.333 122 146.333 122 249zM842.999 361.999c0 -105.333 -37 -194.333 -111 -267c-74.667 -73.333 -164 -110 -268 -110
s-193.333 36.667 -268 110c-74 72.667 -111 161.667 -111 267c0 104.667 37 194 111 268s163.333 111 268 111s194 -37 268 -111s111 -163.333 111 -268z" />
    <glyph glyph-name="macron" unicode="&#xaf;" horiz-adv-x="853" 
d="M171 1229v136h512v-136h-512z" />
    <glyph glyph-name="degree" unicode="&#xb0;" horiz-adv-x="597" 
d="M358 1237c0 40 -19.667 60 -59 60c-40 0 -60 -20 -60 -60c0 -39.333 20 -59 60 -59c39.333 0 59 19.667 59 59zM427 1237c0 -35.333 -12.666 -65.667 -37.999 -91c-24.667 -24.667 -54.667 -37 -90 -37c-36 0 -66.333 12.333 -91 37s-37 55 -37 91
c0 35.333 12.333 65.333 37 90c25.333 25.333 55.666 38 90.999 38c34.667 0 64.667 -12.667 90 -38s38 -55.333 38 -90z" />
    <glyph glyph-name="plusminus" unicode="&#xb1;" horiz-adv-x="853" 
d="M171 0v137h512v-137h-512zM495 614v-187h-137v187h-187v137h187v188h137v-188h188v-137h-188z" />
    <glyph glyph-name="acute" unicode="&#xb4;" horiz-adv-x="683" 
d="M256 1536h-85l170 171h171z" />
    <glyph glyph-name="paragraph" unicode="&#xb6;" horiz-adv-x="1323" 
d="M1067 1195l-0.000976562 -1364h-171v1364h-171v-1364h-170v766h-86c-105.333 0 -195.666 37.667 -270.999 113s-113 165.666 -113 270.999c0 104.667 37.667 194.667 113 270c76 76 166.333 114 271 114h768v-170h-170z" />
    <glyph glyph-name="guillemotright" unicode="&#xbb;" horiz-adv-x="973" 
d="M316 341h-145l170 342l-170 341h145l170 -341zM631 341h-145l171 342l-171 341h145l171 -341z" />
    <glyph glyph-name="questiondown" unicode="&#xbf;" horiz-adv-x="1097" 
d="M756 870v171h171v-171h-171zM927 -29c-16.667 -89.333 -59.666 -163.666 -128.999 -222.999c-68.667 -58.667 -148.667 -88 -240 -88c-106 0 -197 37 -273 111s-114 163.333 -114 268c0 136.667 50.667 238.667 152 306l140 64l141 64c101.333 47.333 152 115 152 203v24
h171v-24c0 -134 -50.667 -234.667 -152 -302l-140 -64l-140 -64c-101.333 -49.333 -152 -118.333 -152 -207c0 -56.667 21.333 -105.334 64 -146.001c43.333 -41.333 93.666 -62 150.999 -62c53.333 0 98.333 17.333 135 52s58.667 77.667 66 129l168 -41v0z" />
    <glyph glyph-name="Agrave" unicode="&#xc0;" horiz-adv-x="1229" 
d="M614 1188l-278 -761h555zM1046 0l-94 256h-677l-94 -256h-181l497 1365h235l497 -1365h-183zM615 1536l-256 171h170l171 -171h-85z" />
    <glyph glyph-name="Aacute" unicode="&#xc1;" horiz-adv-x="1229" 
d="M614 1188l-278 -761h555zM1046 0l-94 256h-677l-94 -256h-181l497 1365h235l497 -1365h-183zM614 1536h-85l170 171h171z" />
    <glyph glyph-name="Acircumflex" unicode="&#xc2;" horiz-adv-x="1229" 
d="M614 1188l-278 -761h555zM1046 0l-94 256h-677l-94 -256h-181l497 1365h235l497 -1365h-183zM785 1536l-170 114l-171 -114h-85l170 171h171l171 -171h-86z" />
    <glyph glyph-name="Atilde" unicode="&#xc3;" horiz-adv-x="1229" 
d="M614 1188l-278 -761h555zM1046 0l-94 256h-677l-94 -256h-181l497 1365h235l497 -1365h-183zM819 1550c0 -3.33301 -3.33398 -11.333 -10.001 -24c-26 -50 -55 -75 -87 -75c-20.667 0 -54.667 15.667 -102 47s-84 47 -110 47c-36 0 -69.333 -21.333 -100 -64v69
c0 3.33301 3.33301 11.333 10 24c26 50 55.667 75 89 75c20.667 0 54.334 -15.667 101.001 -47s83 -47 109 -47c34.667 0 68 21 100 63v-68v0z" />
    <glyph glyph-name="Adieresis" unicode="&#xc4;" horiz-adv-x="1229" 
d="M614 1188l-278 -761h555zM1046 0l-94 256h-677l-94 -256h-181l497 1365h235l497 -1365h-183zM393 1536v137h136v-137h-136zM700 1536v137h136v-137h-136z" />
    <glyph glyph-name="Aring" unicode="&#xc5;" horiz-adv-x="1229" 
d="M614 1188l-278 -761h555zM1046 0l-94 256h-677l-94 -256h-181l497 1365h235l497 -1365h-183zM674 1579c0 39.333 -19.667 59 -59 59c-40 0 -60 -19.667 -60 -59c0 -40 20 -60 60 -60c39.333 0 59 20 59 60zM743 1579c0 -35.333 -12.666 -65.667 -37.999 -91
c-24.667 -24.667 -54.667 -37 -90 -37c-36 0 -66.333 12.333 -91 37s-37 55 -37 91c0 35.333 12.333 65.333 37 90c25.333 25.333 55.666 38 90.999 38c34.667 0 64.667 -12.667 90 -38s38 -55.333 38 -90z" />
    <glyph glyph-name="AE" unicode="&#xc6;" horiz-adv-x="1901" 
d="M877 1188l-490 -761h490v761zM877 0v256h-599l-165 -256h-197l878 1365h937v-170h-683v-410h512v-171h-512v-443h683v-171h-854z" />
    <glyph glyph-name="Egrave" unicode="&#xc8;" horiz-adv-x="1195" 
d="M171 0v1365h853v-170h-683v-410h512v-171h-512v-443h683v-171h-853zM598 1536l-256 171h170l171 -171h-85z" />
    <glyph glyph-name="Eacute" unicode="&#xc9;" horiz-adv-x="1195" 
d="M171 0v1365h853v-170h-683v-410h512v-171h-512v-443h683v-171h-853zM597 1536h-85l170 171h171z" />
    <glyph glyph-name="Ecircumflex" unicode="&#xca;" horiz-adv-x="1195" 
d="M171 0v1365h853v-170h-683v-410h512v-171h-512v-443h683v-171h-853zM768 1536l-170 114l-171 -114h-85l170 171h171l171 -171h-86z" />
    <glyph glyph-name="Edieresis" unicode="&#xcb;" horiz-adv-x="1195" 
d="M171 0v1365h853v-170h-683v-410h512v-171h-512v-443h683v-171h-853zM376 1536v137h136v-137h-136zM683 1536v137h136v-137h-136z" />
    <glyph glyph-name="Igrave" unicode="&#xcc;" 
d="M171 0v1365h170v-1365h-170zM258 1536l-256 171h170l171 -171h-85z" />
    <glyph glyph-name="Iacute" unicode="&#xcd;" 
d="M171 0v1365h170v-1365h-170zM256 1536h-85l170 171h171z" />
    <glyph glyph-name="Icircumflex" unicode="&#xce;" 
d="M171 0v1365h170v-1365h-170zM428 1536l-170 114l-171 -114h-85l170 171h171l171 -171h-86z" />
    <glyph glyph-name="Idieresis" unicode="&#xcf;" 
d="M171 0v1365h170v-1365h-170zM36 1536v137h136v-137h-136zM343 1536v137h136v-137h-136z" />
    <glyph glyph-name="Ntilde" unicode="&#xd1;" horiz-adv-x="1365" 
d="M1024 0l-683 1051v-1051h-170v1365h170l683 -1051v1051h171v-1365h-171zM887 1550c0 -3.33301 -3.33398 -11.333 -10.001 -24c-26 -50 -55 -75 -87 -75c-20.667 0 -54.667 15.667 -102 47s-84 47 -110 47c-36 0 -69.333 -21.333 -100 -64v69
c0 3.33301 3.33301 11.333 10 24c26 50 55.667 75 89 75c20.667 0 54.334 -15.667 101.001 -47s83 -47 109 -47c34.667 0 68 21 100 63v-68v0z" />
    <glyph glyph-name="Ograve" unicode="&#xd2;" horiz-adv-x="1570" 
d="M1314 683c0 144 -52 268 -156 372c-104 104.667 -228.333 157 -373 157s-269 -52.333 -373 -157c-104 -104 -156 -228 -156 -372c0 -144.667 52 -269 156 -373s228.333 -156 373 -156s269 52 373 156s156 228.333 156 373zM1485 683
c0 -192 -68.999 -356.332 -206.999 -492.999c-136.667 -136.667 -301 -205 -493 -205s-356.667 68.333 -494 205c-137.333 137.333 -206 301.666 -206 492.999c0 190.667 68.667 354.667 206 492c138 138 302.667 207 494 207s355.666 -69 492.999 -207
c138 -137.333 207 -301.333 207 -492zM785.001 1536l-256 171h170l171 -171h-85z" />
    <glyph glyph-name="Oacute" unicode="&#xd3;" horiz-adv-x="1570" 
d="M1314 683c0 144 -52 268 -156 372c-104 104.667 -228.333 157 -373 157s-269 -52.333 -373 -157c-104 -104 -156 -228 -156 -372c0 -144.667 52 -269 156 -373s228.333 -156 373 -156s269 52 373 156s156 228.333 156 373zM1485 683
c0 -192 -68.999 -356.332 -206.999 -492.999c-136.667 -136.667 -301 -205 -493 -205s-356.667 68.333 -494 205c-137.333 137.333 -206 301.666 -206 492.999c0 190.667 68.667 354.667 206 492c138 138 302.667 207 494 207s355.666 -69 492.999 -207
c138 -137.333 207 -301.333 207 -492zM785.001 1536h-85l170 171h171z" />
    <glyph glyph-name="Ocircumflex" unicode="&#xd4;" horiz-adv-x="1570" 
d="M1314 683c0 144 -52 268 -156 372c-104 104.667 -228.333 157 -373 157s-269 -52.333 -373 -157c-104 -104 -156 -228 -156 -372c0 -144.667 52 -269 156 -373s228.333 -156 373 -156s269 52 373 156s156 228.333 156 373zM1485 683
c0 -192 -68.999 -356.332 -206.999 -492.999c-136.667 -136.667 -301 -205 -493 -205s-356.667 68.333 -494 205c-137.333 137.333 -206 301.666 -206 492.999c0 190.667 68.667 354.667 206 492c138 138 302.667 207 494 207s355.666 -69 492.999 -207
c138 -137.333 207 -301.333 207 -492zM955.001 1536l-170 114l-171 -114h-85l170 171h171l171 -171h-86z" />
    <glyph glyph-name="Otilde" unicode="&#xd5;" horiz-adv-x="1570" 
d="M1314 683c0 144 -52 268 -156 372c-104 104.667 -228.333 157 -373 157s-269 -52.333 -373 -157c-104 -104 -156 -228 -156 -372c0 -144.667 52 -269 156 -373s228.333 -156 373 -156s269 52 373 156s156 228.333 156 373zM1485 683
c0 -192 -68.999 -356.332 -206.999 -492.999c-136.667 -136.667 -301 -205 -493 -205s-356.667 68.333 -494 205c-137.333 137.333 -206 301.666 -206 492.999c0 190.667 68.667 354.667 206 492c138 138 302.667 207 494 207s355.666 -69 492.999 -207
c138 -137.333 207 -301.333 207 -492zM990.001 1550c0 -3.33301 -3.33398 -11.333 -10.001 -24c-26 -50 -55 -75 -87 -75c-20.667 0 -54.667 15.667 -102 47s-84 47 -110 47c-36 0 -69.333 -21.333 -100 -64v69c0 3.33301 3.33301 11.333 10 24c26 50 55.667 75 89 75
c20.667 0 54.334 -15.667 101.001 -47s83 -47 109 -47c34.667 0 68 21 100 63v-68v0z" />
    <glyph glyph-name="Odieresis" unicode="&#xd6;" horiz-adv-x="1570" 
d="M1314 683c0 144 -52 268 -156 372c-104 104.667 -228.333 157 -373 157s-269 -52.333 -373 -157c-104 -104 -156 -228 -156 -372c0 -144.667 52 -269 156 -373s228.333 -156 373 -156s269 52 373 156s156 228.333 156 373zM1485 683
c0 -192 -68.999 -356.332 -206.999 -492.999c-136.667 -136.667 -301 -205 -493 -205s-356.667 68.333 -494 205c-137.333 137.333 -206 301.666 -206 492.999c0 190.667 68.667 354.667 206 492c138 138 302.667 207 494 207s355.666 -69 492.999 -207
c138 -137.333 207 -301.333 207 -492zM564.001 1536v137h136v-137h-136zM871.001 1536v137h136v-137h-136z" />
    <glyph glyph-name="multiply" unicode="&#xd7;" horiz-adv-x="853" 
d="M560 454l-133 131l-133 -131l-96 96l131 133l-131 133l96 95l133 -131l133 131l95 -95l-131 -133l131 -133z" />
    <glyph glyph-name="Oslash" unicode="&#xd8;" horiz-adv-x="1570" 
d="M998 1166c-67.333 30.667 -138.333 46.001 -213 46.001c-144.667 0 -269 -52.333 -373 -157c-104 -104 -156 -228 -156 -372c0 -154.667 58 -284.334 174 -389.001l568 872v0zM1314 683.001c0 153.333 -58 283 -174 389l-568 -872c67.333 -30.667 138.333 -46 213 -46
c144.667 0 269 52 373 156s156 228.333 156 373zM1485 683.001c0 -192 -69 -356.332 -207 -492.999c-136.667 -136.667 -301 -205 -493 -205c-108.667 0 -211 23.333 -307 70l-36 -55h-203l97 148c-167.333 141.333 -251 319.666 -251 534.999
c0 190.667 68.667 354.667 206 492c138 138 302.667 207 494 207c106.667 0 209 -23.667 307 -71l36 54h203l-97 -148c167.333 -141.333 251 -319.333 251 -534z" />
    <glyph glyph-name="Ugrave" unicode="&#xd9;" horiz-adv-x="1451" 
d="M1280 538c0 -152.667 -54.333 -283 -163 -391c-109.333 -108 -240 -162 -392 -162s-282.333 54 -391 162s-163 238.333 -163 391v827h170v-827c0 -106 37.667 -196.667 113 -272c74.667 -74.667 165 -112 271 -112s196.333 37.333 271 112c75.333 75.333 113 166 113 272
v827h171v-827v0zM726 1536l-256 171h170l171 -171h-85z" />
    <glyph glyph-name="Uacute" unicode="&#xda;" horiz-adv-x="1451" 
d="M1280 538c0 -152.667 -54.333 -283 -163 -391c-109.333 -108 -240 -162 -392 -162s-282.333 54 -391 162s-163 238.333 -163 391v827h170v-827c0 -106 37.667 -196.667 113 -272c74.667 -74.667 165 -112 271 -112s196.333 37.333 271 112c75.333 75.333 113 166 113 272
v827h171v-827v0zM725 1536h-85l170 171h171z" />
    <glyph glyph-name="Ucircumflex" unicode="&#xdb;" horiz-adv-x="1451" 
d="M1280 538c0 -152.667 -54.333 -283 -163 -391c-109.333 -108 -240 -162 -392 -162s-282.333 54 -391 162s-163 238.333 -163 391v827h170v-827c0 -106 37.667 -196.667 113 -272c74.667 -74.667 165 -112 271 -112s196.333 37.333 271 112c75.333 75.333 113 166 113 272
v827h171v-827v0zM896 1536l-170 114l-171 -114h-85l170 171h171l171 -171h-86z" />
    <glyph glyph-name="Udieresis" unicode="&#xdc;" horiz-adv-x="1451" 
d="M1280 538c0 -152.667 -54.333 -283 -163 -391c-109.333 -108 -240 -162 -392 -162s-282.333 54 -391 162s-163 238.333 -163 391v827h170v-827c0 -106 37.667 -196.667 113 -272c74.667 -74.667 165 -112 271 -112s196.333 37.333 271 112c75.333 75.333 113 166 113 272
v827h171v-827v0zM504 1536v137h136v-137h-136zM811 1536v137h136v-137h-136z" />
    <glyph glyph-name="Yacute" unicode="&#xdd;" horiz-adv-x="1005" 
d="M589 657v-657h-171v657l-459 708h201l342 -525l343 525h203zM502 1536h-85l170 171h171z" />
    <glyph glyph-name="agrave" unicode="&#xe0;" horiz-adv-x="1106" 
d="M553 1382l-230 154h153l154 -154h-77zM553 1068l-251 -684h500zM942 0l-85 230h-610l-85 -230h-162l447 1229h212l447 -1229h-164z" />
    <glyph glyph-name="aacute" unicode="&#xe1;" horiz-adv-x="1106" 
d="M553 1382h-77l154 154h153zM553 1068l-251 -684h500zM942 0l-85 230h-610l-85 -230h-162l447 1229h212l447 -1229h-164z" />
    <glyph glyph-name="acircumflex" unicode="&#xe2;" horiz-adv-x="1106" 
d="M707 1382l-154 103l-154 -103h-76l153 154h154l153 -154h-76zM553 1068l-251 -684h500zM942 0l-85 230h-610l-85 -230h-162l447 1229h212l447 -1229h-164z" />
    <glyph glyph-name="atilde" unicode="&#xe3;" horiz-adv-x="1106" 
d="M737 1394c0 -1.33301 -2.66504 -8 -7.99805 -20c-24 -45.333 -50.333 -68 -79 -68c-18.667 0 -49.334 13.667 -92.001 41c-42 28 -75 42 -99 42c-32 0 -62 -18.667 -90 -56v61c0 1.33301 2.66699 9 8 23c24 44 50.667 66 80 66c19.333 0 49.666 -14 90.999 -42
c42 -28 75 -42 99 -42c32 0 62 19 90 57v-62v0zM553.002 1068l-251 -684h500zM942.002 0l-85 230h-610l-85 -230h-162l447 1229h212l447 -1229h-164z" />
    <glyph glyph-name="adieresis" unicode="&#xe4;" horiz-adv-x="1106" 
d="M353 1382v123h123v-123h-123zM630 1382v123h123v-123h-123zM553 1068l-251 -684h500zM942 0l-85 230h-610l-85 -230h-162l447 1229h212l447 -1229h-164z" />
    <glyph glyph-name="aring" unicode="&#xe5;" horiz-adv-x="1106" 
d="M606 1420c0 36.667 -17.667 55 -53 55c-36.667 0 -55 -18.333 -55 -55c0 -35.333 18.333 -53 55 -53c35.333 0 53 17.667 53 53zM667 1420c0 -30.667 -11 -57.334 -33 -80.001s-49 -34 -81 -34s-59.333 11.333 -82 34s-34 49.334 -34 80.001c0 32 11.333 59.333 34 82
s50 34 82 34c16 0 31 -3 45 -9s26 -14.333 36 -25s18 -23 24 -37s9 -29 9 -45zM553 1068l-251 -684h500zM942 0l-85 230h-610l-85 -230h-162l447 1229h212l447 -1229h-164z" />
    <glyph glyph-name="ae" unicode="&#xe6;" horiz-adv-x="1901" 
d="M877 1188l-490 -761h490v761zM877 0v256h-599l-165 -256h-197l878 1365h937v-170h-683v-410h512v-171h-512v-443h683v-171h-854z" />
    <glyph glyph-name="egrave" unicode="&#xe8;" horiz-adv-x="1075" 
d="M538 1382l-231 154h154l153 -154h-76zM154 0v1229h768v-154h-615v-368h461v-154h-461v-399h615v-154h-768z" />
    <glyph glyph-name="eacute" unicode="&#xe9;" horiz-adv-x="1075" 
d="M538 1382h-77l153 154h154zM154 0v1229h768v-154h-615v-368h461v-154h-461v-399h615v-154h-768z" />
    <glyph glyph-name="ecircumflex" unicode="&#xea;" horiz-adv-x="1075" 
d="M691 1382l-153 103l-154 -103h-77l154 154h153l154 -154h-77zM154 0v1229h768v-154h-615v-368h461v-154h-461v-399h615v-154h-768z" />
    <glyph glyph-name="edieresis" unicode="&#xeb;" horiz-adv-x="1075" 
d="M614 1382v123h123v-123h-123zM338 1382v123h123v-123h-123zM154 0v1229h768v-154h-615v-368h461v-154h-461v-399h615v-154h-768z" />
    <glyph glyph-name="igrave" unicode="&#xec;" horiz-adv-x="461" 
d="M230 1382l-230 154h154l153 -154h-77zM154 0v1229h153v-1229h-153z" />
    <glyph glyph-name="iacute" unicode="&#xed;" horiz-adv-x="461" 
d="M230 1382h-76l153 154h154zM154 0v1229h153v-1229h-153z" />
    <glyph glyph-name="icircumflex" unicode="&#xee;" horiz-adv-x="461" 
d="M384 1382l-154 103l-153 -103h-77l154 154h153l154 -154h-77zM154 0v1229h153v-1229h-153z" />
    <glyph glyph-name="idieresis" unicode="&#xef;" horiz-adv-x="461" 
d="M307 1382v123h123v-123h-123zM31 1382v123h123v-123h-123zM154 0v1229h153v-1229h-153z" />
    <glyph glyph-name="ntilde" unicode="&#xf1;" horiz-adv-x="1229" 
d="M799 1394c0 -2.66699 -3.00098 -9.33301 -9.00098 -20c-24 -45.333 -50 -68 -78 -68c-18.667 0 -49.667 13.667 -93 41c-42 28 -74.667 42 -98 42c-31.333 0 -61.666 -18.667 -90.999 -56v61c0 2 3 9.66699 9 23c22.667 44 49.334 66 80.001 66
c19.333 0 49.666 -14 90.999 -42c40.667 -28 73.334 -42 98.001 -42c31.333 0 61.666 19 90.999 57v-62v0zM921.999 0.000976562l-615 945v-945h-153v1229h153l615 -946v946h153v-1229h-153z" />
    <glyph glyph-name="ograve" unicode="&#xf2;" horiz-adv-x="1413" 
d="M707 1382l-231 154h154l153 -154h-76zM1183 614c0 130 -47 242 -141 336s-205.667 141 -335 141c-130 0 -242 -47 -336 -141s-141 -206 -141 -336c0 -129.333 47 -241 141 -335s206 -141 336 -141c129.333 0 241 47 335 141s141 205.667 141 335zM1336 614
c0 -171.333 -61.999 -319 -185.999 -443c-124.667 -123.333 -272.334 -185 -443.001 -185c-171.333 0 -319.333 61.667 -444 185c-124 124 -186 271.667 -186 443c0 172 62 320 186 444s272 186 444 186c171.333 0 319 -62 443 -186s186 -272 186 -444z" />
    <glyph glyph-name="oacute" unicode="&#xf3;" horiz-adv-x="1413" 
d="M707 1382h-77l153 154h154zM1183 614c0 130 -47 242 -141 336s-205.667 141 -335 141c-130 0 -242 -47 -336 -141s-141 -206 -141 -336c0 -129.333 47 -241 141 -335s206 -141 336 -141c129.333 0 241 47 335 141s141 205.667 141 335zM1336 614
c0 -171.333 -61.999 -319 -185.999 -443c-124.667 -123.333 -272.334 -185 -443.001 -185c-171.333 0 -319.333 61.667 -444 185c-124 124 -186 271.667 -186 443c0 172 62 320 186 444s272 186 444 186c171.333 0 319 -62 443 -186s186 -272 186 -444z" />
    <glyph glyph-name="ocircumflex" unicode="&#xf4;" horiz-adv-x="1413" 
d="M860 1382l-153 103l-154 -103h-77l154 154h153l154 -154h-77zM1183 614c0 130 -47 242 -141 336s-205.667 141 -335 141c-130 0 -242 -47 -336 -141s-141 -206 -141 -336c0 -129.333 47 -241 141 -335s206 -141 336 -141c129.333 0 241 47 335 141s141 205.667 141 335z
M1336 614c0 -171.333 -61.999 -319 -185.999 -443c-124.667 -123.333 -272.334 -185 -443.001 -185c-171.333 0 -319.333 61.667 -444 185c-124 124 -186 271.667 -186 443c0 172 62 320 186 444s272 186 444 186c171.333 0 319 -62 443 -186s186 -272 186 -444z" />
    <glyph glyph-name="otilde" unicode="&#xf5;" horiz-adv-x="1413" 
d="M891 1394c0 -2.66699 -2.99805 -9.33301 -8.99805 -20c-23.333 -45.333 -49.333 -68 -78 -68c-18.667 0 -49.334 13.667 -92.001 41c-42 28 -75 42 -99 42c-31.333 0 -61.666 -18.667 -90.999 -56v61c0 2 3 9.66699 9 23c24 44 50.667 66 80 66
c19.333 0 49.666 -14 90.999 -42c42 -28 74.667 -42 98 -42c31.333 0 61.666 19 90.999 57v-62v0zM1183 614.001c0 130 -47 242 -141 336s-205.667 141 -335 141c-130 0 -242 -47 -336 -141s-141 -206 -141 -336c0 -129.333 47 -241 141 -335s206 -141 336 -141
c129.333 0 241 47 335 141s141 205.667 141 335zM1336 614.001c0 -171.333 -61.999 -319 -185.999 -443c-124.667 -123.333 -272.334 -185 -443.001 -185c-171.333 0 -319.333 61.667 -444 185c-124 124 -186 271.667 -186 443c0 172 62 320 186 444s272 186 444 186
c171.333 0 319 -62 443 -186s186 -272 186 -444z" />
    <glyph glyph-name="odieresis" unicode="&#xf6;" horiz-adv-x="1413" 
d="M507 1382v123h123v-123h-123zM783 1382v123h123v-123h-123zM1183 614c0 130 -47 242 -141 336s-205.667 141 -335 141c-130 0 -242 -47 -336 -141s-141 -206 -141 -336c0 -129.333 47 -241 141 -335s206 -141 336 -141c129.333 0 241 47 335 141s141 205.667 141 335z
M1336 614c0 -171.333 -61.999 -319 -185.999 -443c-124.667 -123.333 -272.334 -185 -443.001 -185c-171.333 0 -319.333 61.667 -444 185c-124 124 -186 271.667 -186 443c0 172 62 320 186 444s272 186 444 186c171.333 0 319 -62 443 -186s186 -272 186 -444z" />
    <glyph glyph-name="divide" unicode="&#xf7;" horiz-adv-x="853" 
d="M358 836v137h137v-137h-137zM358 393v136h137v-136h-137zM171 614v137h512v-137h-512z" />
    <glyph glyph-name="oslash" unicode="&#xf8;" horiz-adv-x="1413" 
d="M898 1050c-62 27.333 -125.667 41 -191 41c-130 0 -242 -47 -336 -141s-141 -206 -141 -336c0 -138 52.333 -254.333 157 -349l511 785v0zM1183 614c0 138.667 -52.333 255.333 -157 350l-512 -785c62 -27.333 126.333 -41 193 -41c129.333 0 241 47 335 141
s141 205.667 141 335zM1336 613.999c0 -171.333 -61.999 -319 -185.999 -443c-124.667 -123.333 -272.334 -185 -443.001 -185c-98 0 -190.333 21 -277 63l-32 -49h-183l87 133c-150 126.667 -225 287 -225 481c0 172 62 320 186 444s272 186 444 186
c96 0 188 -21.667 276 -65l32 50h183l-87 -133c150 -127.333 225 -288 225 -482z" />
    <glyph glyph-name="ugrave" unicode="&#xf9;" horiz-adv-x="1306" 
d="M652 1382l-230 154h153l154 -154h-77zM1152 483c0 -137.333 -48.9971 -254.333 -146.997 -351c-98.667 -97.333 -216.334 -146 -353.001 -146c-138.667 0 -256.334 48.333 -353.001 145s-145 214 -145 352v746h153v-746c0 -94 33.667 -175.333 101 -244
c68.667 -67.333 150 -101 244 -101c95.333 0 176.666 33.667 243.999 101c68 68 102 149.333 102 244v746h154v-746v0z" />
    <glyph glyph-name="uacute" unicode="&#xfa;" horiz-adv-x="1306" 
d="M652 1382h-77l154 154h153zM1152 483c0 -137.333 -48.9971 -254.333 -146.997 -351c-98.667 -97.333 -216.334 -146 -353.001 -146c-138.667 0 -256.334 48.333 -353.001 145s-145 214 -145 352v746h153v-746c0 -94 33.667 -175.333 101 -244
c68.667 -67.333 150 -101 244 -101c95.333 0 176.666 33.667 243.999 101c68 68 102 149.333 102 244v746h154v-746v0z" />
    <glyph glyph-name="ucircumflex" unicode="&#xfb;" horiz-adv-x="1306" 
d="M806 1382l-154 103l-154 -103h-76l153 154h154l153 -154h-76zM1152 483c0 -137.333 -48.9971 -254.333 -146.997 -351c-98.667 -97.333 -216.334 -146 -353.001 -146c-138.667 0 -256.334 48.333 -353.001 145s-145 214 -145 352v746h153v-746
c0 -94 33.667 -175.333 101 -244c68.667 -67.333 150 -101 244 -101c95.333 0 176.666 33.667 243.999 101c68 68 102 149.333 102 244v746h154v-746v0z" />
    <glyph glyph-name="udieresis" unicode="&#xfc;" horiz-adv-x="1306" 
d="M729 1382v123h123v-123h-123zM452 1382v123h123v-123h-123zM1152 483c0 -137.333 -48.9971 -254.333 -146.997 -351c-98.667 -97.333 -216.334 -146 -353.001 -146c-138.667 0 -256.334 48.333 -353.001 145s-145 214 -145 352v746h153v-746
c0 -94 33.667 -175.333 101 -244c68.667 -67.333 150 -101 244 -101c95.333 0 176.666 33.667 243.999 101c68 68 102 149.333 102 244v746h154v-746v0z" />
    <glyph glyph-name="yacute" unicode="&#xfd;" horiz-adv-x="905" 
d="M452 1382h-77l154 154h154zM529 591v-591h-154v591l-411 638h181l307 -473l307 473h185z" />
    <glyph glyph-name="ydieresis" unicode="&#xff;" horiz-adv-x="905" 
d="M529 1382v123h123v-123h-123zM253 1382v123h122v-123h-122zM529 591v-591h-154v591l-411 638h181l307 -473l307 473h185z" />
    <glyph glyph-name="dotlessi" unicode="&#x131;" horiz-adv-x="461" 
d="M154 0v1229h153v-1229h-153z" />
    <glyph glyph-name="caron" unicode="&#x2c7;" horiz-adv-x="853" 
d="M512 1536h-171l-170 171h85l171 -115l170 115h86z" />
    <glyph glyph-name="ring" unicode="&#x2da;" horiz-adv-x="597" 
d="M358 1579c0 39.333 -19.667 59 -59 59c-40 0 -60 -19.667 -60 -59c0 -40 20 -60 60 -60c39.333 0 59 20 59 60zM427 1579c0 -35.333 -12.666 -65.667 -37.999 -91c-24.667 -24.667 -54.667 -37 -90 -37c-36 0 -66.333 12.333 -91 37s-37 55 -37 91
c0 35.333 12.333 65.333 37 90c25.333 25.333 55.666 38 90.999 38c34.667 0 64.667 -12.667 90 -38s38 -55.333 38 -90z" />
    </font>
</defs>
</svg>
